<svg style="position: absolute; width: 0; height: 0; overflow: hidden;" version="1.1" xmlns="http://www.w3.org/2000/svg" xmlns:xlink="http://www.w3.org/1999/xlink">
<defs>
<symbol id="icon-arrow-down" viewBox="0 0 29 24">
<title>arrow-down</title>
<path d="M16.65 13.977l7.409-7.409 3.841 3.182-13.5 13.5-13.5-13.5 3.841-3.182 7.409 7.409v-13.227h4.5v13.227z"></path>
</symbol>
<symbol id="icon-arrow-up" viewBox="0 0 29 24">
<title>arrow-up</title>
<path d="M16.65 10.023l7.409 7.409 3.841-3.182-13.5-13.5-13.5 13.5 3.841 3.182 7.409-7.409v13.227h4.5v-13.227z"></path>
</symbol>
<symbol id="icon-arrow-left" viewBox="0 0 15 24">
<title>arrow-left</title>
<path d="M15.273 3.804l-3.273-3.804-12 12 12 12 3.273-3.804-9.107-8.196z"></path>
</symbol>
<symbol id="icon-arrow-right" viewBox="0 0 15 24">
<title>arrow-right</title>
<path d="M0.009 20.196l3.273 3.804 12-12-12-12-3.273 3.804 9.107 8.196z"></path>
</symbol>
<symbol id="icon-view-grid" viewBox="0 0 28 24">
<title>view-grid</title>
<path d="M3.463 3h9.692v8.308h-9.692v-8.308zM14.54 3h9.692v8.308h-9.692v-8.308zM14.54 12.692h9.692v8.308h-9.692v-8.308zM3.463 12.692h9.692v8.308h-9.692v-8.308z"></path>
</symbol>
<symbol id="icon-view-list" viewBox="0 0 26 24">
<title>view-list</title>
<path d="M3.231 3h4.154v4.154h-4.154v-4.154zM10.154 3h12.461v4.154h-12.461v-4.154zM10.154 9.923h12.461v4.154h-12.461v-4.154zM3.231 9.923h4.154v4.154h-4.154v-4.154zM10.154 16.846h12.461v4.154h-12.461v-4.154zM3.231 16.846h4.154v4.154h-4.154v-4.154z"></path>
</symbol>
<symbol id="icon-info" viewBox="0 0 10 24">
<title>info</title>
<path d="M1.462 9.645v-0.977c0.287-0.115 0.671-0.235 1.15-0.359s0.987-0.235 1.523-0.331c0.537-0.096 1.068-0.177 1.595-0.244s0.992-0.101 1.394-0.101l0.517 0.345-2.587 12.389h2.012v0.977c-0.249 0.172-0.541 0.335-0.877 0.489s-0.69 0.287-1.064 0.402c-0.374 0.115-0.752 0.206-1.135 0.273s-0.747 0.101-1.092 0.101c-0.728 0-1.231-0.139-1.509-0.417s-0.417-0.58-0.417-0.905c0-0.383 0.029-0.757 0.086-1.121s0.134-0.767 0.23-1.207l1.955-8.911-1.782-0.402zM3.876 3.177c0-0.652 0.22-1.159 0.661-1.523s0.996-0.546 1.667-0.546c0.728 0 1.308 0.182 1.739 0.546s0.647 0.872 0.647 1.523c0 0.613-0.216 1.102-0.647 1.466s-1.011 0.546-1.739 0.546c-0.671 0-1.226-0.182-1.667-0.546s-0.661-0.853-0.661-1.466v0z"></path>
</symbol>
<symbol id="icon-layers" viewBox="0 0 26 24">
<title>layers</title>
<path d="M20.712 13.123l2.732 1.877-10.917 7.5-10.917-7.5 2.73-1.876 8.187 5.626 8.185-5.627zM23.441 9l-10.915 7.5-10.92-7.5 10.92-7.5 10.915 7.5z"></path>
</symbol>
<symbol id="icon-metadata" viewBox="0 0 36 24">
<title>metadata</title>
<path d="M15.525 5.4h14.85v3.3h-14.85v-3.3zM15.525 15.3h11.55v3.3h-11.55v-3.3zM8.925 10.35c-1.823 0-3.3-1.477-3.3-3.3s1.477-3.3 3.3-3.3c1.823 0 3.3 1.477 3.3 3.3s-1.477 3.3-3.3 3.3zM8.925 20.25c-1.823 0-3.3-1.477-3.3-3.3s1.477-3.3 3.3-3.3c1.823 0 3.3 1.477 3.3 3.3s-1.477 3.3-3.3 3.3z"></path>
</symbol>
<symbol id="icon-widgets" viewBox="0 0 28 24">
<title>widgets</title>
<path d="M5.597 17.25v-10.5h4.5v10.5h-4.5zM11.597 17.25v-7.5h4.5v7.5h-4.5zM17.597 17.25v-15h4.5v15h-4.5zM2.597 21.75v-3h22.5v3h-22.5z"></path>
</symbol>
<symbol id="icon-check" viewBox="0 0 24 24">
<title>check</title>
<path d="M21 5q0.43 0 0.715 0.285t0.285 0.715q0 0.422-0.289 0.711l-12 12q-0.289 0.289-0.711 0.289t-0.711-0.289l-6-6q-0.289-0.289-0.289-0.711 0-0.43 0.285-0.715t0.715-0.285q0.422 0 0.711 0.289l5.289 5.297 11.289-11.297q0.289-0.289 0.711-0.289z"></path>
</symbol>
<symbol id="icon-cross" viewBox="0 0 24 24">
<title>cross</title>
<path d="M19 4q0.43 0 0.715 0.285t0.285 0.715q0 0.422-0.289 0.711l-6.297 6.289 6.297 6.289q0.289 0.289 0.289 0.711 0 0.43-0.285 0.715t-0.715 0.285q-0.422 0-0.711-0.289l-6.289-6.297-6.289 6.297q-0.289 0.289-0.711 0.289-0.43 0-0.715-0.285t-0.285-0.715q0-0.422 0.289-0.711l6.297-6.289-6.297-6.289q-0.289-0.289-0.289-0.711 0-0.43 0.285-0.715t0.715-0.285q0.422 0 0.711 0.289l6.289 6.297 6.289-6.297q0.289-0.289 0.711-0.289z"></path>
</symbol>
<symbol id="icon-drag-dots" viewBox="0 0 14 24">
<title>drag-dots</title>
<path d="M2.4 9.6c1.325 0 2.4 1.075 2.4 2.4s-1.075 2.4-2.4 2.4c-1.325 0-2.4-1.075-2.4-2.4s1.075-2.4 2.4-2.4z"></path>
<path d="M12 9.6c1.325 0 2.4 1.075 2.4 2.4s-1.075 2.4-2.4 2.4c-1.325 0-2.4-1.075-2.4-2.4s1.075-2.4 2.4-2.4z"></path>
<path d="M2.4 0c1.325 0 2.4 1.075 2.4 2.4s-1.075 2.4-2.4 2.4c-1.325 0-2.4-1.075-2.4-2.4s1.075-2.4 2.4-2.4z"></path>
<path d="M12 0c1.325 0 2.4 1.075 2.4 2.4s-1.075 2.4-2.4 2.4c-1.325 0-2.4-1.075-2.4-2.4s1.075-2.4 2.4-2.4z"></path>
<path d="M2.4 19.2c1.325 0 2.4 1.075 2.4 2.4s-1.075 2.4-2.4 2.4c-1.325 0-2.4-1.075-2.4-2.4s1.075-2.4 2.4-2.4z"></path>
<path d="M12 19.2c1.325 0 2.4 1.075 2.4 2.4s-1.075 2.4-2.4 2.4c-1.325 0-2.4-1.075-2.4-2.4s1.075-2.4 2.4-2.4z"></path>
</symbol>
<symbol id="icon-twitter" viewBox="0 0 25 24">
<title>twitter</title>
<path d="M19.835 6.545c0.793-0.595 1.388-1.388 1.785-2.182-0.794 0.397-1.587 0.793-2.579 0.992-0.793-0.992-1.785-1.388-2.975-1.388-2.182 0-3.967 1.785-3.967 3.967 0 0.397 0 0.595 0.198 0.991-3.57-0.198-6.545-1.785-8.529-4.165-0.397 0.595-0.595 1.19-0.595 1.984 0 1.388 0.793 2.579 1.785 3.372-0.595 0-1.19-0.198-1.785-0.595 0 0 0 0 0 0 0 1.984 1.388 3.57 3.173 3.967-0.198 0.198-0.595 0.397-0.992 0.397-0.198 0-0.595 0-0.793 0 0.595 1.587 1.984 2.777 3.769 2.777-1.388 0.991-2.975 1.587-4.959 1.587-0.397 0-0.595 0-0.991 0 1.785 1.19 3.967 1.785 6.148 1.785 7.537 0 11.504-6.149 11.504-11.504 0-0.198 0-0.397 0-0.595 0.794-0.595 1.388-1.388 1.984-2.182-0.595 0.397-1.388 0.595-2.182 0.794z"></path>
</symbol>
<symbol id="icon-facebook" viewBox="0 0 25 24">
<title>facebook</title>
<path d="M16.616 8.514h-2.987v-1.992c0-0.664 0.332-0.996 0.664-0.996h1.992v-3.32l-2.656-0.332c-3.32 0-3.983 2.656-3.983 4.315v2.324h-1.992v3.652h1.992v9.959h3.983v-9.959h2.656l0.332-3.652z"></path>
</symbol>
<symbol id="icon-linkedin" viewBox="0 0 24 24">
<title>linkedin</title>
<path d="M9 6.75h4.151v2.128h0.059c0.578-1.036 1.991-2.128 4.098-2.128 4.381 0 5.192 2.728 5.192 6.275v7.225h-4.327v-6.405c0-1.528-0.032-3.493-2.251-3.493-2.254 0-2.597 1.663-2.597 3.382v6.516h-4.325v-13.5z"></path>
<path d="M1.5 6.75h4.5v13.5h-4.5v-13.5z"></path>
<path d="M6 3c0 1.243-1.007 2.25-2.25 2.25s-2.25-1.007-2.25-2.25c0-1.243 1.007-2.25 2.25-2.25s2.25 1.007 2.25 2.25z"></path>
</symbol>
<symbol id="icon-cog" viewBox="0 0 24 24">
<title>cog</title>
<path d="M21.886 14.303c-1.259-2.181-0.502-4.976 1.691-6.246l-2.359-4.085c-0.674 0.395-1.457 0.622-2.294 0.622-2.521 0-4.564-2.056-4.564-4.594h-4.717c0.006 0.783-0.189 1.577-0.608 2.302-1.259 2.181-4.058 2.923-6.254 1.658l-2.358 4.085c0.679 0.386 1.267 0.951 1.684 1.676 1.257 2.177 0.504 4.967-1.681 6.239l2.359 4.085c0.671-0.391 1.451-0.615 2.283-0.615 2.513 0 4.55 2.044 4.563 4.569h4.717c-0.002-0.776 0.194-1.56 0.608-2.279 1.257-2.177 4.049-2.921 6.244-1.664l2.359-4.085c-0.674-0.386-1.259-0.95-1.674-1.669zM12 16.859c-2.683 0-4.859-2.176-4.859-4.859s2.176-4.859 4.859-4.859c2.683 0 4.859 2.176 4.859 4.859s-2.176 4.859-4.859 4.859z"></path>
</symbol>
<symbol id="icon-search" viewBox="0 0 24 24">
<title>search</title>
<path d="M22.628 20l-4.343-4.457c1.028-1.6 1.715-3.543 1.715-5.486 0-5.486-4.457-10.058-9.943-10.058s-10.057 4.457-10.057 10.058 4.457 10.057 9.943 10.057c2.057 0 3.886-0.572 5.486-1.715l4.342 4.343c0.343 0.343 1.028 0.343 1.372 0l1.372-1.372c0.457-0.343 0.457-1.028 0.114-1.372zM9.943 18.057c-4.343 0-8-3.657-8-8s3.543-8 8-8 8 3.657 8 8-3.543 8-8 8z"></path>
</symbol>
<symbol id="icon-info2" viewBox="0 0 10 24">
<title>info2</title>
<path d="M7.902 8.104l-2.943 10.561c-0.173 0.52-0.173 1.039-0.173 1.212s0 0.173 0.173 0.346c0 0.173 0.173 0.173 0.347 0.173s0.346 0 0.52-0.173c0.52-0.346 1.039-1.039 1.558-2.078l0.52 0.346c-1.732 2.424-3.29 3.809-5.021 3.809-0.692 0-1.212-0.173-1.558-0.52s-0.52-0.866-0.52-1.385c0-0.346 0-0.865 0.173-1.385l2.078-7.099c0.346-0.866 0.346-1.385 0.346-1.732 0-0.173-0.173-0.346-0.346-0.52s-0.347-0.173-0.692-0.173c-0.173 0-0.347 0-0.52 0l0.173-0.52z"></path>
<path d="M8.594 5.507c-0.346 0.346-0.865 0.692-1.558 0.692-0.52 0-1.039-0.173-1.558-0.692-0.346-0.52-0.52-1.039-0.52-1.558s0.173-1.039 0.692-1.558c0.346-0.347 0.865-0.692 1.558-0.692s1.212 0.173 1.558 0.692c0.347 0.347 0.52 0.866 0.52 1.558 0 0.52-0.173 1.039-0.692 1.558z"></path>
</symbol>
<symbol id="icon-share" viewBox="0 0 24 24">
<title>share</title>
<path d="M12.941 14.158v4.868l7.966-7.966-7.966-7.967v4.868c-3.541 0.11-9.958 1.66-9.958 9.959v2.877l1.438-2.434c1.881-3.098 3.762-4.094 8.52-4.204z"></path>
</symbol>
<symbol id="icon-logo" viewBox="0 0 146 24">
<title>logo</title>
<path d="M38.193 11.711c0.347-0.465 0.521-1.030 0.521-1.694 0-0.549-0.096-1.008-0.286-1.375-0.192-0.368-0.449-0.659-0.774-0.877s-0.702-0.385-1.133-0.478-0.887-0.152-1.367-0.152h-3.517v9.456h2.077v-3.841h0.894l1.974 3.841h2.495l-2.401-3.985c0.667-0.124 1.174-0.431 1.52-0.896v0zM36.386 10.602c-0.111 0.142-0.251 0.245-0.42 0.312s-0.358 0.068-0.567 0.081-0.407-0.018-0.593-0.018h-1.094v-2.069h1.228c0.187 0 0.378 0.017 0.573 0.043s0.369 0.080 0.52 0.155c0.151 0.076 0.275 0.184 0.373 0.326s0.146 0.332 0.146 0.572c0 0.257-0.056 0.457-0.167 0.598zM42.018 12.751h4.153v-2.068h-4.153v-1.478h4.153v-2.069h-6.23v9.456h6.527v-2.068h-4.45v-1.773zM52.805 11.611c-0.325-0.195-0.674-0.346-1.047-0.451s-0.723-0.212-1.047-0.319c-0.325-0.107-0.594-0.234-0.807-0.386s-0.32-0.367-0.32-0.651c0-0.177 0.044-0.328 0.133-0.451s0.205-0.224 0.346-0.299c0.142-0.075 0.293-0.13 0.454-0.166s0.316-0.053 0.467-0.053c0.258 0 0.531 0.051 0.82 0.152s0.518 0.259 0.687 0.472l1.427-1.554c-0.4-0.354-0.849-0.607-1.347-0.757s-1.014-0.226-1.547-0.226c-0.462 0-0.911 0.064-1.347 0.193s-0.82 0.321-1.154 0.577c-0.334 0.257-0.601 0.576-0.8 0.957s-0.3 0.823-0.3 1.328c0 0.523 0.109 0.943 0.327 1.262s0.491 0.576 0.821 0.771c0.329 0.195 0.685 0.349 1.067 0.465s0.738 0.23 1.066 0.346 0.602 0.255 0.82 0.418c0.218 0.164 0.327 0.388 0.327 0.67 0 0.169-0.043 0.315-0.127 0.439s-0.196 0.226-0.334 0.305-0.294 0.14-0.467 0.179c-0.173 0.040-0.345 0.060-0.514 0.060-0.346 0-0.682-0.077-1.007-0.232s-0.594-0.373-0.807-0.657l-1.48 1.621c0.453 0.416 0.942 0.718 1.467 0.904s1.094 0.279 1.707 0.279c0.488 0 0.954-0.062 1.394-0.186s0.827-0.314 1.16-0.571 0.598-0.58 0.794-0.971c0.196-0.39 0.293-0.846 0.293-1.368 0-0.549-0.106-0.988-0.32-1.316s-0.482-0.589-0.807-0.784zM63.362 8.257c-0.453-0.43-0.992-0.76-1.614-0.99s-1.303-0.346-2.041-0.346c-0.738 0-1.418 0.116-2.041 0.346s-1.16 0.56-1.614 0.99-0.807 0.95-1.060 1.562c-0.253 0.611-0.38 1.293-0.38 2.046s0.127 1.435 0.38 2.046c0.253 0.611 0.607 1.132 1.060 1.561s0.992 0.76 1.614 0.99c0.623 0.23 1.303 0.346 2.041 0.346s1.418-0.116 2.041-0.346c0.623-0.23 1.16-0.56 1.614-0.99s0.807-0.95 1.061-1.561c0.253-0.611 0.38-1.293 0.38-2.046s-0.127-1.435-0.38-2.046c-0.253-0.611-0.607-1.132-1.061-1.562zM62.435 13.080c-0.138 0.367-0.336 0.686-0.594 0.956s-0.567 0.481-0.927 0.631c-0.36 0.151-0.763 0.226-1.207 0.226s-0.847-0.075-1.207-0.226-0.669-0.361-0.927-0.631c-0.258-0.27-0.456-0.589-0.593-0.956s-0.207-0.773-0.207-1.216c0-0.433 0.069-0.837 0.207-1.209s0.335-0.693 0.593-0.963c0.258-0.27 0.567-0.48 0.927-0.632s0.763-0.226 1.207-0.226c0.445 0 0.847 0.075 1.207 0.226s0.669 0.361 0.927 0.632c0.258 0.271 0.456 0.591 0.594 0.963s0.207 0.775 0.207 1.209c0 0.443-0.069 0.848-0.207 1.216zM71.686 12.86c0 0.293-0.020 0.563-0.113 0.811s-0.212 0.463-0.38 0.644c-0.169 0.182-0.362 0.323-0.594 0.425s-0.482 0.153-0.757 0.153c-0.275 0-0.53-0.051-0.766-0.153s-0.437-0.244-0.606-0.425c-0.169-0.182-0.354-0.396-0.447-0.644s-0.193-0.518-0.193-0.811v-5.725h-2.077v5.804c0 0.558 0.136 1.072 0.305 1.541s0.446 0.877 0.78 1.222 0.762 0.616 1.26 0.81c0.498 0.195 1.082 0.293 1.741 0.293 0.649 0 1.226-0.098 1.724-0.293s0.915-0.465 1.249-0.81c0.334-0.346 0.557-0.753 0.726-1.222s0.226-0.983 0.226-1.541v-5.804h-2.077v5.725zM82.076 11.711c0.347-0.465 0.52-1.030 0.52-1.694 0-0.549-0.096-1.008-0.287-1.375-0.192-0.368-0.449-0.659-0.774-0.877s-0.702-0.385-1.133-0.478-0.887-0.152-1.367-0.152h-3.788v9.456h2.077v-3.841h1.165l1.974 3.841h2.494l-2.401-3.985c0.667-0.124 1.174-0.431 1.521-0.896zM80.269 10.602c-0.111 0.142-0.251 0.245-0.42 0.312s-0.358 0.068-0.567 0.081-0.407-0.018-0.594-0.018h-1.365v-2.069h1.498c0.187 0 0.378 0.017 0.573 0.043s0.37 0.080 0.521 0.155c0.151 0.076 0.275 0.184 0.373 0.326s0.146 0.332 0.146 0.572c0 0.257-0.056 0.457-0.166 0.598zM89.119 14.627c-0.329 0.178-0.707 0.266-1.133 0.266-0.374 0-0.723-0.075-1.047-0.226s-0.607-0.361-0.847-0.631c-0.24-0.27-0.429-0.589-0.567-0.956s-0.207-0.773-0.207-1.216c0-0.434 0.069-0.837 0.207-1.209s0.329-0.693 0.574-0.963c0.244-0.27 0.533-0.48 0.867-0.632s0.696-0.226 1.087-0.226 0.736 0.066 1.034 0.199c0.298 0.133 0.549 0.323 0.754 0.572l1.601-1.302c-0.205-0.256-0.436-0.474-0.694-0.651s-0.526-0.319-0.807-0.425c-0.28-0.106-0.565-0.184-0.854-0.232s-0.567-0.073-0.834-0.073c-0.738 0-1.418 0.115-2.041 0.346s-1.16 0.56-1.614 0.99-0.807 0.95-1.061 1.562c-0.253 0.61-0.38 1.293-0.38 2.046s0.127 1.435 0.38 2.046c0.254 0.611 0.607 1.132 1.061 1.562s0.992 0.76 1.614 0.99c0.623 0.23 1.303 0.346 2.041 0.346 0.649 0 1.28-0.133 1.894-0.398s1.121-0.677 1.521-1.236l-1.734-1.289c-0.214 0.319-0.484 0.567-0.814 0.744zM94.53 12.751h4.154v-2.068h-4.154v-1.478h4.451v-2.069h-6.527v9.456h6.824v-2.068h-4.747v-1.773zM111.674 7.136l-2.347 8.274h-0.027l-2.388-8.274h-1.121l-2.387 8.274h-0.027l-2.347-8.274h-0.907l2.747 9.456h1.081l2.388-8.274h0.027l2.388 8.274h1.080l2.748-9.456h-0.907zM116.476 7.136l-4.122 9.456h0.92l1.067-2.659h5.002l1.027 2.659h0.987l-3.975-9.456h-0.907zM114.689 13.342l2.201-5.155 2.135 5.155h-4.335zM121.231 8.023h3.263v8.57h0.89v-8.57h3.263v-0.887h-7.417v0.887zM136.123 15.206c-0.222 0.181-0.456 0.332-0.7 0.451s-0.496 0.209-0.754 0.265c-0.258 0.058-0.507 0.086-0.747 0.086-0.614 0-1.167-0.106-1.66-0.319s-0.913-0.505-1.26-0.877c-0.346-0.372-0.614-0.81-0.801-1.316s-0.28-1.049-0.28-1.634 0.094-1.13 0.28-1.634c0.187-0.505 0.454-0.944 0.801-1.316s0.767-0.664 1.26-0.877c0.493-0.212 1.047-0.319 1.66-0.319 0.48 0 0.949 0.102 1.408 0.305 0.458 0.204 0.833 0.527 1.127 0.97l0.72-0.598c-0.418-0.531-0.905-0.91-1.46-1.136s-1.154-0.338-1.794-0.338c-0.72 0-1.381 0.124-1.981 0.372s-1.114 0.591-1.541 1.030c-0.427 0.439-0.76 0.959-1 1.562s-0.36 1.262-0.36 1.979c0 0.717 0.12 1.38 0.36 1.986s0.574 1.13 1 1.568c0.427 0.438 0.94 0.779 1.541 1.023s1.261 0.365 1.981 0.365c0.694 0 1.338-0.133 1.934-0.398s1.121-0.704 1.574-1.316l-0.72-0.544c-0.169 0.257-0.365 0.476-0.587 0.658zM144.966 7.136v4.137h-5.34v-4.137h-0.89v9.456h0.89v-4.432h5.34v4.432h0.89v-9.456h-0.89z"></path>
<path d="M7.722 4.323l-7.722 7.692 5.451 5.43 7.723-7.692-5.452-5.43z"></path>
<path d="M14.288 8.54l3.121-3.108-5.348-5.328-3.121 3.108 5.348 5.328z"></path>
<path d="M16.273 19.788l7.723-7.692-5.451-5.43-7.723 7.692 5.451 5.43z"></path>
<path d="M9.707 15.57l-3.12 3.108 5.349 5.328 3.12-3.108-5.349-5.328z"></path>
</symbol>
<symbol id="icon-hash" viewBox="0 0 21 24">
<title>hash</title>
<path d="M19.688 9.375v-2.625h-3.284l0.656-5.25h-2.625l-0.656 5.25h-5.249l0.656-5.25h-2.625l-0.656 5.25h-4.592v2.625h4.264l-0.655 5.25h-3.609v2.625h3.281l-0.656 5.25h2.625l0.656-5.25h5.249l-0.656 5.25h2.626l0.656-5.25h4.594v-2.625h-4.266l0.654-5.25h3.612zM12.796 14.625h-5.249l0.655-5.25h5.249l-0.655 5.25z"></path>
</symbol>
<symbol id="icon-type" viewBox="0 0 24 24">
<title>type</title>
<path d="M19.875 1.5h-15.75c-0.362 0-0.656 0.294-0.656 0.656v3.938c0 0.362 0.294 0.656 0.656 0.656h0.656c0.362 0 0.656-0.294 0.656-0.656l1.313-1.969h3.938v15.75l-3.281 1.313c-0.362 0-0.656 0.293-0.656 0.656s0.294 0.656 0.656 0.656h9.188c0.363 0 0.656-0.293 0.656-0.656s-0.293-0.656-0.656-0.656l-3.281-1.313v-15.75h3.938l1.313 1.969c0 0.362 0.293 0.656 0.656 0.656h0.656c0.363 0 0.656-0.294 0.656-0.656v-3.938c0-0.362-0.293-0.656-0.656-0.656z"></path>
</symbol>
<symbol id="icon-minus" viewBox="0 0 24 24">
<title>minus</title>
<path d="M4.125 13.432h15.67v-2.864h-15.67z"></path>
</symbol>
<symbol id="icon-plus" viewBox="0 0 24 24">
<title>plus</title>
<path d="M9.962 1.5v8.4h-8.462v4.2h8.462v8.4h4.076v-8.4h8.462v-4.2h-8.462v-8.4z"></path>
</symbol>
<symbol id="icon-filter" viewBox="0 0 24 24">
<title>filter</title>
<path d="M12 1.5c-5.799 0-10.5 1.469-10.5 3.281v1.969l7.875 7.875v6.563c0 0.725 1.175 1.313 2.625 1.313s2.625-0.588 2.625-1.313v-6.563l7.875-7.875v-1.969c0-1.812-4.701-3.281-10.5-3.281zM3.436 4.347c0.491-0.28 1.181-0.546 1.995-0.769 1.804-0.494 4.137-0.766 6.569-0.766s4.766 0.272 6.569 0.766c0.814 0.223 1.504 0.489 1.995 0.769 0.324 0.185 0.499 0.341 0.58 0.434-0.081 0.093-0.256 0.25-0.58 0.434-0.491 0.28-1.181 0.546-1.995 0.769-1.804 0.494-4.137 0.766-6.569 0.766s-4.766-0.272-6.569-0.766c-0.814-0.223-1.504-0.489-1.995-0.769-0.324-0.185-0.499-0.341-0.58-0.434 0.082-0.093 0.256-0.25 0.58-0.434z"></path>
</symbol>
</defs>
</svg>
