<svg aria-hidden="true" style="position: absolute; width: 0; height: 0; overflow: hidden;" version="1.1" xmlns="http://www.w3.org/2000/svg" xmlns:xlink="http://www.w3.org/1999/xlink">
<defs>
<symbol id="icon-Info" viewBox="0 0 32 32">
<path fill="#000" style="fill: var(--color1, #000)" d="M28.8 16c0 7.069-5.731 12.8-12.8 12.8s-12.8-5.731-12.8-12.8c0-7.069 5.731-12.8 12.8-12.8s12.8 5.731 12.8 12.8z"></path>
<path fill="#fff" style="fill: var(--color2, #fff); stroke: var(--color3, #1a1c22)" stroke="#1a1c22" stroke-linejoin="miter" stroke-linecap="butt" stroke-miterlimit="4" stroke-width="0.64" d="M29.12 16c0 7.246-5.874 13.12-13.12 13.12s-13.12-5.874-13.12-13.12c0-7.246 5.874-13.12 13.12-13.12s13.12 5.874 13.12 13.12z"></path>
<path fill="#0f4573" style="fill: var(--color4, #0f4573)" d="M16.893 11.328c0.506 0 0.939-0.167 1.298-0.502s0.539-0.739 0.539-1.214c0-0.475-0.18-0.881-0.539-1.219s-0.792-0.506-1.298-0.506c-0.506 0-0.941 0.169-1.303 0.506s-0.544 0.744-0.544 1.219c0 0.475 0.181 0.88 0.544 1.214s0.797 0.502 1.303 0.502zM15.562 22.653c0.488 0 0.916-0.064 1.284-0.192s0.863-0.314 1.481-0.558v0l0.206-0.844c-0.106 0.050-0.278 0.108-0.516 0.173s-0.45 0.098-0.637 0.098c-0.4 0-0.681-0.066-0.844-0.197s-0.244-0.378-0.244-0.741c0-0.144 0.025-0.356 0.075-0.637s0.106-0.531 0.169-0.75v0l0.769-2.728c0.075-0.25 0.127-0.525 0.155-0.825s0.042-0.509 0.042-0.628c0-0.575-0.202-1.042-0.605-1.402s-0.977-0.539-1.72-0.539c-0.412 0-0.85 0.073-1.313 0.22s-0.947 0.323-1.453 0.53v0l-0.206 0.844c0.15-0.056 0.33-0.116 0.539-0.178s0.414-0.094 0.614-0.094c0.406 0 0.681 0.069 0.825 0.206s0.216 0.381 0.216 0.731c0 0.194-0.023 0.408-0.070 0.642s-0.105 0.483-0.173 0.745v0l-0.769 2.738c-0.069 0.288-0.119 0.545-0.15 0.773s-0.047 0.452-0.047 0.67c0 0.563 0.208 1.027 0.623 1.392s0.998 0.548 1.748 0.548z"></path>
</symbol>
<symbol id="icon-biodiversity" viewBox="0 0 32 32">
<path d="M16.003 2.56c1.436 0 2.783 0.639 3.691 1.719v0l0.075 0.092 0.034-0.014c0.513-0.216 1.062-0.342 1.624-0.37v0l0.211-0.006c2.486 0.013 4.53 1.881 4.824 4.285v0l0.002 0.021 0.178 0.026c2.275 0.377 4.015 2.324 4.079 4.684v0l0.002 0.158c-0.002 1.204-0.448 2.365-1.245 3.253v0l-2.899 3.342-0.701 5.608c-0.195 1.552-1.481 2.727-3.029 2.797l-0.146 0.003-3.44 0c-0.879 0.816-2.041 1.28-3.261 1.28-1.229 0-2.399-0.471-3.265-1.28l-3.435-0c-1.564 0-2.891-1.128-3.154-2.656l-0.021-0.144-0.701-5.605-3.014-3.474c-1.147-1.378-1.45-3.274-0.788-4.94l0.072-0.171c0.681-1.543 2.098-2.61 3.733-2.863v0l0.11-0.015 0.025-0.179c0.354-2.278 2.284-4.039 4.652-4.126v0l0.159-0.003c0.63 0.004 1.251 0.133 1.828 0.376v0l0.033 0.014 0.075-0.092c0.87-1.036 2.144-1.665 3.512-1.716v0zM16.003 3.84c-1.155 0-2.232 0.563-2.893 1.499l1.981 13.126-1.266 0.191-1.968-13.050c-0.464-0.222-0.972-0.34-1.483-0.343-1.944 0.010-3.52 1.556-3.585 3.481l5.308 10.722-1.147 0.568-5.188-10.481c-1.265 0.146-2.372 0.951-2.894 2.133-0.575 1.302-0.333 2.821 0.626 3.888v0l9.701 11.186c0.664 0.882 1.703 1.4 2.807 1.4s2.143-0.519 2.835-1.435v0l9.681-11.162c0.594-0.662 0.923-1.519 0.925-2.41 0.009-1.886-1.43-3.441-3.274-3.609l-5.237 10.58-1.147-0.568 5.421-10.951c-0.128-1.859-1.676-3.333-3.566-3.343-0.549 0.004-1.089 0.136-1.576 0.385l-1.962 13.008-1.266-0.191 1.994-13.217c-0.665-0.881-1.709-1.407-2.826-1.407zM25.072 21.489l-4.676 5.39 2.307 0.001c0.929 0 1.719-0.663 1.887-1.565l0.018-0.114 0.464-3.711zM6.934 21.492l0.463 3.708c0.116 0.922 0.873 1.622 1.79 1.677l0.115 0.003 2.305-0.001-4.673-5.388z"></path>
</symbol>
<symbol id="icon-climate" viewBox="0 0 32 32">
<path d="M26.88 26.88v1.28h-21.76v-1.28h21.76zM30.72 22.4v1.28h-29.44v-1.28h29.44zM30.72 17.28v1.28h-3.2v-1.28h3.2zM4.48 17.28v1.28h-3.2v-1.28h3.2zM16 9.6c4.529 0 8.213 3.62 8.318 8.124l0.002 0.196v0.64h-1.28v-0.64c0-3.888-3.152-7.040-7.040-7.040-3.826 0-6.94 3.053-7.038 6.855l-0.002 0.185v0.64h-1.28v-0.64c0-4.595 3.725-8.32 8.32-8.32zM25.956 7.059l0.905 0.905-2.263 2.263-0.905-0.905 2.263-2.263zM6.044 7.059l2.263 2.263-0.905 0.905-2.263-2.263 0.905-0.905zM16.64 3.2v3.2h-1.28v-3.2h1.28z"></path>
</symbol>
<symbol id="icon-dependence" viewBox="0 0 32 32">
<path d="M16.64 24c0 3.004 2.436 5.44 5.44 5.44 2.95 0 5.351-2.348 5.438-5.277l0.002-0.163v-4.244l-3.378 2.252-0.71-1.065 5.368-3.578v6.636c0 3.711-3.009 6.72-6.72 6.72-2.687 0-5.005-1.577-6.080-3.855-1.075 2.278-3.393 3.855-6.080 3.855-3.651 0-6.621-2.911-6.718-6.538l-0.002-0.182v-6.636l5.368 3.578-0.71 1.065-3.377-2.251v4.244c0 2.95 2.348 5.351 5.277 5.438l0.163 0.002c2.95 0 5.351-2.348 5.438-5.277l0.002-0.163v-12.48h1.28v12.48zM16 1.28c2.121 0 3.84 1.719 3.84 3.84s-1.719 3.84-3.84 3.84c-2.121 0-3.84-1.719-3.84-3.84s1.719-3.84 3.84-3.84zM16 2.56c-1.414 0-2.56 1.146-2.56 2.56s1.146 2.56 2.56 2.56c1.414 0 2.56-1.146 2.56-2.56s-1.146-2.56-2.56-2.56z"></path>
</symbol>
<symbol id="icon-economy" viewBox="0 0 32 32">
<path d="M19.2 17.92v12.8h-6.4v-12.8h6.4zM7.68 24.32v6.4h-6.4v-6.4h6.4zM30.72 11.52v19.2h-6.4v-19.2h6.4zM17.92 19.2h-3.84v10.24h3.84v-10.24zM6.4 25.6h-3.84v3.84h3.84v-3.84zM29.44 12.8h-3.84v16.64h3.84v-16.64zM25.6 1.28v7.040h-1.28v-4.855l-8.32 8.32-5.12-5.12-5.947 5.947-0.905-0.905 6.853-6.853 5.12 5.119 7.414-7.414h-4.854v-1.28h7.040z"></path>
</symbol>
<symbol id="icon-land-sea" viewBox="0 0 32 32">
<path d="M23.040 28.16v1.28h-14.080v-1.28h14.080zM16.64 2.56v2.56h7.369l6.711 9.395v0.205c0 3.181-2.579 5.76-5.76 5.76-3.124 0-5.668-2.488-5.758-5.59l-0.002-0.301 3.509-8.189h-6.069v19.84h-1.28v-19.84h-6.070l3.51 8.189v0.131c0 3.181-2.579 5.76-5.76 5.76-3.124 0-5.668-2.488-5.758-5.59l-0.002-0.17v-0.205l6.711-9.395h7.369v-2.56h1.28zM11.475 15.361l-8.869-0c0.304 2.121 2.093 3.763 4.281 3.837l0.154 0.003c2.257 0 4.124-1.669 4.435-3.839zM29.395 15.361h-8.869c0.304 2.121 2.093 3.763 4.281 3.837l0.154 0.003c2.257 0 4.124-1.669 4.435-3.839zM23.82 7.057l-3.010 7.023h8.026l-5.016-7.023zM8.179 7.057l-5.016 7.023h8.026l-3.009-7.023z"></path>
</symbol>
<symbol id="icon-marine" viewBox="0 0 32 32">
<path d="M16.32 23.733l0.481 0.549c1.042 1.189 2.528 1.896 4.108 1.955 1.511 0.056 2.981-0.486 4.092-1.504l0.149-0.142 0.449-0.442 0.449 0.442c1.026 1.010 2.392 1.595 3.825 1.645l0.205 0.003 0.64-0.001 0.001 1.28-0.64 0.001c-1.623 0.002-3.189-0.559-4.438-1.575l-0.043-0.037-0.029 0.024c-1.264 1.034-2.853 1.599-4.495 1.588l-0.214-0.005c-1.646-0.061-3.208-0.697-4.423-1.783l-0.119-0.111-0.125 0.116c-1.226 1.094-2.803 1.729-4.459 1.78l-0.216 0.003c-1.734 0-3.396-0.641-4.675-1.783l-0.128-0.118-0.127 0.116c-1.228 1.085-2.799 1.718-4.45 1.78l-0.216 0.005-0.64 0.004-0.009-1.28 0.64-0.004c1.589-0.011 3.101-0.668 4.192-1.815l0.134-0.146 0.482-0.542 0.478 0.546c1.090 1.245 2.664 1.958 4.319 1.958 1.588 0 3.102-0.658 4.185-1.812l0.133-0.147 0.481-0.549zM21.545 5.1c1.604 0.68 3.020 1.84 3.88 2.866l0.125 0.153 0.667 0.839-1.055 0.19c-2.093 0.376-3.1 2.493-2.49 4.914 0.648 2.575 2.838 4.42 5.926 4.497l0.203 0.003h1.92v1.28h-1.92c-3.795 0-6.567-2.28-7.37-5.467-0.662-2.63 0.244-5.12 2.336-6.115l0.128-0.059-0.031-0.030c-0.687-0.661-1.597-1.331-2.587-1.789l-0.23-0.102c-2.173-0.921-4.357-0.679-6.535 1.14-1.258 1.050-2.085 2.359-3.002 4.503l-0.313 0.752-0.308 0.759c-0.064 0.159-0.129 0.314-0.193 0.466l-0.191 0.446-0.191 0.426c-1.654 3.607-3.321 5.017-6.903 5.069l-0.209 0.002h-1.92v-1.28h1.92c2.802 0 4.183-0.878 5.514-3.428l0.177-0.35 0.177-0.37c0.030-0.063 0.059-0.128 0.089-0.193l0.179-0.401 0.181-0.423 0.694-1.695c1.037-2.48 1.973-4.008 3.477-5.264 2.561-2.139 5.256-2.437 7.855-1.336z"></path>
</symbol>
<symbol id="icon-rw-logo" viewBox="0 0 194 32">
<path d="M50.728 15.299c0.462-0.611 0.693-1.354 0.693-2.228 0-0.722-0.128-1.325-0.381-1.809-0.255-0.483-0.598-0.867-1.030-1.153s-0.934-0.506-1.509-0.628-1.18-0.2-1.82-0.2h-4.681v12.436h2.764v-5.052h1.19l2.627 5.052h3.32l-3.195-5.241c0.888-0.163 1.562-0.567 2.023-1.178v0zM67.803 9c-0.615 0-1.213 0.085-1.793 0.253s-1.091 0.422-1.535 0.76c-0.444 0.338-0.799 0.758-1.065 1.258s-0.399 1.084-0.399 1.747c0 0.687 0.145 1.241 0.435 1.66s0.654 0.757 1.092 1.014c0.437 0.256 0.911 0.46 1.42 0.611s0.982 0.303 1.42 0.454 0.802 0.335 1.092 0.55c0.29 0.216 0.435 0.509 0.435 0.882 0 0.222-0.056 0.414-0.169 0.577s-0.26 0.297-0.444 0.401-0.391 0.184-0.621 0.236c-0.231 0.052-0.459 0.079-0.683 0.079-0.462 0-0.908-0.102-1.34-0.306-0.432-0.203-0.79-0.492-1.074-0.864l-1.97 2.131c0.603 0.548 1.254 0.944 1.952 1.188s1.455 0.367 2.272 0.367c0.65 0 1.269-0.082 1.855-0.245s1.1-0.413 1.544-0.751 0.796-0.763 1.056-1.276c0.26-0.513 0.39-1.112 0.39-1.799 0-0.722-0.142-1.299-0.426-1.73s-0.642-0.775-1.074-1.031-0.896-0.454-1.393-0.594c-0.497-0.14-0.962-0.279-1.393-0.419s-0.79-0.308-1.074-0.507c-0.284-0.198-0.426-0.483-0.426-0.856 0-0.233 0.059-0.431 0.177-0.594s0.272-0.294 0.462-0.393c0.189-0.099 0.39-0.172 0.604-0.218s0.42-0.070 0.621-0.070c0.343 0 0.707 0.067 1.091 0.201s0.689 0.341 0.914 0.62l1.899-2.044c-0.532-0.466-1.13-0.798-1.793-0.996s-1.349-0.297-2.059-0.297zM79.359 9c-0.982 0-1.888 0.152-2.716 0.454s-1.544 0.737-2.148 1.302-1.074 1.249-1.411 2.053c-0.337 0.803-0.506 1.701-0.506 2.691s0.169 1.887 0.506 2.691c0.338 0.804 0.808 1.488 1.411 2.054s1.319 0.999 2.148 1.302c0.828 0.303 1.734 0.454 2.716 0.454s1.887-0.152 2.716-0.454c0.828-0.303 1.544-0.736 2.147-1.302s1.074-1.249 1.412-2.054c0.337-0.803 0.506-1.7 0.506-2.691s-0.169-1.887-0.506-2.691c-0.338-0.804-0.808-1.488-1.412-2.053s-1.319-0.999-2.147-1.302c-0.829-0.303-1.734-0.454-2.716-0.454zM61.345 9.282h-8.291v12.436h8.686v-2.72h-5.922v-2.332h5.527v-2.72h-5.527v-1.943h5.527v-2.72zM46.397 11.614c0.248 0 0.503 0.021 0.763 0.056s0.492 0.104 0.693 0.203c0.201 0.1 0.367 0.243 0.497 0.429s0.195 0.437 0.195 0.752c0 0.338-0.074 0.601-0.221 0.787s-0.335 0.323-0.559 0.411c-0.225 0.087-0.477 0.089-0.755 0.107s-0.541-0.024-0.79-0.024h-1.456v-2.72h1.634zM90.166 9.282h-2.764v7.634c0 0.734 0.182 1.41 0.406 2.027s0.594 1.154 1.038 1.608 1.014 0.81 1.677 1.066c0.663 0.256 1.441 0.384 2.316 0.384 0.863 0 1.631-0.128 2.294-0.384s1.218-0.611 1.662-1.066c0.444-0.454 0.741-0.99 0.966-1.608s0.3-1.293 0.3-2.027v-7.634h-2.764v7.529c0 0.384-0.027 0.74-0.151 1.066s-0.281 0.609-0.506 0.847c-0.225 0.239-0.482 0.425-0.79 0.559s-0.641 0.201-1.007 0.201c-0.367 0-0.705-0.067-1.019-0.201s-0.582-0.32-0.807-0.559c-0.225-0.239-0.471-0.521-0.595-0.847s-0.258-0.682-0.258-1.066v-7.529zM100.036 9.282v12.436h2.764v-5.052h1.551l2.627 5.052h3.32l-3.195-5.241c0.888-0.163 1.562-0.567 2.024-1.178s0.692-1.354 0.692-2.228c0-0.722-0.128-1.325-0.381-1.809-0.255-0.483-0.598-0.867-1.030-1.153s-0.934-0.506-1.509-0.628-1.18-0.2-1.82-0.2zM79.359 11.516c0.591 0 1.127 0.099 1.606 0.297s0.891 0.475 1.234 0.83c0.343 0.356 0.606 0.778 0.79 1.267s0.275 1.019 0.275 1.59c0 0.583-0.092 1.116-0.275 1.599s-0.447 0.903-0.79 1.258-0.754 0.632-1.234 0.83c-0.479 0.198-1.015 0.297-1.606 0.297s-1.127-0.099-1.606-0.297-0.89-0.475-1.234-0.83c-0.343-0.355-0.606-0.775-0.79-1.258s-0.275-1.016-0.275-1.599c0-0.571 0.092-1.101 0.275-1.59s0.447-0.911 0.79-1.267c0.343-0.355 0.754-0.632 1.234-0.83s1.015-0.297 1.606-0.297zM117.344 9c-0.982 0-1.888 0.152-2.716 0.454s-1.544 0.737-2.148 1.302-1.074 1.249-1.411 2.053c-0.337 0.803-0.506 1.701-0.506 2.691s0.169 1.887 0.506 2.691c0.338 0.804 0.808 1.488 1.411 2.054s1.319 0.999 2.148 1.302c0.828 0.303 1.734 0.454 2.716 0.454 0.863 0 1.704-0.175 2.52-0.524s1.491-0.891 2.024-1.625l-2.308-1.695c-0.284 0.419-0.645 0.745-1.083 0.978s-0.941 0.35-1.509 0.35c-0.497 0-0.962-0.099-1.394-0.297s-0.808-0.475-1.127-0.83c-0.32-0.355-0.571-0.775-0.754-1.258s-0.275-1.016-0.275-1.599c0-0.571 0.092-1.101 0.275-1.59s0.437-0.911 0.763-1.267c0.325-0.355 0.71-0.632 1.154-0.83s0.926-0.297 1.447-0.297 0.979 0.087 1.376 0.262c0.396 0.175 0.73 0.426 1.003 0.752l2.13-1.712c-0.272-0.338-0.58-0.623-0.923-0.856s-0.701-0.42-1.074-0.559c-0.373-0.14-0.752-0.242-1.136-0.306s-0.754-0.096-1.109-0.096zM131.621 9.282h-8.686v12.436h9.081v-2.72h-6.317v-2.332h5.527v-2.72h-5.527v-1.943h5.922v-2.72zM134.348 9.282h-1.207l3.656 12.436h1.438l3.177-10.882h0.036l3.177 10.882h1.438l3.657-12.436h-1.207l-3.124 10.882h-0.036l-3.177-10.882h-1.491l-3.177 10.882h-0.036l-3.124-10.882zM156.109 9.282h-1.207l-5.485 12.436h1.225l1.42-3.498h6.656l1.367 3.498h1.314l-5.29-12.436zM104.795 11.614c0.248 0 0.503 0.021 0.763 0.056s0.492 0.104 0.692 0.203c0.201 0.1 0.367 0.243 0.497 0.429s0.195 0.437 0.195 0.752c0 0.338-0.074 0.601-0.222 0.787s-0.335 0.323-0.559 0.411c-0.225 0.087-0.477 0.089-0.754 0.107s-0.542-0.024-0.79-0.024h-1.817v-2.72h1.995zM12.945 20.706l7.133 7.133-4.161 4.161-7.133-7.133 4.161-4.161zM24.73 8.784l7.27 7.27-10.299 10.299-7.27-7.27 10.299-10.299zM10.298 5.647l7.271 7.27-10.299 10.299-7.27-7.27 10.298-10.299zM178.119 9c0.852 0 1.648 0.148 2.387 0.445s1.387 0.795 1.944 1.494v0l-0.959 0.787c-0.39-0.582-0.891-1.007-1.499-1.276-0.61-0.267-1.234-0.402-1.873-0.402-0.816 0-1.553 0.14-2.21 0.419s-1.216 0.664-1.677 1.153c-0.462 0.489-0.817 1.066-1.066 1.73s-0.373 1.38-0.373 2.149 0.124 1.485 0.373 2.149c0.249 0.664 0.604 1.241 1.066 1.73s1.021 0.874 1.677 1.153c0.657 0.28 1.393 0.419 2.21 0.419 0.32 0 0.651-0.038 0.994-0.113s0.678-0.192 1.003-0.349 0.636-0.356 0.932-0.594c0.296-0.239 0.557-0.527 0.781-0.865v0l0.958 0.716c-0.603 0.804-1.302 1.38-2.094 1.73s-1.651 0.524-2.574 0.524c-0.958 0-1.837-0.16-2.636-0.48s-1.482-0.769-2.050-1.345c-0.568-0.577-1.012-1.264-1.331-2.062s-0.479-1.669-0.479-2.612c0-0.944 0.16-1.811 0.479-2.604s0.764-1.476 1.331-2.053c0.568-0.576 1.252-1.028 2.050-1.354s1.678-0.489 2.636-0.489zM171.101 9.282v1.166h-4.343v11.271h-1.184v-11.271h-4.343v-1.166h9.87zM185.709 9.282v5.441h7.107v-5.441h1.184v12.436h-1.184v-5.83h-7.107v5.83h-1.184v-12.436h1.184zM155.452 10.664l2.84 6.779h-5.769l2.929-6.779zM16.083 0l7.133 7.133-4.161 4.161-7.133-7.133 4.161-4.161z"></path>
</symbol>
<symbol id="icon-widget" viewBox="0 0 32 32">
<path d="M32 25.6v2.133h-32v-2.133h32zM10.667 14.933v8.533h-6.4v-8.533h6.4zM19.2 4.267v19.2h-6.4v-19.2h6.4zM27.733 10.667v12.8h-6.4v-12.8h6.4z"></path>
</symbol>
<symbol id="icon-dataset" viewBox="0 0 32 32">
<path d="M29.867 27.733h-27.733v-25.6h27.733v25.6zM27.733 25.6v-4.267h-6.4v4.267h6.4zM19.2 21.333h-6.4v4.267h6.4v-4.267zM10.667 21.333h-6.4v4.267h6.4v-4.267zM27.733 19.2v-4.267h-6.4v4.267h6.4zM19.2 14.933h-6.4v4.267h6.4v-4.267zM10.667 14.933h-6.4v4.267h6.4v-4.267zM27.733 12.8v-4.267h-6.4v4.267h6.4zM19.2 8.533h-6.4v4.267h6.4v-4.267zM10.667 8.533h-6.4v4.267h6.4v-4.267z"></path>
</symbol>
<symbol id="icon-meta-icon-upload" viewBox="0 0 32 32">
<path stroke-linejoin="miter" stroke-linecap="square" stroke-miterlimit="4" stroke-width="1.6" d="M16 21.6v-19.2"></path>
<path stroke-linejoin="miter" stroke-linecap="square" stroke-miterlimit="4" stroke-width="1.6" d="M27.6 12.4l-11.6-11.621-11.6 11.621"></path>
<path stroke-linejoin="miter" stroke-linecap="butt" stroke-miterlimit="4" stroke-width="1.6" d="M30.4 20.8v6.4c0 1.767-1.433 3.2-3.2 3.2h-22.4c-1.767 0-3.2-1.433-3.2-3.2v-6.4"></path>
</symbol>
<symbol id="icon-meta-icon-select" viewBox="0 0 32 32">
<path stroke-linejoin="miter" stroke-linecap="butt" stroke-miterlimit="4" stroke-width="1.6" d="M30.4 20.8v6.4c0 1.767-1.433 3.2-3.2 3.2h-23.2c-1.767 0-3.2-1.433-3.2-3.2v-23.2c0-1.767 1.433-3.2 3.2-3.2h6.4"></path>
<path stroke-linejoin="miter" stroke-linecap="butt" stroke-miterlimit="4" stroke-width="1.6" d="M25.6 16h-10.4v-10.4"></path>
<path stroke-linejoin="miter" stroke-linecap="butt" stroke-miterlimit="4" stroke-width="1.6" d="M15.2 16l15.2-15.2"></path>
</symbol>
<symbol id="icon-meta-icon-draw" viewBox="0 0 32 32">
<path stroke-linejoin="miter" stroke-linecap="butt" stroke-miterlimit="4" stroke-width="1.6" d="M31.2 30.4h-27.2c-1.767 0-3.2-1.433-3.2-3.2v-0.8c0-1.767 1.433-3.2 3.2-3.2h6.4"></path>
<path stroke-linejoin="miter" stroke-linecap="butt" stroke-miterlimit="4" stroke-width="1.6" d="M30.4 5.6l-15.2 15.2h-4v-4l15.2-15.2z"></path>
</symbol>
<symbol id="icon-aoi-on" viewBox="0 0 32 32">
<path fill="none" stroke="#2c75b0" style="stroke: var(--color5, #2c75b0)" stroke-linejoin="round" stroke-linecap="round" stroke-miterlimit="4" stroke-width="1.28" d="M16 21.12v-5.12"></path>
<path fill="#2c75b0" style="fill: var(--color5, #2c75b0); stroke: var(--color6, #f4f8fb)" stroke="#f4f8fb" stroke-linejoin="round" stroke-linecap="round" stroke-miterlimit="4" stroke-width="1.28" d="M22.4 10.88c0 3.535-2.865 6.4-6.4 6.4s-6.4-2.865-6.4-6.4c0-3.535 2.865-6.4 6.4-6.4s6.4 2.865 6.4 6.4z"></path>
<path fill="none" stroke="#2c75b0" style="stroke: var(--color5, #2c75b0)" stroke-linejoin="round" stroke-linecap="round" stroke-miterlimit="4" stroke-width="1.28" d="M19.2 20.072c2.644 0.404 4.48 1.295 4.48 2.328 0 1.414-3.438 2.56-7.68 2.56s-7.68-1.146-7.68-2.56c0-1.033 1.836-1.92 4.48-2.328"></path>
</symbol>
<symbol id="icon-aoi-off" viewBox="0 0 32 32">
<path stroke-linejoin="round" stroke-linecap="round" stroke-miterlimit="4" stroke-width="1.28" d="M16 21.12v-5.12"></path>
<path stroke-linejoin="round" stroke-linecap="round" stroke-miterlimit="4" stroke-width="1.28" d="M21.12 10.88c0 2.828-2.292 5.12-5.12 5.12s-5.12-2.292-5.12-5.12c0-2.828 2.292-5.12 5.12-5.12s5.12 2.292 5.12 5.12z"></path>
<path stroke-linejoin="round" stroke-linecap="round" stroke-miterlimit="4" stroke-width="1.28" d="M19.2 20.072c2.644 0.404 4.48 1.295 4.48 2.328 0 1.414-3.438 2.56-7.68 2.56s-7.68-1.146-7.68-2.56c0-1.033 1.836-1.92 4.48-2.328"></path>
</symbol>
<symbol id="icon-learn-more" viewBox="0 0 32 32">
<path fill="none" stroke="#c32d7b" style="stroke: var(--color7, #c32d7b)" stroke-linejoin="miter" stroke-linecap="butt" stroke-miterlimit="4" stroke-width="1.6" d="M30.4 20.8v6.4c0 1.767-1.433 3.2-3.2 3.2h-23.2c-1.767 0-3.2-1.433-3.2-3.2v-23.2c0-1.767 1.433-3.2 3.2-3.2h6.4"></path>
<path fill="none" stroke="#c32d7b" style="stroke: var(--color7, #c32d7b)" stroke-linejoin="miter" stroke-linecap="butt" stroke-miterlimit="4" stroke-width="1.6" d="M20 0.8h10.4v10.4"></path>
<path fill="none" stroke="#c32d7b" style="stroke: var(--color7, #c32d7b)" stroke-linejoin="miter" stroke-linecap="butt" stroke-miterlimit="4" stroke-width="1.6" d="M30.4 0.8l-15.2 15.2"></path>
</symbol>
<symbol id="icon-download" viewBox="0 0 32 32">
<path fill="none" stroke="#c32d7b" style="stroke: var(--color7, #c32d7b)" stroke-linejoin="miter" stroke-linecap="square" stroke-miterlimit="4" stroke-width="1.6" d="M16 0.8v19.2"></path>
<path fill="none" stroke="#c32d7b" style="stroke: var(--color7, #c32d7b)" stroke-linejoin="miter" stroke-linecap="square" stroke-miterlimit="4" stroke-width="1.6" d="M27.6 10l-11.6 11.621-11.6-11.621"></path>
<path fill="none" stroke="#c32d7b" style="stroke: var(--color7, #c32d7b)" stroke-linejoin="miter" stroke-linecap="butt" stroke-miterlimit="4" stroke-width="1.6" d="M30.4 20.8v6.4c0 1.767-1.433 3.2-3.2 3.2h-22.4c-1.767 0-3.2-1.433-3.2-3.2v-6.4"></path>
</symbol>
<symbol id="icon-subscription" viewBox="0 0 32 32">
<path fill="none" stroke="#c32d7b" style="stroke: var(--color7, #c32d7b)" stroke-linejoin="miter" stroke-linecap="square" stroke-miterlimit="4" stroke-width="1.6" d="M4 4h24c1.767 0 3.2 1.433 3.2 3.2v17.6c0 1.767-1.433 3.2-3.2 3.2h-24c-1.767 0-3.2-1.433-3.2-3.2v-17.6c0-1.767 1.433-3.2 3.2-3.2z"></path>
<path fill="none" stroke="#c32d7b" style="stroke: var(--color7, #c32d7b)" stroke-linejoin="miter" stroke-linecap="square" stroke-miterlimit="4" stroke-width="1.6" d="M5.6 8.8l10.424 8.8 10.376-8.8"></path>
</symbol>
<symbol id="icon-rw-cm-logo" viewBox="0 0 193 32">
<path d="M46.16 25.987c-0.047 0-0.095 0.021-0.145 0.064-0.111 0.097-0.221 0.18-0.331 0.249s-0.228 0.127-0.355 0.173c-0.127 0.045-0.265 0.079-0.414 0.1s-0.317 0.032-0.504 0.032c-0.307 0-0.593-0.054-0.859-0.162s-0.496-0.265-0.69-0.471c-0.194-0.206-0.348-0.458-0.46-0.756s-0.169-0.638-0.169-1.019c0-0.369 0.056-0.703 0.169-1.002s0.27-0.551 0.471-0.759c0.202-0.207 0.442-0.367 0.721-0.479s0.586-0.168 0.922-0.168c0.187 0 0.352 0.014 0.495 0.040s0.269 0.060 0.377 0.1c0.108 0.040 0.202 0.082 0.28 0.128s0.148 0.088 0.206 0.128c0.058 0.040 0.109 0.073 0.151 0.1s0.083 0.041 0.12 0.041c0.050 0 0.088-0.009 0.114-0.028s0.050-0.042 0.070-0.070l0.276-0.379c-0.26-0.239-0.557-0.428-0.892-0.567s-0.733-0.209-1.194-0.209c-0.467 0-0.895 0.076-1.282 0.228s-0.719 0.366-0.997 0.641c-0.278 0.276-0.493 0.605-0.646 0.989s-0.23 0.806-0.23 1.266c0 0.46 0.072 0.882 0.215 1.266s0.345 0.712 0.605 0.987c0.26 0.274 0.574 0.487 0.942 0.639s0.779 0.228 1.231 0.228c0.517 0 0.959-0.081 1.326-0.243s0.678-0.388 0.936-0.678l-0.333-0.354c-0.038-0.037-0.080-0.055-0.127-0.055zM53.362 24.197c0 0.457-0.075 0.877-0.223 1.259s-0.359 0.711-0.631 0.987c-0.272 0.276-0.598 0.489-0.979 0.641s-0.803 0.228-1.264 0.228c-0.462 0-0.882-0.076-1.262-0.228s-0.706-0.366-0.977-0.641c-0.272-0.276-0.482-0.605-0.631-0.987s-0.223-0.802-0.223-1.259c0-0.457 0.075-0.877 0.223-1.259s0.359-0.712 0.631-0.989c0.272-0.277 0.597-0.492 0.977-0.646s0.8-0.23 1.262-0.23c0.462 0 0.883 0.077 1.264 0.23s0.708 0.369 0.979 0.646c0.272 0.277 0.482 0.607 0.631 0.989s0.223 0.802 0.223 1.259zM52.49 24.197c0-0.375-0.053-0.712-0.158-1.010s-0.254-0.55-0.447-0.756c-0.193-0.206-0.427-0.364-0.701-0.475s-0.581-0.166-0.92-0.166c-0.336 0-0.641 0.055-0.916 0.166s-0.509 0.269-0.703 0.475c-0.194 0.206-0.344 0.458-0.449 0.756s-0.158 0.635-0.158 1.010c0 0.375 0.053 0.711 0.158 1.008s0.255 0.548 0.449 0.754c0.194 0.206 0.429 0.364 0.703 0.473s0.58 0.164 0.916 0.164c0.339 0 0.646-0.055 0.92-0.164s0.508-0.267 0.701-0.473c0.193-0.206 0.342-0.457 0.447-0.754s0.158-0.633 0.158-1.008zM54.754 21.141h-0.438v6.108h0.745v-4.352c0-0.057-0.001-0.119-0.004-0.188s-0.007-0.138-0.013-0.209l3.633 4.599c0.044 0.054 0.088 0.092 0.134 0.115s0.102 0.034 0.169 0.034h0.429v-6.108h-0.745v4.326c0 0.065 0.001 0.133 0.004 0.202s0.009 0.141 0.018 0.215l-3.637-4.603c-0.047-0.057-0.088-0.094-0.125-0.113s-0.093-0.028-0.169-0.028zM65.011 21.141h-4.917v0.695h2.038v5.413h0.85v-5.413h2.029v-0.695zM69.567 21.141h-3.869v6.108h3.869v-0.673h-3.015v-2.084h2.441v-0.648h-2.441v-2.029h3.015v-0.673zM71.020 21.141h-0.438v6.108h0.745v-4.352c0-0.057-0.001-0.119-0.004-0.188s-0.007-0.138-0.013-0.209l3.633 4.599c0.044 0.054 0.088 0.092 0.134 0.115s0.102 0.034 0.169 0.034h0.429v-6.108h-0.745v4.326c0 0.065 0.001 0.133 0.004 0.202s0.009 0.141 0.018 0.215l-3.637-4.603c-0.047-0.057-0.088-0.094-0.125-0.113s-0.093-0.028-0.169-0.028zM81.277 21.141h-4.917v0.695h2.038v5.413h0.85v-5.413h2.029v-0.695zM86.536 25.041l-2.169-3.759c-0.038-0.065-0.077-0.105-0.118-0.119s-0.099-0.021-0.175-0.021h-0.627v6.108h0.745v-4.488c0-0.060-0.002-0.125-0.007-0.196s-0.011-0.143-0.020-0.217l2.2 3.832c0.073 0.128 0.175 0.192 0.307 0.192h0.123c0.131 0 0.234-0.064 0.307-0.192l2.152-3.819c-0.006 0.071-0.010 0.141-0.013 0.209s-0.004 0.132-0.004 0.192v4.488h0.745v-6.108h-0.627c-0.076 0-0.134 0.007-0.175 0.021s-0.080 0.054-0.118 0.119l-2.125 3.755c-0.041 0.074-0.077 0.147-0.11 0.22s-0.063 0.148-0.092 0.228c-0.029-0.077-0.059-0.153-0.090-0.228s-0.066-0.147-0.107-0.215zM96.469 27.249h-0.657c-0.076 0-0.137-0.018-0.184-0.055s-0.082-0.084-0.105-0.141l-0.587-1.475h-2.818l-0.587 1.475c-0.020 0.051-0.055 0.097-0.105 0.136s-0.111 0.060-0.184 0.060h-0.657l2.511-6.108h0.863l2.511 6.108zM92.354 24.981h2.344l-0.986-2.485c-0.064-0.153-0.127-0.345-0.188-0.575-0.032 0.116-0.064 0.224-0.094 0.322s-0.061 0.184-0.090 0.258l-0.986 2.48zM97.492 21.141h-0.438v6.108h0.745v-4.352c0-0.057-0.001-0.119-0.004-0.188s-0.007-0.138-0.013-0.209l3.633 4.599c0.044 0.054 0.088 0.092 0.134 0.115s0.102 0.034 0.169 0.034h0.429v-6.108h-0.745v4.326c0 0.065 0.001 0.133 0.004 0.202s0.009 0.141 0.018 0.215l-3.637-4.603c-0.047-0.057-0.088-0.094-0.125-0.113s-0.093-0.028-0.169-0.028zM108.639 27.249h-0.657c-0.076 0-0.137-0.018-0.184-0.055s-0.082-0.084-0.105-0.141l-0.587-1.475h-2.818l-0.587 1.475c-0.020 0.051-0.055 0.097-0.105 0.136s-0.111 0.060-0.184 0.060h-0.657l2.511-6.108h0.863l2.511 6.108zM104.524 24.981h2.344l-0.986-2.485c-0.064-0.153-0.127-0.345-0.188-0.575-0.032 0.116-0.064 0.224-0.094 0.322s-0.061 0.184-0.090 0.258l-0.986 2.48zM111.84 26.648c-0.339 0-0.649-0.055-0.929-0.166s-0.523-0.271-0.727-0.482c-0.204-0.21-0.363-0.467-0.475-0.769s-0.169-0.647-0.169-1.034c0-0.369 0.054-0.703 0.162-0.999s0.263-0.55 0.465-0.759c0.202-0.209 0.445-0.369 0.732-0.482s0.606-0.168 0.96-0.168c0.242 0 0.452 0.018 0.629 0.055s0.33 0.082 0.46 0.134c0.13 0.053 0.24 0.107 0.331 0.164s0.172 0.105 0.245 0.145c0.055 0.031 0.107 0.047 0.153 0.047 0.079 0 0.143-0.038 0.193-0.115l0.241-0.375c-0.134-0.119-0.279-0.227-0.434-0.322s-0.324-0.176-0.506-0.243c-0.183-0.067-0.38-0.118-0.594-0.153s-0.444-0.053-0.692-0.053c-0.491 0-0.934 0.075-1.33 0.226s-0.733 0.363-1.012 0.637c-0.279 0.274-0.494 0.603-0.644 0.987s-0.226 0.808-0.226 1.274c0 0.46 0.077 0.882 0.23 1.266s0.367 0.712 0.642 0.987c0.275 0.274 0.602 0.487 0.982 0.639s0.798 0.228 1.253 0.228c0.26 0 0.501-0.014 0.723-0.041s0.43-0.068 0.624-0.124c0.194-0.055 0.377-0.124 0.548-0.207s0.335-0.179 0.493-0.29v-2.344h-1.928v0.469c0 0.045 0.017 0.084 0.050 0.115s0.078 0.047 0.134 0.047h0.973v1.347c-0.111 0.057-0.222 0.107-0.333 0.151s-0.229 0.082-0.355 0.113c-0.126 0.031-0.259 0.055-0.401 0.070s-0.297 0.023-0.467 0.023zM119.135 21.141h-3.869v6.108h3.869v-0.673h-3.015v-2.084h2.441v-0.648h-2.441v-2.029h3.015v-0.673zM121.083 24.7h0.644c0.117 0 0.204 0.015 0.263 0.045s0.112 0.079 0.162 0.147l1.63 2.182c0.073 0.116 0.187 0.175 0.342 0.175h0.754l-1.832-2.425c-0.082-0.114-0.175-0.2-0.28-0.26 0.242-0.054 0.459-0.134 0.651-0.239s0.353-0.232 0.486-0.381c0.133-0.149 0.234-0.318 0.305-0.505s0.105-0.389 0.105-0.605c0-0.259-0.045-0.492-0.136-0.701s-0.23-0.387-0.418-0.535c-0.188-0.148-0.427-0.261-0.716-0.339s-0.632-0.117-1.030-0.117h-1.775v6.108h0.846v-2.549zM121.083 24.099v-2.306h0.929c0.488 0 0.855 0.092 1.102 0.277s0.37 0.459 0.37 0.823c0 0.179-0.032 0.342-0.096 0.49s-0.16 0.275-0.287 0.381c-0.127 0.107-0.285 0.189-0.473 0.247s-0.407 0.087-0.655 0.087h-0.89zM50.060 9.551c-0.46 0.624-1.131 1.036-2.016 1.203l3.183 5.349h-3.307l-2.617-5.157h-1.185v5.157h-2.753v-12.693h4.663c0.637 0 1.241 0.079 1.813 0.204s1.072 0.35 1.503 0.641c0.43 0.292 0.772 0.684 1.026 1.177 0.253 0.493 0.38 1.109 0.38 1.846 0 0.892-0.23 1.65-0.69 2.274zM55.131 10.946v2.38h5.899v2.777h-8.652v-12.693h8.259v2.777h-5.506v1.983h5.506v2.777h-5.506zM69.43 9.417c0.43 0.261 0.787 0.612 1.070 1.052s0.424 1.029 0.424 1.766c0 0.701-0.13 1.313-0.389 1.837s-0.61 0.958-1.052 1.302-0.955 0.6-1.538 0.766c-0.583 0.167-1.2 0.25-1.848 0.25-0.814 0-1.568-0.125-2.263-0.374s-1.344-0.654-1.945-1.213l1.962-2.175c0.283 0.38 0.639 0.675 1.070 0.882 0.43 0.209 0.875 0.313 1.335 0.313 0.224 0 0.451-0.027 0.681-0.081s0.436-0.134 0.619-0.241 0.33-0.243 0.442-0.41c0.112-0.167 0.168-0.363 0.168-0.589 0-0.38-0.145-0.68-0.433-0.9s-0.651-0.407-1.087-0.562-0.908-0.309-1.414-0.464c-0.507-0.154-0.979-0.363-1.415-0.624s-0.799-0.607-1.087-1.034c-0.289-0.428-0.433-0.993-0.433-1.694 0-0.678 0.133-1.272 0.398-1.783s0.619-0.939 1.061-1.284c0.442-0.344 0.952-0.603 1.529-0.775s1.173-0.259 1.786-0.259c0.707 0 1.391 0.101 2.051 0.303s1.256 0.541 1.786 1.016l-1.892 2.086c-0.224-0.285-0.528-0.496-0.911-0.633s-0.745-0.205-1.087-0.205c-0.201 0-0.407 0.024-0.619 0.071s-0.413 0.122-0.601 0.223c-0.188 0.101-0.342 0.235-0.46 0.401s-0.177 0.369-0.177 0.606c0 0.381 0.141 0.672 0.424 0.874s0.639 0.374 1.070 0.517c0.43 0.143 0.893 0.285 1.388 0.428s0.958 0.345 1.388 0.607zM83.425 4.914c0.602 0.577 1.070 1.275 1.406 2.096s0.504 1.736 0.504 2.746c0 1.011-0.168 1.926-0.504 2.746s-0.805 1.519-1.406 2.096c-0.601 0.577-1.314 1.019-2.139 1.328s-1.727 0.464-2.705 0.464c-0.978 0-1.88-0.155-2.705-0.464s-1.538-0.752-2.139-1.328-1.070-1.275-1.406-2.096c-0.335-0.82-0.504-1.735-0.504-2.746s0.168-1.926 0.504-2.746c0.336-0.821 0.805-1.519 1.406-2.096s1.314-1.019 2.139-1.329c0.825-0.309 1.727-0.464 2.705-0.464s1.88 0.155 2.705 0.464c0.825 0.309 1.538 0.752 2.139 1.329zM94.459 11.094v-7.684h2.753v7.791c0 0.749-0.076 1.439-0.299 2.069s-0.52 1.177-0.962 1.641c-0.442 0.464-0.996 0.826-1.656 1.088s-1.425 0.392-2.285 0.392c-0.872 0-1.647-0.131-2.307-0.392s-1.228-0.624-1.67-1.088-0.81-1.011-1.034-1.641c-0.224-0.63-0.405-1.32-0.405-2.069v-7.791h2.753v7.684c0 0.392 0.133 0.755 0.257 1.088s0.369 0.621 0.593 0.865c0.224 0.244 0.491 0.434 0.803 0.571s0.649 0.205 1.015 0.205c0.365 0 0.697-0.068 1.003-0.205s0.563-0.327 0.787-0.571c0.224-0.244 0.38-0.532 0.504-0.865s0.151-0.696 0.151-1.088zM108.233 9.551c-0.46 0.624-1.131 1.036-2.016 1.203l3.183 5.349h-3.307l-2.617-5.157h-1.545v5.157h-2.753v-12.693h5.022c0.637 0 1.241 0.079 1.813 0.204s1.073 0.35 1.503 0.641c0.43 0.292 0.772 0.684 1.026 1.177s0.38 1.109 0.38 1.846c0 0.892-0.23 1.65-0.689 2.274zM117.569 13.465c0.436-0.238 0.796-0.57 1.079-0.998l2.299 1.73c-0.531 0.749-1.203 1.302-2.016 1.659s-1.651 0.535-2.511 0.535c-0.978 0-1.88-0.155-2.705-0.464s-1.538-0.752-2.139-1.328-1.070-1.275-1.406-2.096c-0.335-0.82-0.504-1.735-0.504-2.746s0.168-1.926 0.504-2.746c0.336-0.821 0.805-1.519 1.406-2.096s1.314-1.019 2.139-1.329c0.825-0.309 1.727-0.464 2.705-0.464 0.354 0 0.722 0.033 1.105 0.098s0.76 0.17 1.131 0.312c0.372 0.142 0.728 0.333 1.070 0.571s0.648 0.529 0.919 0.874l-2.122 1.748c-0.271-0.333-0.604-0.588-0.999-0.767s-0.852-0.267-1.371-0.267-0.999 0.101-1.441 0.303c-0.442 0.203-0.825 0.485-1.149 0.847s-0.578 0.794-0.76 1.293c-0.183 0.499-0.274 1.040-0.274 1.623 0 0.595 0.091 1.139 0.274 1.632s0.433 0.921 0.752 1.284c0.318 0.363 0.692 0.645 1.122 0.847s0.893 0.303 1.388 0.303c0.566 0 1.067-0.119 1.503-0.357zM124.742 10.946v2.38h6.293v2.777h-9.046v-12.693h8.652v2.777h-5.899v1.983h5.506v2.777h-5.506zM147.468 3.41h1.203l-3.643 12.693h-1.432l-3.165-11.107h-0.035l-3.165 11.107h-1.432l-3.642-12.693h1.202l3.112 11.107h0.035l3.165-11.107h1.485l3.165 11.107h0.035l3.112-11.107zM153.833 3.41h1.202l5.269 12.693h-1.308l-1.362-3.57h-6.631l-1.414 3.57h-1.22l5.464-12.693zM160.138 4.599v-1.19h9.832v1.19h-4.326v11.503h-1.18v-11.503h-4.326zM179.878 14.241c0.295-0.244 0.555-0.537 0.778-0.883l0.954 0.731c-0.601 0.821-1.297 1.409-2.086 1.766s-1.645 0.535-2.564 0.535c-0.954 0-1.83-0.164-2.626-0.49s-1.476-0.785-2.042-1.373c-0.566-0.589-1.008-1.29-1.326-2.105s-0.477-1.703-0.477-2.666c0-0.963 0.159-1.849 0.477-2.657s0.761-1.507 1.326-2.096c0.566-0.588 1.247-1.049 2.042-1.382s1.671-0.499 2.626-0.499c0.849 0 1.642 0.152 2.378 0.455s1.382 0.812 1.936 1.525l-0.955 0.803c-0.389-0.594-0.887-1.028-1.494-1.302-0.608-0.273-1.229-0.41-1.866-0.41-0.813 0-1.547 0.143-2.201 0.428s-1.211 0.678-1.671 1.177c-0.46 0.499-0.814 1.088-1.061 1.766s-0.371 1.409-0.371 2.194 0.124 1.516 0.371 2.194c0.248 0.678 0.602 1.266 1.061 1.766s1.017 0.892 1.671 1.177c0.654 0.286 1.388 0.428 2.201 0.428 0.319 0 0.649-0.038 0.99-0.116s0.675-0.196 0.999-0.357 0.634-0.363 0.928-0.607zM191.601 3.41h1.18v12.693h-1.18v-5.95h-7.079v5.95h-1.18v-12.693h1.18v5.553h7.079v-5.553zM10.298 5.647l7.271 7.27-10.299 10.299-7.27-7.27 10.298-10.299zM19.054 11.294l-7.133-7.133 4.161-4.161 7.133 7.133-4.161 4.161zM21.701 26.353l-7.27-7.27 10.299-10.299 7.27 7.27-10.299 10.299zM12.945 20.706l7.133 7.133-4.161 4.161-7.133-7.133 4.161-4.161zM47.665 8.062c0.147-0.19 0.221-0.458 0.221-0.803 0-0.321-0.065-0.577-0.194-0.767s-0.295-0.336-0.495-0.438c-0.2-0.101-0.43-0.171-0.69-0.207s-0.512-0.057-0.76-0.057h-1.627v2.777h1.45c0.247 0 0.509 0.042 0.787 0.024s0.527-0.020 0.752-0.109c0.223-0.090 0.409-0.229 0.557-0.419zM82.197 11.388c0.182-0.493 0.274-1.037 0.274-1.632 0-0.582-0.092-1.123-0.274-1.623s-0.445-0.93-0.787-1.293c-0.342-0.363-0.752-0.645-1.229-0.847s-1.011-0.303-1.6-0.303c-0.59 0-1.123 0.101-1.6 0.303s-0.887 0.485-1.229 0.847c-0.342 0.363-0.604 0.794-0.787 1.293s-0.274 1.040-0.274 1.623c0 0.595 0.091 1.139 0.274 1.632s0.445 0.921 0.787 1.284c0.342 0.363 0.752 0.645 1.229 0.847s1.011 0.303 1.6 0.303c0.589 0 1.122-0.101 1.6-0.303s0.887-0.485 1.229-0.847c0.342-0.363 0.604-0.791 0.787-1.284zM105.837 8.062c0.147-0.19 0.221-0.458 0.221-0.803 0-0.321-0.065-0.577-0.194-0.767s-0.295-0.336-0.495-0.438c-0.2-0.101-0.43-0.171-0.69-0.207s-0.512-0.057-0.76-0.057h-1.987v2.777h1.81c0.247 0 0.51 0.042 0.787 0.024s0.527-0.020 0.752-0.109c0.223-0.090 0.409-0.229 0.557-0.419zM151.464 11.739h5.747l-2.829-6.919-2.917 6.919z"></path>
</symbol>
<symbol id="icon-email" viewBox="0 0 43 32">
<path fill="#c32d7b" style="fill: var(--color7, #c32d7b)" d="M0.748 0h41.17l-20.585 16.468-20.585-16.468zM42.667 4.865v23.728l-8.24-10.259-3.326 2.672 8.83 10.994h-37.201l8.781-11.003-3.335-2.661-8.176 10.245v-23.715l21.333 17.067 21.333-17.067z"></path>
</symbol>
</defs>
</svg>
