<svg aria-hidden="true" style="position: absolute; width: 0; height: 0; overflow: hidden;" version="1.1" xmlns="http://www.w3.org/2000/svg" xmlns:xlink="http://www.w3.org/1999/xlink">
<defs>
<symbol id="icon-rw-cm-logo" viewBox="0 0 193 32">
<title>rw-cm-logo</title>
<path d="M46.16 25.987c-0.047 0-0.095 0.021-0.145 0.064-0.111 0.097-0.221 0.18-0.331 0.249s-0.228 0.127-0.355 0.173c-0.127 0.045-0.265 0.079-0.414 0.1s-0.317 0.032-0.504 0.032c-0.307 0-0.593-0.054-0.859-0.162s-0.496-0.265-0.69-0.471c-0.194-0.206-0.348-0.458-0.46-0.756s-0.169-0.638-0.169-1.019c0-0.369 0.056-0.703 0.169-1.002s0.27-0.551 0.471-0.759c0.202-0.207 0.442-0.367 0.721-0.479s0.586-0.168 0.922-0.168c0.187 0 0.352 0.014 0.495 0.040s0.269 0.060 0.377 0.1c0.108 0.040 0.202 0.082 0.28 0.128s0.148 0.088 0.206 0.128c0.058 0.040 0.109 0.073 0.151 0.1s0.083 0.041 0.12 0.041c0.050 0 0.088-0.009 0.114-0.028s0.050-0.042 0.070-0.070l0.276-0.379c-0.26-0.239-0.557-0.428-0.892-0.567s-0.733-0.209-1.194-0.209c-0.467 0-0.895 0.076-1.282 0.228s-0.719 0.366-0.997 0.641c-0.278 0.276-0.493 0.605-0.646 0.989s-0.23 0.806-0.23 1.266c0 0.46 0.072 0.882 0.215 1.266s0.345 0.712 0.605 0.987c0.26 0.274 0.574 0.487 0.942 0.639s0.779 0.228 1.231 0.228c0.517 0 0.959-0.081 1.326-0.243s0.678-0.388 0.936-0.678l-0.333-0.354c-0.038-0.037-0.080-0.055-0.127-0.055zM53.362 24.197c0 0.457-0.075 0.877-0.223 1.259s-0.359 0.711-0.631 0.987c-0.272 0.276-0.598 0.489-0.979 0.641s-0.803 0.228-1.264 0.228c-0.462 0-0.882-0.076-1.262-0.228s-0.706-0.366-0.977-0.641c-0.272-0.276-0.482-0.605-0.631-0.987s-0.223-0.802-0.223-1.259c0-0.457 0.075-0.877 0.223-1.259s0.359-0.712 0.631-0.989c0.272-0.277 0.597-0.492 0.977-0.646s0.8-0.23 1.262-0.23c0.462 0 0.883 0.077 1.264 0.23s0.708 0.369 0.979 0.646c0.272 0.277 0.482 0.607 0.631 0.989s0.223 0.802 0.223 1.259zM52.49 24.197c0-0.375-0.053-0.712-0.158-1.010s-0.254-0.55-0.447-0.756c-0.193-0.206-0.427-0.364-0.701-0.475s-0.581-0.166-0.92-0.166c-0.336 0-0.641 0.055-0.916 0.166s-0.509 0.269-0.703 0.475c-0.194 0.206-0.344 0.458-0.449 0.756s-0.158 0.635-0.158 1.010c0 0.375 0.053 0.711 0.158 1.008s0.255 0.548 0.449 0.754c0.194 0.206 0.429 0.364 0.703 0.473s0.58 0.164 0.916 0.164c0.339 0 0.646-0.055 0.92-0.164s0.508-0.267 0.701-0.473c0.193-0.206 0.342-0.457 0.447-0.754s0.158-0.633 0.158-1.008zM54.754 21.141h-0.438v6.108h0.745v-4.352c0-0.057-0.001-0.119-0.004-0.188s-0.007-0.138-0.013-0.209l3.633 4.599c0.044 0.054 0.088 0.092 0.134 0.115s0.102 0.034 0.169 0.034h0.429v-6.108h-0.745v4.326c0 0.065 0.001 0.133 0.004 0.202s0.009 0.141 0.018 0.215l-3.637-4.603c-0.047-0.057-0.088-0.094-0.125-0.113s-0.093-0.028-0.169-0.028zM65.011 21.141h-4.917v0.695h2.038v5.413h0.85v-5.413h2.029v-0.695zM69.567 21.141h-3.869v6.108h3.869v-0.673h-3.015v-2.084h2.441v-0.648h-2.441v-2.029h3.015v-0.673zM71.020 21.141h-0.438v6.108h0.745v-4.352c0-0.057-0.001-0.119-0.004-0.188s-0.007-0.138-0.013-0.209l3.633 4.599c0.044 0.054 0.088 0.092 0.134 0.115s0.102 0.034 0.169 0.034h0.429v-6.108h-0.745v4.326c0 0.065 0.001 0.133 0.004 0.202s0.009 0.141 0.018 0.215l-3.637-4.603c-0.047-0.057-0.088-0.094-0.125-0.113s-0.093-0.028-0.169-0.028zM81.277 21.141h-4.917v0.695h2.038v5.413h0.85v-5.413h2.029v-0.695zM86.536 25.041l-2.169-3.759c-0.038-0.065-0.077-0.105-0.118-0.119s-0.099-0.021-0.175-0.021h-0.627v6.108h0.745v-4.488c0-0.060-0.002-0.125-0.007-0.196s-0.011-0.143-0.020-0.217l2.2 3.832c0.073 0.128 0.175 0.192 0.307 0.192h0.123c0.131 0 0.234-0.064 0.307-0.192l2.152-3.819c-0.006 0.071-0.010 0.141-0.013 0.209s-0.004 0.132-0.004 0.192v4.488h0.745v-6.108h-0.627c-0.076 0-0.134 0.007-0.175 0.021s-0.080 0.054-0.118 0.119l-2.125 3.755c-0.041 0.074-0.077 0.147-0.11 0.22s-0.063 0.148-0.092 0.228c-0.029-0.077-0.059-0.153-0.090-0.228s-0.066-0.147-0.107-0.215zM96.469 27.249h-0.657c-0.076 0-0.137-0.018-0.184-0.055s-0.082-0.084-0.105-0.141l-0.587-1.475h-2.818l-0.587 1.475c-0.020 0.051-0.055 0.097-0.105 0.136s-0.111 0.060-0.184 0.060h-0.657l2.511-6.108h0.863l2.511 6.108zM92.354 24.981h2.344l-0.986-2.485c-0.064-0.153-0.127-0.345-0.188-0.575-0.032 0.116-0.064 0.224-0.094 0.322s-0.061 0.184-0.090 0.258l-0.986 2.48zM97.492 21.141h-0.438v6.108h0.745v-4.352c0-0.057-0.001-0.119-0.004-0.188s-0.007-0.138-0.013-0.209l3.633 4.599c0.044 0.054 0.088 0.092 0.134 0.115s0.102 0.034 0.169 0.034h0.429v-6.108h-0.745v4.326c0 0.065 0.001 0.133 0.004 0.202s0.009 0.141 0.018 0.215l-3.637-4.603c-0.047-0.057-0.088-0.094-0.125-0.113s-0.093-0.028-0.169-0.028zM108.639 27.249h-0.657c-0.076 0-0.137-0.018-0.184-0.055s-0.082-0.084-0.105-0.141l-0.587-1.475h-2.818l-0.587 1.475c-0.020 0.051-0.055 0.097-0.105 0.136s-0.111 0.060-0.184 0.060h-0.657l2.511-6.108h0.863l2.511 6.108zM104.524 24.981h2.344l-0.986-2.485c-0.064-0.153-0.127-0.345-0.188-0.575-0.032 0.116-0.064 0.224-0.094 0.322s-0.061 0.184-0.090 0.258l-0.986 2.48zM111.84 26.648c-0.339 0-0.649-0.055-0.929-0.166s-0.523-0.271-0.727-0.482c-0.204-0.21-0.363-0.467-0.475-0.769s-0.169-0.647-0.169-1.034c0-0.369 0.054-0.703 0.162-0.999s0.263-0.55 0.465-0.759c0.202-0.209 0.445-0.369 0.732-0.482s0.606-0.168 0.96-0.168c0.242 0 0.452 0.018 0.629 0.055s0.33 0.082 0.46 0.134c0.13 0.053 0.24 0.107 0.331 0.164s0.172 0.105 0.245 0.145c0.055 0.031 0.107 0.047 0.153 0.047 0.079 0 0.143-0.038 0.193-0.115l0.241-0.375c-0.134-0.119-0.279-0.227-0.434-0.322s-0.324-0.176-0.506-0.243c-0.183-0.067-0.38-0.118-0.594-0.153s-0.444-0.053-0.692-0.053c-0.491 0-0.934 0.075-1.33 0.226s-0.733 0.363-1.012 0.637c-0.279 0.274-0.494 0.603-0.644 0.987s-0.226 0.808-0.226 1.274c0 0.46 0.077 0.882 0.23 1.266s0.367 0.712 0.642 0.987c0.275 0.274 0.602 0.487 0.982 0.639s0.798 0.228 1.253 0.228c0.26 0 0.501-0.014 0.723-0.041s0.43-0.068 0.624-0.124c0.194-0.055 0.377-0.124 0.548-0.207s0.335-0.179 0.493-0.29v-2.344h-1.928v0.469c0 0.045 0.017 0.084 0.050 0.115s0.078 0.047 0.134 0.047h0.973v1.347c-0.111 0.057-0.222 0.107-0.333 0.151s-0.229 0.082-0.355 0.113c-0.126 0.031-0.259 0.055-0.401 0.070s-0.297 0.023-0.467 0.023zM119.135 21.141h-3.869v6.108h3.869v-0.673h-3.015v-2.084h2.441v-0.648h-2.441v-2.029h3.015v-0.673zM121.083 24.7h0.644c0.117 0 0.204 0.015 0.263 0.045s0.112 0.079 0.162 0.147l1.63 2.182c0.073 0.116 0.187 0.175 0.342 0.175h0.754l-1.832-2.425c-0.082-0.114-0.175-0.2-0.28-0.26 0.242-0.054 0.459-0.134 0.651-0.239s0.353-0.232 0.486-0.381c0.133-0.149 0.234-0.318 0.305-0.505s0.105-0.389 0.105-0.605c0-0.259-0.045-0.492-0.136-0.701s-0.23-0.387-0.418-0.535c-0.188-0.148-0.427-0.261-0.716-0.339s-0.632-0.117-1.030-0.117h-1.775v6.108h0.846v-2.549zM121.083 24.099v-2.306h0.929c0.488 0 0.855 0.092 1.102 0.277s0.37 0.459 0.37 0.823c0 0.179-0.032 0.342-0.096 0.49s-0.16 0.275-0.287 0.381c-0.127 0.107-0.285 0.189-0.473 0.247s-0.407 0.087-0.655 0.087h-0.89zM50.060 9.551c-0.46 0.624-1.131 1.036-2.016 1.203l3.183 5.349h-3.307l-2.617-5.157h-1.185v5.157h-2.753v-12.693h4.663c0.637 0 1.241 0.079 1.813 0.204s1.072 0.35 1.503 0.641c0.43 0.292 0.772 0.684 1.026 1.177 0.253 0.493 0.38 1.109 0.38 1.846 0 0.892-0.23 1.65-0.69 2.274zM55.131 10.946v2.38h5.899v2.777h-8.652v-12.693h8.259v2.777h-5.506v1.983h5.506v2.777h-5.506zM69.43 9.417c0.43 0.261 0.787 0.612 1.070 1.052s0.424 1.029 0.424 1.766c0 0.701-0.13 1.313-0.389 1.837s-0.61 0.958-1.052 1.302-0.955 0.6-1.538 0.766c-0.583 0.167-1.2 0.25-1.848 0.25-0.814 0-1.568-0.125-2.263-0.374s-1.344-0.654-1.945-1.213l1.962-2.175c0.283 0.38 0.639 0.675 1.070 0.882 0.43 0.209 0.875 0.313 1.335 0.313 0.224 0 0.451-0.027 0.681-0.081s0.436-0.134 0.619-0.241 0.33-0.243 0.442-0.41c0.112-0.167 0.168-0.363 0.168-0.589 0-0.38-0.145-0.68-0.433-0.9s-0.651-0.407-1.087-0.562-0.908-0.309-1.414-0.464c-0.507-0.154-0.979-0.363-1.415-0.624s-0.799-0.607-1.087-1.034c-0.289-0.428-0.433-0.993-0.433-1.694 0-0.678 0.133-1.272 0.398-1.783s0.619-0.939 1.061-1.284c0.442-0.344 0.952-0.603 1.529-0.775s1.173-0.259 1.786-0.259c0.707 0 1.391 0.101 2.051 0.303s1.256 0.541 1.786 1.016l-1.892 2.086c-0.224-0.285-0.528-0.496-0.911-0.633s-0.745-0.205-1.087-0.205c-0.201 0-0.407 0.024-0.619 0.071s-0.413 0.122-0.601 0.223c-0.188 0.101-0.342 0.235-0.46 0.401s-0.177 0.369-0.177 0.606c0 0.381 0.141 0.672 0.424 0.874s0.639 0.374 1.070 0.517c0.43 0.143 0.893 0.285 1.388 0.428s0.958 0.345 1.388 0.607zM83.425 4.914c0.602 0.577 1.070 1.275 1.406 2.096s0.504 1.736 0.504 2.746c0 1.011-0.168 1.926-0.504 2.746s-0.805 1.519-1.406 2.096c-0.601 0.577-1.314 1.019-2.139 1.328s-1.727 0.464-2.705 0.464c-0.978 0-1.88-0.155-2.705-0.464s-1.538-0.752-2.139-1.328-1.070-1.275-1.406-2.096c-0.335-0.82-0.504-1.735-0.504-2.746s0.168-1.926 0.504-2.746c0.336-0.821 0.805-1.519 1.406-2.096s1.314-1.019 2.139-1.329c0.825-0.309 1.727-0.464 2.705-0.464s1.88 0.155 2.705 0.464c0.825 0.309 1.538 0.752 2.139 1.329zM94.459 11.094v-7.684h2.753v7.791c0 0.749-0.076 1.439-0.299 2.069s-0.52 1.177-0.962 1.641c-0.442 0.464-0.996 0.826-1.656 1.088s-1.425 0.392-2.285 0.392c-0.872 0-1.647-0.131-2.307-0.392s-1.228-0.624-1.67-1.088-0.81-1.011-1.034-1.641c-0.224-0.63-0.405-1.32-0.405-2.069v-7.791h2.753v7.684c0 0.392 0.133 0.755 0.257 1.088s0.369 0.621 0.593 0.865c0.224 0.244 0.491 0.434 0.803 0.571s0.649 0.205 1.015 0.205c0.365 0 0.697-0.068 1.003-0.205s0.563-0.327 0.787-0.571c0.224-0.244 0.38-0.532 0.504-0.865s0.151-0.696 0.151-1.088zM108.233 9.551c-0.46 0.624-1.131 1.036-2.016 1.203l3.183 5.349h-3.307l-2.617-5.157h-1.545v5.157h-2.753v-12.693h5.022c0.637 0 1.241 0.079 1.813 0.204s1.073 0.35 1.503 0.641c0.43 0.292 0.772 0.684 1.026 1.177s0.38 1.109 0.38 1.846c0 0.892-0.23 1.65-0.689 2.274zM117.569 13.465c0.436-0.238 0.796-0.57 1.079-0.998l2.299 1.73c-0.531 0.749-1.203 1.302-2.016 1.659s-1.651 0.535-2.511 0.535c-0.978 0-1.88-0.155-2.705-0.464s-1.538-0.752-2.139-1.328-1.070-1.275-1.406-2.096c-0.335-0.82-0.504-1.735-0.504-2.746s0.168-1.926 0.504-2.746c0.336-0.821 0.805-1.519 1.406-2.096s1.314-1.019 2.139-1.329c0.825-0.309 1.727-0.464 2.705-0.464 0.354 0 0.722 0.033 1.105 0.098s0.76 0.17 1.131 0.312c0.372 0.142 0.728 0.333 1.070 0.571s0.648 0.529 0.919 0.874l-2.122 1.748c-0.271-0.333-0.604-0.588-0.999-0.767s-0.852-0.267-1.371-0.267-0.999 0.101-1.441 0.303c-0.442 0.203-0.825 0.485-1.149 0.847s-0.578 0.794-0.76 1.293c-0.183 0.499-0.274 1.040-0.274 1.623 0 0.595 0.091 1.139 0.274 1.632s0.433 0.921 0.752 1.284c0.318 0.363 0.692 0.645 1.122 0.847s0.893 0.303 1.388 0.303c0.566 0 1.067-0.119 1.503-0.357zM124.742 10.946v2.38h6.293v2.777h-9.046v-12.693h8.652v2.777h-5.899v1.983h5.506v2.777h-5.506zM147.468 3.41h1.203l-3.643 12.693h-1.432l-3.165-11.107h-0.035l-3.165 11.107h-1.432l-3.642-12.693h1.202l3.112 11.107h0.035l3.165-11.107h1.485l3.165 11.107h0.035l3.112-11.107zM153.833 3.41h1.202l5.269 12.693h-1.308l-1.362-3.57h-6.631l-1.414 3.57h-1.22l5.464-12.693zM160.138 4.599v-1.19h9.832v1.19h-4.326v11.503h-1.18v-11.503h-4.326zM179.878 14.241c0.295-0.244 0.555-0.537 0.778-0.883l0.954 0.731c-0.601 0.821-1.297 1.409-2.086 1.766s-1.645 0.535-2.564 0.535c-0.954 0-1.83-0.164-2.626-0.49s-1.476-0.785-2.042-1.373c-0.566-0.589-1.008-1.29-1.326-2.105s-0.477-1.703-0.477-2.666c0-0.963 0.159-1.849 0.477-2.657s0.761-1.507 1.326-2.096c0.566-0.588 1.247-1.049 2.042-1.382s1.671-0.499 2.626-0.499c0.849 0 1.642 0.152 2.378 0.455s1.382 0.812 1.936 1.525l-0.955 0.803c-0.389-0.594-0.887-1.028-1.494-1.302-0.608-0.273-1.229-0.41-1.866-0.41-0.813 0-1.547 0.143-2.201 0.428s-1.211 0.678-1.671 1.177c-0.46 0.499-0.814 1.088-1.061 1.766s-0.371 1.409-0.371 2.194 0.124 1.516 0.371 2.194c0.248 0.678 0.602 1.266 1.061 1.766s1.017 0.892 1.671 1.177c0.654 0.286 1.388 0.428 2.201 0.428 0.319 0 0.649-0.038 0.99-0.116s0.675-0.196 0.999-0.357 0.634-0.363 0.928-0.607zM191.601 3.41h1.18v12.693h-1.18v-5.95h-7.079v5.95h-1.18v-12.693h1.18v5.553h7.079v-5.553zM10.298 5.647l7.271 7.27-10.299 10.299-7.27-7.27 10.298-10.299zM19.054 11.294l-7.133-7.133 4.161-4.161 7.133 7.133-4.161 4.161zM21.701 26.353l-7.27-7.27 10.299-10.299 7.27 7.27-10.299 10.299zM12.945 20.706l7.133 7.133-4.161 4.161-7.133-7.133 4.161-4.161zM47.665 8.062c0.147-0.19 0.221-0.458 0.221-0.803 0-0.321-0.065-0.577-0.194-0.767s-0.295-0.336-0.495-0.438c-0.2-0.101-0.43-0.171-0.69-0.207s-0.512-0.057-0.76-0.057h-1.627v2.777h1.45c0.247 0 0.509 0.042 0.787 0.024s0.527-0.020 0.752-0.109c0.223-0.090 0.409-0.229 0.557-0.419zM82.197 11.388c0.182-0.493 0.274-1.037 0.274-1.632 0-0.582-0.092-1.123-0.274-1.623s-0.445-0.93-0.787-1.293c-0.342-0.363-0.752-0.645-1.229-0.847s-1.011-0.303-1.6-0.303c-0.59 0-1.123 0.101-1.6 0.303s-0.887 0.485-1.229 0.847c-0.342 0.363-0.604 0.794-0.787 1.293s-0.274 1.040-0.274 1.623c0 0.595 0.091 1.139 0.274 1.632s0.445 0.921 0.787 1.284c0.342 0.363 0.752 0.645 1.229 0.847s1.011 0.303 1.6 0.303c0.589 0 1.122-0.101 1.6-0.303s0.887-0.485 1.229-0.847c0.342-0.363 0.604-0.791 0.787-1.284zM105.837 8.062c0.147-0.19 0.221-0.458 0.221-0.803 0-0.321-0.065-0.577-0.194-0.767s-0.295-0.336-0.495-0.438c-0.2-0.101-0.43-0.171-0.69-0.207s-0.512-0.057-0.76-0.057h-1.987v2.777h1.81c0.247 0 0.51 0.042 0.787 0.024s0.527-0.020 0.752-0.109c0.223-0.090 0.409-0.229 0.557-0.419zM151.464 11.739h5.747l-2.829-6.919-2.917 6.919z"></path>
</symbol>
<symbol id="icon-rw-logo" viewBox="0 0 194 32">
<title>rw-logo</title>
<path d="M50.924 15.615c0.462-0.62 0.694-1.373 0.694-2.258 0-0.732-0.128-1.344-0.382-1.834-0.256-0.49-0.599-0.879-1.032-1.169s-0.936-0.513-1.511-0.637-1.183-0.203-1.823-0.203h-4.69v12.608h2.769v-5.122h1.192l2.632 5.122h3.326l-3.201-5.313c0.89-0.165 1.565-0.575 2.027-1.195v0zM48.514 14.136c-0.148 0.189-0.335 0.327-0.56 0.416-0.226 0.088-0.477 0.091-0.756 0.108s-0.542-0.024-0.791-0.024h-1.459v-2.758h1.637c0.249 0 0.504 0.022 0.764 0.057s0.492 0.106 0.694 0.206c0.201 0.101 0.367 0.246 0.498 0.435s0.195 0.443 0.195 0.762c0 0.343-0.074 0.609-0.222 0.798zM56.024 17.001h5.538v-2.758h-5.538v-1.97h5.538v-2.758h-8.307v12.608h8.703v-2.758h-5.934v-2.364zM70.407 15.482c-0.433-0.26-0.898-0.461-1.396-0.602s-0.964-0.283-1.396-0.425c-0.433-0.142-0.792-0.312-1.076-0.514s-0.427-0.49-0.427-0.868c0-0.236 0.059-0.437 0.178-0.602s0.273-0.298 0.462-0.398c0.19-0.1 0.391-0.174 0.605-0.221s0.421-0.071 0.623-0.071c0.344 0 0.708 0.068 1.093 0.203s0.691 0.346 0.916 0.629l1.903-2.072c-0.533-0.472-1.132-0.809-1.796-1.009s-1.352-0.301-2.063-0.301c-0.616 0-1.215 0.086-1.796 0.257s-1.093 0.428-1.538 0.77c-0.445 0.343-0.801 0.768-1.067 1.276s-0.4 1.098-0.4 1.771c0 0.697 0.145 1.258 0.436 1.683s0.655 0.768 1.094 1.028c0.438 0.26 0.913 0.466 1.423 0.62s0.984 0.307 1.422 0.461 0.803 0.34 1.094 0.558c0.29 0.219 0.436 0.517 0.436 0.894 0 0.225-0.057 0.42-0.169 0.585s-0.261 0.301-0.445 0.407-0.392 0.186-0.623 0.239c-0.231 0.053-0.46 0.080-0.685 0.080-0.462 0-0.91-0.103-1.343-0.31s-0.792-0.498-1.076-0.876l-1.974 2.161c0.604 0.555 1.256 0.957 1.956 1.205s1.458 0.372 2.276 0.372c0.651 0 1.272-0.083 1.858-0.248s1.102-0.419 1.547-0.761 0.797-0.773 1.058-1.294c0.261-0.52 0.391-1.128 0.391-1.824 0-0.732-0.142-1.317-0.427-1.754s-0.643-0.785-1.076-1.045zM84.483 11.009c-0.604-0.573-1.322-1.013-2.152-1.32s-1.737-0.461-2.721-0.461c-0.984 0-1.891 0.154-2.721 0.461s-1.547 0.747-2.152 1.32-1.076 1.266-1.414 2.082c-0.337 0.814-0.507 1.724-0.507 2.728s0.169 1.913 0.507 2.728c0.338 0.815 0.809 1.509 1.414 2.082s1.322 1.013 2.152 1.32c0.83 0.307 1.737 0.461 2.721 0.461s1.891-0.154 2.721-0.461c0.83-0.307 1.547-0.747 2.152-1.32s1.076-1.267 1.415-2.082c0.337-0.814 0.507-1.724 0.507-2.728s-0.169-1.913-0.507-2.728c-0.338-0.815-0.809-1.509-1.415-2.082zM83.247 17.44c-0.184 0.49-0.448 0.915-0.792 1.275s-0.756 0.641-1.236 0.842c-0.48 0.201-1.017 0.301-1.609 0.301s-1.129-0.1-1.61-0.301-0.892-0.481-1.236-0.842c-0.344-0.36-0.608-0.785-0.791-1.275s-0.276-1.030-0.276-1.621c0-0.578 0.092-1.116 0.276-1.612s0.447-0.924 0.791-1.284c0.344-0.36 0.756-0.64 1.236-0.842s1.017-0.301 1.61-0.301c0.593 0 1.129 0.1 1.609 0.301s0.892 0.481 1.236 0.842c0.344 0.361 0.608 0.788 0.792 1.284s0.276 1.033 0.276 1.612c0 0.591-0.092 1.131-0.276 1.621zM95.581 17.147c0 0.39-0.027 0.75-0.151 1.081s-0.282 0.617-0.507 0.859c-0.225 0.242-0.483 0.431-0.792 0.567s-0.642 0.204-1.009 0.204c-0.367 0-0.707-0.068-1.021-0.204s-0.583-0.325-0.808-0.567c-0.225-0.242-0.472-0.528-0.596-0.859s-0.258-0.691-0.258-1.081v-7.633h-2.769v7.739c0 0.744 0.182 1.429 0.407 2.055s0.595 1.169 1.040 1.63 1.016 0.821 1.68 1.080c0.664 0.26 1.443 0.39 2.321 0.39 0.865 0 1.635-0.13 2.299-0.39s1.22-0.62 1.665-1.080c0.445-0.461 0.743-1.004 0.968-1.63s0.301-1.311 0.301-2.055v-7.739h-2.769v7.633zM109.435 15.615c0.462-0.62 0.693-1.373 0.693-2.258 0-0.732-0.128-1.344-0.382-1.834-0.256-0.49-0.599-0.879-1.032-1.169s-0.936-0.513-1.511-0.637-1.182-0.203-1.823-0.203h-5.051v12.608h2.769v-5.122h1.554l2.632 5.122h3.326l-3.201-5.313c0.89-0.165 1.565-0.575 2.028-1.195zM107.025 14.136c-0.148 0.189-0.335 0.327-0.56 0.416-0.226 0.088-0.477 0.091-0.756 0.108s-0.543-0.024-0.792-0.024h-1.82v-2.758h1.998c0.249 0 0.504 0.022 0.764 0.057s0.493 0.106 0.694 0.206c0.201 0.101 0.367 0.246 0.498 0.435s0.195 0.443 0.195 0.762c0 0.343-0.074 0.609-0.222 0.798zM118.825 19.503c-0.439 0.237-0.943 0.355-1.511 0.355-0.498 0-0.964-0.1-1.396-0.301s-0.809-0.481-1.129-0.842c-0.32-0.36-0.572-0.785-0.756-1.275s-0.276-1.030-0.276-1.621c0-0.578 0.092-1.116 0.276-1.612s0.438-0.924 0.765-1.284c0.326-0.36 0.711-0.64 1.156-0.842s0.928-0.301 1.449-0.301 0.981 0.088 1.379 0.265c0.397 0.178 0.732 0.431 1.005 0.762l2.134-1.736c-0.273-0.342-0.581-0.632-0.925-0.868s-0.702-0.426-1.076-0.567c-0.373-0.141-0.753-0.245-1.138-0.31s-0.756-0.097-1.112-0.097c-0.984 0-1.891 0.154-2.721 0.461s-1.547 0.747-2.152 1.32-1.076 1.266-1.414 2.082c-0.337 0.814-0.507 1.724-0.507 2.728s0.169 1.913 0.507 2.728c0.338 0.815 0.809 1.509 1.414 2.082s1.322 1.013 2.152 1.32c0.83 0.307 1.737 0.461 2.721 0.461 0.865 0 1.707-0.177 2.525-0.531s1.494-0.903 2.028-1.648l-2.312-1.718c-0.285 0.425-0.646 0.756-1.085 0.992zM126.040 17.001h5.538v-2.758h-5.538v-1.97h5.934v-2.758h-8.703v12.608h9.098v-2.758h-6.329v-2.364zM148.899 9.515l-3.13 11.032h-0.036l-3.184-11.032h-1.494l-3.183 11.032h-0.036l-3.13-11.032h-1.209l3.663 12.608h1.441l3.184-11.032h0.036l3.184 11.032h1.44l3.664-12.608h-1.21zM155.301 9.515l-5.496 12.608h1.227l1.422-3.546h6.669l1.369 3.546h1.316l-5.3-12.608h-1.209zM152.918 17.789l2.934-6.873 2.846 6.873h-5.78zM161.642 10.697h4.351v11.426h1.187v-11.426h4.351v-1.182h-9.889v1.182zM181.497 20.274c-0.296 0.242-0.608 0.443-0.934 0.602s-0.661 0.278-1.005 0.354c-0.344 0.077-0.676 0.115-0.996 0.115-0.818 0-1.556-0.141-2.214-0.425s-1.218-0.673-1.68-1.169c-0.462-0.496-0.818-1.080-1.068-1.754s-0.373-1.399-0.373-2.179 0.125-1.506 0.373-2.179c0.249-0.673 0.605-1.258 1.068-1.754s1.023-0.886 1.68-1.169c0.658-0.283 1.396-0.425 2.214-0.425 0.64 0 1.265 0.136 1.877 0.407 0.61 0.272 1.111 0.703 1.502 1.293l0.96-0.797c-0.557-0.708-1.207-1.213-1.947-1.515s-1.538-0.451-2.392-0.451c-0.96 0-1.841 0.165-2.641 0.496s-1.485 0.788-2.054 1.373c-0.569 0.585-1.013 1.279-1.334 2.082s-0.48 1.683-0.48 2.639c0 0.956 0.16 1.84 0.48 2.648s0.765 1.506 1.334 2.091c0.569 0.584 1.254 1.039 2.054 1.364s1.681 0.487 2.641 0.487c0.925 0 1.784-0.177 2.579-0.531s1.494-0.939 2.098-1.754l-0.96-0.726c-0.225 0.343-0.487 0.635-0.783 0.877zM193.288 9.515v5.516h-7.12v-5.516h-1.187v12.608h1.187v-5.91h7.12v5.91h1.187v-12.608h-1.187z"></path>
<path d="M10.296 5.764l-10.296 10.256 7.268 7.24 10.297-10.256-7.269-7.24z"></path>
<path d="M19.051 11.387l4.161-4.144-7.131-7.104-4.161 4.144 7.131 7.104z"></path>
<path d="M21.697 26.384l10.297-10.256-7.268-7.24-10.297 10.256 7.268 7.24z"></path>
<path d="M12.943 20.76l-4.16 4.144 7.132 7.104 4.16-4.144-7.132-7.104z"></path>
</symbol>
<symbol id="icon-share-email" viewBox="0 0 43 32">
<title>share-email</title>
<path fill="#c32d7b" style="fill: var(--color1, #c32d7b)" d="M0.748 0h41.17l-20.585 16.468-20.585-16.468zM42.667 4.865v23.728l-8.24-10.259-3.326 2.672 8.83 10.994h-37.201l8.781-11.003-3.335-2.661-8.176 10.245v-23.715l21.333 17.067 21.333-17.067z"></path>
</symbol>
</defs>
</svg>
