<?xml version="1.0" encoding="UTF-8"?>
<svg width="25px" height="25px" viewBox="0 0 25 25" version="1.1" xmlns="http://www.w3.org/2000/svg" xmlns:xlink="http://www.w3.org/1999/xlink">
    <!-- Generator: Sketch 63.1 (92452) - https://sketch.com -->
    <title>Icons/sidebar/insights-off</title>
    <desc>Created with Sketch.</desc>
    <g id="Icons/sidebar/insights-off" stroke="none" stroke-width="1" fill="none" fill-rule="evenodd" opacity="0.699999988">
        <g id="Shape-2" transform="translate(7.000000, 3.000000)" fill="#393F44">
            <path d="M5.50130106,8.8817842e-16 C6.83491065,8.8817842e-16 8.16888764,0.492522822 9.21955926,1.47667968 C11.2793724,3.40608796 11.5853502,6.60485174 9.96263861,8.90768848 C9.20741563,9.90203847 8.10064095,10.6226489 8.10064095,11.8749108 C8.10064095,12.1731569 7.98448682,12.4594923 7.77818988,12.6703829 C7.57189331,12.8812769 7.29178014,13 7,13 L4,13 C3.70821986,13 3.42810669,12.8812769 3.22181012,12.6703829 C3.01551318,12.4594923 2.89935905,12.1731569 2.89935905,11.8749108 C2.89935905,10.6226489 1.79089356,9.90496759 1.03567057,8.91061723 C-0.587040766,6.60778087 -0.276770066,3.40608796 1.78304249,1.47667968 C2.83375077,0.492522822 4.1676911,8.8817842e-16 5.50130106,8.8817842e-16 Z M5.50130106,0.747126782 C4.34654524,0.747126782 3.19175275,1.17464947 2.27891773,2.02970234 C0.453211397,3.73980069 0.209676306,6.58379774 1.71715065,8.59198835 C2.50528307,9.6903116 3.63311956,10.514389 3.63311956,11.8749108 C3.63311956,11.9745186 3.67171526,12.069634 3.7406156,12.140068 C3.80951556,12.2105024 3.9025565,12.2499408 4,12.2499408 L7,12.2499408 C7.0974435,12.2499408 7.19048444,12.2105024 7.2593844,12.140068 C7.32828474,12.069634 7.36688044,11.9745186 7.36688044,11.8749108 C7.36688044,10.514389 8.50025385,9.69256197 9.28834959,8.59418585 C10.7957874,6.58599524 10.5493903,3.73980069 8.72368402,2.02970234 C7.810849,1.17464947 6.65605651,0.747126782 5.50130106,0.747126782 Z M7.7025826,14.0000376 C7.83489154,13.9981268 7.95795784,14.0691863 8.02465779,14.1860063 C8.09135775,14.3028264 8.09135775,14.4473084 8.02465779,14.5641285 C7.95795784,14.6809485 7.83489154,14.752008 7.7025826,14.7500972 L3.30001915,14.7500972 C3.16771021,14.752008 3.04464391,14.6809485 2.97794395,14.5641285 C2.911244,14.4473084 2.911244,14.3028264 2.97794395,14.1860063 C3.04464391,14.0691863 3.16771021,13.9981268 3.30001915,14.0000376 L7.7025826,14.0000376 L7.7025826,14.0000376 Z M7.7025826,16.0000378 C7.83489457,15.9981222 7.95796572,16.0691805 8.02466858,16.1860025 C8.09137144,16.3028245 8.09137144,16.4473103 8.02466858,16.5641323 C7.95796572,16.6809543 7.83489457,16.7520126 7.7025826,16.750097 L3.30001915,16.750097 C3.16770718,16.7520126 3.04463603,16.6809543 2.97793316,16.5641323 C2.9112303,16.4473103 2.9112303,16.3028245 2.97793316,16.1860025 C3.04463603,16.0691805 3.16770718,15.9981222 3.30001915,16.0000378 L7.7025826,16.0000378 L7.7025826,16.0000378 Z M6.60194164,18.0000376 C6.73425059,17.9981268 6.85731688,18.0691863 6.92401684,18.1860063 C6.9907168,18.3028264 6.9907168,18.4473084 6.92401684,18.5641285 C6.85731688,18.6809485 6.73425059,18.752008 6.60194164,18.7500972 L4.4006601,18.7500972 C4.26835116,18.752008 4.14528486,18.6809485 4.07858491,18.5641285 C4.01188495,18.4473084 4.01188495,18.3028264 4.07858491,18.1860063 C4.14528486,18.0691863 4.26835116,17.9981268 4.4006601,18.0000376 L6.60194164,18.0000376 Z" id="Shape"></path>
        </g>
    </g>
</svg>