<?xml version="1.0" encoding="UTF-8"?>
<svg width="25px" height="25px" viewBox="0 0 25 25" version="1.1" xmlns="http://www.w3.org/2000/svg" xmlns:xlink="http://www.w3.org/1999/xlink">
    <!-- Generator: Sketch 63.1 (92452) - https://sketch.com -->
    <title>Icons/sidebar/insights-on</title>
    <desc>Created with Sketch.</desc>
    <g id="Icons/sidebar/insights-on" stroke="none" stroke-width="1" fill="none" fill-rule="evenodd">
        <path d="M13.4387559,20.7672862 L11.2374744,21.5273411 L11.5638458,22.4725827 L13.7651274,21.7125278 L13.4387559,20.7672862 Z M14.6175213,18.7205436 L10.2149579,19.4805982 L10.3850804,20.4660211 L14.7876439,19.7059665 L14.6175213,18.7205436 Z M14.6175213,16.6938913 L10.2149578,17.4539463 L10.3850805,18.4393692 L14.7876439,17.6793142 L14.6175213,16.6938913 Z M12.5013011,2.5 C11.0445246,2.5 9.58680702,3.04411055 8.43883127,4.133703 C7.3214529,5.19428903 6.67649976,6.60353713 6.53147522,8.06528621 C6.38615703,9.52999512 6.74306262,11.046318 7.63557951,12.3292391 C7.85350475,12.6199899 8.09889749,12.8889802 8.34099169,13.1531807 C8.85624191,13.71548 9.39935905,14.2410931 9.39935905,15.0331564 C9.39935905,15.465931 9.56690754,15.8807296 9.86207993,16.1864958 C10.163738,16.4989859 10.5737868,16.6732386 11,16.6732386 L14,16.6732386 C14.4262132,16.6732386 14.836262,16.4989859 15.1379232,16.1864926 C15.4330925,15.8807296 15.600641,15.465931 15.600641,15.0331564 C15.600641,14.2396538 16.1444804,13.7119481 16.6603589,13.1477822 C16.9013744,12.8842071 17.1456244,12.615928 17.3731415,12.3118527 C18.2554684,11.0430312 18.6133816,9.52704823 18.4688896,8.06283068 C18.3247502,6.60218639 17.6809471,5.19409722 16.5637764,4.1337086 C15.4158393,3.04411484 13.9580802,2.5 12.5013011,2.5 Z" id="Shape" stroke="#F4F8FB" fill="#2C75B0"></path>
    </g>
</svg>