<?xml version="1.0" encoding="UTF-8"?>
<svg width="129px" height="21px" viewBox="0 0 129 21" version="1.1" xmlns="http://www.w3.org/2000/svg" xmlns:xlink="http://www.w3.org/1999/xlink">
    <!-- Generator: Sketch 46.2 (44496) - http://www.bohemiancoding.com/sketch -->
    <title>logo-embed</title>
    <desc>Created with Sketch.</desc>
    <defs></defs>
    <g id="UI-kit" stroke="none" stroke-width="1" fill="none" fill-rule="evenodd">
        <g id="UI-Kit" transform="translate(-235.000000, -7642.000000)">
            <g id="Group-2" transform="translate(220.000000, 7268.000000)">
                <g id="logo-embed" transform="translate(15.000000, 374.000000)">
                    <path d="M33.7994987,10.3608969 C34.1061714,9.93766816 34.259639,9.42349776 34.259639,8.81865471 C34.259639,8.31847534 34.1749039,7.90116592 34.0062208,7.5664574 C33.8367506,7.23201794 33.6087792,6.96591928 33.3217818,6.76816143 C33.0347844,6.57067265 32.7008286,6.41811659 32.3193896,6.33336323 C31.9379506,6.24860987 31.535,6.19506726 31.1102753,6.19506726 L28,6.19506726 L28,14.8049327 L29.8363636,14.8049327 L29.8363636,11.3071749 L30.6270494,11.3071749 L32.3723818,14.8049327 L34.5781169,14.8049327 L32.4550182,11.1766816 C33.0450156,11.0639462 33.492826,10.7841256 33.7994987,10.3608969 L33.7994987,10.3608969 Z M32.2016,9.35085202 C32.1032234,9.48 31.9791377,9.57443946 31.8301299,9.63524664 C31.6803351,9.6955157 31.5134883,9.69713004 31.3285403,9.70923767 C31.1435922,9.72134529 30.9688753,9.69282511 30.8038649,9.69282511 L29.8363636,9.69282511 L29.8363636,7.80941704 L30.9219169,7.80941704 C31.0869273,7.80941704 31.2558727,7.82421525 31.4287532,7.84816143 C31.6018961,7.87237668 31.7553636,7.92026906 31.8888935,7.98860987 C32.0224234,8.05748879 32.1326052,8.1567713 32.2191766,8.28565022 C32.3054857,8.41479821 32.3487714,8.58834081 32.3487714,8.80600897 C32.3487714,9.04035874 32.2997143,9.22197309 32.2016,9.35085202 Z M37.1818182,11.3071749 L37.1818182,12.9215247 L41.1168831,12.9215247 L41.1168831,14.8049327 L35.3454545,14.8049327 L35.3454545,6.19506726 L40.8545455,6.19506726 L40.8545455,8.07847534 L37.1818182,8.07847534 L37.1818182,9.42376682 L40.8545455,9.42376682 L40.8545455,11.3071749 L37.1818182,11.3071749 Z M46.7201532,10.2702242 C47.0071506,10.4475336 47.2450909,10.6856502 47.4337117,10.9837668 C47.6225948,11.2824215 47.716774,11.681435 47.716774,12.1816143 C47.716774,12.6573094 47.6302026,13.0724664 47.4573221,13.4273543 C47.2844416,13.7825112 47.0504364,14.076861 46.7555688,14.3106726 C46.4607013,14.5444843 46.118613,14.7177578 45.7295662,14.8304933 C45.3405195,14.9434978 44.929174,15 44.4971039,15 C43.9543273,15 43.451426,14.9152466 42.9873506,14.746009 C42.5232753,14.5765022 42.0909429,14.3023318 41.6900909,13.9232287 L42.9991558,12.447713 C43.1877766,12.7057399 43.4257169,12.9053812 43.7127143,13.0460987 C43.9994494,13.1876233 44.2964156,13.2581166 44.6030883,13.2581166 C44.7523584,13.2581166 44.9039896,13.2398206 45.0571948,13.2034978 C45.2104,13.1674439 45.3481273,13.1128251 45.4701143,13.0401794 C45.5921013,12.9675336 45.6902156,12.8752466 45.7649818,12.7622422 C45.8394857,12.6492377 45.877,12.5163229 45.877,12.3626906 C45.877,12.1046637 45.7804597,11.9015247 45.5879039,11.7519283 C45.3953481,11.60287 45.1534727,11.4756054 44.8625403,11.3709417 C44.5716078,11.266278 44.2570649,11.1613453 43.919174,11.0564126 C43.5810208,10.9517489 43.2662156,10.8104933 42.9755455,10.6331839 C42.684613,10.4556054 42.4427377,10.2217937 42.2501818,9.93147982 C42.0573636,9.64116592 41.9613481,9.25802691 41.9613481,8.78233184 C41.9613481,8.32278027 42.0497558,7.91946188 42.2265714,7.57264574 C42.403387,7.22609865 42.6394909,6.93578475 42.9343584,6.70143498 C43.229226,6.46789238 43.5692156,6.29246637 43.9543273,6.17542601 C44.3397013,6.05865471 44.7368805,6 45.1456026,6 C45.6172857,6 46.0732286,6.06860987 46.5136935,6.2058296 C46.9541584,6.34278027 47.3513377,6.57282511 47.7049688,6.89515695 L46.4431247,8.31040359 C46.2935922,8.11695067 46.0910675,7.97381166 45.8355506,7.88098655 C45.5800338,7.78843049 45.3384208,7.74215247 45.1104494,7.74215247 C44.9766571,7.74215247 44.8389299,7.75829596 44.6975299,7.7903139 C44.5558675,7.8226009 44.4223377,7.87318386 44.2964156,7.94152466 C44.1707558,8.01013453 44.0684442,8.10107623 43.9897429,8.2135426 C43.9110416,8.32654709 43.8719532,8.46376682 43.8719532,8.62493274 C43.8719532,8.8832287 43.9661325,9.08071749 44.1550156,9.21766816 C44.3436364,9.35515695 44.5813143,9.47165919 44.868574,9.56852018 C45.1553091,9.66538117 45.4640805,9.76197309 45.7943636,9.85883408 C46.1246468,9.95569507 46.4331558,10.0929148 46.7201532,10.2702242 Z M56.055439,7.21587444 C56.4568156,7.6070852 56.7692597,8.0806278 56.9935584,8.63730942 C57.2173325,9.19345291 57.329613,9.81470852 57.329613,10.5 C57.329613,11.1855605 57.2173325,11.8065471 56.9935584,12.3626906 C56.7692597,12.9193722 56.4568156,13.3931839 56.055439,13.7843946 C55.654587,14.1756054 55.1789688,14.4758744 54.6285844,14.6854709 C54.0779377,14.8950673 53.4763974,15 52.8239636,15 C52.1712675,15 51.5697273,14.8950673 51.0193429,14.6854709 C50.4686961,14.4758744 49.9933403,14.1756054 49.592226,13.7843946 C49.1911117,13.3931839 48.8786675,12.9193722 48.6543688,12.3626906 C48.4305948,11.8065471 48.3183143,11.1855605 48.3183143,10.5 C48.3183143,9.81470852 48.4305948,9.19345291 48.6543688,8.63730942 C48.8786675,8.0806278 49.1911117,7.6070852 49.592226,7.21587444 C49.9933403,6.82466368 50.4686961,6.52439462 51.0193429,6.31452915 C51.5697273,6.10493274 52.1712675,6 52.8239636,6 C53.4763974,6 54.0779377,6.10493274 54.6285844,6.31452915 C55.1789688,6.52439462 55.654587,6.82466368 56.055439,7.21587444 Z M55.2358961,11.6069058 C55.1139091,11.9416143 54.9389299,12.2319283 54.7109584,12.4778475 C54.482987,12.7237668 54.2096312,12.9153363 53.8911532,13.0525561 C53.5726753,13.1897758 53.2169455,13.2581166 52.8239636,13.2581166 C52.4307195,13.2581166 52.0749896,13.1897758 51.7565117,13.0525561 C51.4380338,12.9153363 51.1649403,12.7237668 50.9367065,12.4778475 C50.7087351,12.2319283 50.5337558,11.9416143 50.4120312,11.6069058 C50.2900442,11.2724664 50.2291818,10.9035874 50.2291818,10.5 C50.2291818,10.1050224 50.2900442,9.73802691 50.4120312,9.39928251 C50.5337558,9.06053812 50.7087351,8.76834081 50.9367065,8.52215247 C51.1649403,8.27623318 51.4380338,8.08493274 51.7565117,7.94744395 C52.0749896,7.81049327 52.4307195,7.74215247 52.8239636,7.74215247 C53.2169455,7.74215247 53.5726753,7.81049327 53.8911532,7.94744395 C54.2096312,8.08493274 54.482987,8.27623318 54.7109584,8.52215247 C54.9389299,8.76834081 55.1139091,9.06053812 55.2358961,9.39928251 C55.3576208,9.73802691 55.4187455,10.1050224 55.4187455,10.5 C55.4187455,10.9035874 55.3576208,11.2724664 55.2358961,11.6069058 Z M63.4155844,11.4072646 L63.4155844,6.19506726 L65.2519481,6.19506726 L65.2519481,11.4799103 C65.2519481,11.9878924 65.2015792,12.4557848 65.0523091,12.8830493 C64.903039,13.310583 64.7054987,13.6816143 64.4106312,13.9961435 C64.1155013,14.3106726 63.7463922,14.5565919 63.3061896,14.7339013 C62.8657247,14.9112108 62.3554779,15 61.7817455,15 C61.1998805,15 60.6830753,14.9112108 60.2426104,14.7339013 C59.8024078,14.5565919 59.4233299,14.3106726 59.1284623,13.9961435 C58.8335948,13.6816143 58.5883091,13.310583 58.4387766,12.8830493 C58.2895065,12.4557848 58.1688312,11.9878924 58.1688312,11.4799103 L58.1688312,6.19506726 L60.0051948,6.19506726 L60.0051948,11.4072646 C60.0051948,11.6733632 60.0938649,11.9195516 60.1765013,12.1452915 C60.2588753,12.3710314 60.422574,12.5666368 60.5718442,12.7318386 C60.7213766,12.8973094 60.8995039,13.0261883 61.1078,13.1190135 C61.3160961,13.2118386 61.5409195,13.2581166 61.7846312,13.2581166 C62.0280805,13.2581166 62.2494935,13.2118386 62.4538545,13.1190135 C62.6582156,13.0261883 62.8295221,12.8973094 62.9787922,12.7318386 C63.1283247,12.5666368 63.2324727,12.3710314 63.3151091,12.1452915 C63.3977455,11.9195516 63.4155844,11.6733632 63.4155844,11.4072646 Z M72.603174,10.3608969 C72.2965013,10.7841256 71.8484286,11.0639462 71.2584312,11.1766816 L73.3815299,14.8049327 L71.1757948,14.8049327 L69.4304623,11.3071749 L68.4,11.3071749 L68.4,14.8049327 L66.5636364,14.8049327 L66.5636364,6.19506726 L69.9136883,6.19506726 C70.3386753,6.19506726 70.7413636,6.24860987 71.1228026,6.33336323 C71.5042416,6.41811659 71.8381974,6.57067265 72.1251948,6.76816143 C72.4121922,6.96591928 72.6401636,7.23201794 72.8096338,7.5664574 C72.9783169,7.90116592 73.0630519,8.31847534 73.0630519,8.81865471 C73.0630519,9.42349776 72.9095844,9.93766816 72.603174,10.3608969 Z M71.005013,9.35085202 C70.9066364,9.48 70.7825506,9.57443946 70.6335429,9.63524664 C70.4837481,9.6955157 70.3169013,9.69713004 70.1322156,9.70923767 C69.9472675,9.72134529 69.7722883,9.69282511 69.6072779,9.69282511 L68.4,9.69282511 L68.4,7.80941704 L69.7253299,7.80941704 C69.8903403,7.80941704 70.0592857,7.82421525 70.2321662,7.84816143 C70.4053091,7.87237668 70.5587766,7.92026906 70.6923065,7.98860987 C70.8258364,8.05748879 70.9360182,8.1567713 71.0225896,8.28565022 C71.1088987,8.41479821 71.1521844,8.58834081 71.1521844,8.80600897 C71.1521844,9.04035874 71.1031273,9.22197309 71.005013,9.35085202 Z M78.8305455,13.0159641 C79.1214779,12.8547982 79.3612545,12.6290583 79.5501377,12.3387444 L81.0835013,13.5121076 C80.7296078,14.0203587 80.2812727,14.395157 79.7387584,14.6373094 C79.1962442,14.8789238 78.6377273,15 78.0639948,15 C77.4112987,15 76.8097584,14.8950673 76.259374,14.6854709 C75.7087273,14.4758744 75.2333714,14.1756054 74.8322571,13.7843946 C74.4311429,13.3931839 74.1186987,12.9193722 73.8944,12.3626906 C73.670626,11.8065471 73.5583455,11.1855605 73.5583455,10.5 C73.5583455,9.81470852 73.670626,9.19345291 73.8944,8.63730942 C74.1186987,8.0806278 74.4311429,7.6070852 74.8322571,7.21587444 C75.2333714,6.82466368 75.7087273,6.52439462 76.259374,6.31452915 C76.8097584,6.10493274 77.4112987,6 78.0639948,6 C78.2998364,6 78.5456468,6.02233184 78.8011636,6.0664574 C79.0564182,6.11085202 79.3082623,6.18161435 79.5559091,6.27820628 C79.8038182,6.37479821 80.0414961,6.50421525 80.2694675,6.66538117 C80.497439,6.82681614 80.7018,7.02430493 80.882813,7.25811659 L79.4675013,8.44358744 C79.2864883,8.21784753 79.0642883,8.04457399 78.8011636,7.9232287 C78.5375143,7.80242152 78.2329403,7.74215247 77.8869169,7.74215247 C77.5408935,7.74215247 77.2205792,7.81049327 76.9257117,7.94744395 C76.6308442,8.08493274 76.3753273,8.27623318 76.159161,8.52215247 C75.9427325,8.76834081 75.773787,9.06053812 75.6520623,9.39928251 C75.5300753,9.73802691 75.469213,10.1050224 75.469213,10.5 C75.469213,10.9035874 75.5300753,11.2724664 75.6520623,11.6069058 C75.773787,11.9416143 75.9408961,12.2319283 76.1533896,12.4778475 C76.3653584,12.7237668 76.6151039,12.9153363 76.9021013,13.0525561 C77.1890987,13.1897758 77.4978701,13.2581166 77.8281532,13.2581166 C78.2053948,13.2581166 78.539613,13.1776682 78.8305455,13.0159641 Z M83.6155844,11.3071749 L83.6155844,12.9215247 L87.812987,12.9215247 L87.812987,14.8049327 L81.7792208,14.8049327 L81.7792208,6.19506726 L87.5506494,6.19506726 L87.5506494,8.07847534 L83.6155844,8.07847534 L83.6155844,9.42376682 L87.2883117,9.42376682 L87.2883117,11.3071749 L83.6155844,11.3071749 Z M98.7747662,6.19506726 L99.5769948,6.19506726 L97.1472234,14.8049327 L96.1920519,14.8049327 L94.0807584,7.27130045 L94.0571481,7.27130045 L91.9458545,14.8049327 L90.9904208,14.8049327 L88.5609117,6.19506726 L89.3628779,6.19506726 L91.4387558,13.7286996 L91.4623662,13.7286996 L93.5733974,6.19506726 L94.5642468,6.19506726 L96.6755403,13.7286996 L96.6991506,13.7286996 L98.7747662,6.19506726 Z M103.020701,6.19506726 L103.822668,6.19506726 L107.337468,14.8049327 L106.46467,14.8049327 L105.556457,12.3834081 L101.133444,12.3834081 L100.190078,14.8049327 L99.3760442,14.8049327 L103.020701,6.19506726 Z M101.440117,11.8452915 L103.386138,7.15210762 L105.273395,11.8452915 L101.440117,11.8452915 Z M107.225974,7.00224215 L107.225974,6.19506726 L113.784416,6.19506726 L113.784416,7.00224215 L110.898701,7.00224215 L110.898701,14.8049327 L110.111688,14.8049327 L110.111688,7.00224215 L107.225974,7.00224215 Z M120.393751,13.5422422 C120.590242,13.3770404 120.763647,13.1776682 120.912917,12.9435874 L121.54961,13.4394619 C121.148758,13.9961435 120.684683,14.395157 120.158171,14.6373094 C119.631135,14.8789238 119.061075,15 118.44773,15 C117.811036,15 117.227073,14.8888789 116.696364,14.6674439 C116.165655,14.4457399 115.711548,14.1349776 115.334044,13.7359641 C114.956803,13.3366816 114.661935,12.8609865 114.449442,12.3083408 C114.23721,11.7562332 114.130964,11.1530045 114.130964,10.5 C114.130964,9.84672646 114.23721,9.24591928 114.449442,8.69757848 C114.661935,8.14923767 114.956803,7.67542601 115.334044,7.2761435 C115.711548,6.87713004 116.165655,6.56475336 116.696364,6.33874439 C117.227073,6.11300448 117.811036,6 118.44773,6 C119.014117,6 119.542727,6.10278027 120.034086,6.30834081 C120.525444,6.5141704 120.95594,6.85883408 121.325574,7.3426009 L120.688618,7.88717489 C120.429166,7.48412556 120.096784,7.18977578 119.69226,7.0038565 C119.286948,6.81874439 118.872192,6.72565022 118.44773,6.72565022 C117.905216,6.72565022 117.415956,6.82278027 116.979426,7.01596413 C116.543158,7.2096861 116.171426,7.47578475 115.865016,7.81452915 C115.558343,8.15327354 115.322239,8.552287 115.156966,9.01210762 C114.991956,9.47165919 114.909319,9.96780269 114.909319,10.5 C114.909319,11.0321973 114.991956,11.5283408 115.156966,11.9878924 C115.322239,12.447713 115.558343,12.8467265 115.865016,13.1854709 C116.171426,13.5242152 116.543158,13.7903139 116.979426,13.9837668 C117.415956,14.1774888 117.905216,14.2740807 118.44773,14.2740807 C118.660223,14.2740807 118.880325,14.2479821 119.108296,14.1955157 C119.336268,14.1433184 119.558468,14.0626009 119.774634,13.9536323 C119.9908,13.8446637 120.19726,13.7074439 120.393751,13.5422422 Z M128.212987,6.19506726 L129,6.19506726 L129,14.8049327 L128.212987,14.8049327 L128.212987,10.7690583 L123.490909,10.7690583 L123.490909,14.8049327 L122.703896,14.8049327 L122.703896,6.19506726 L123.490909,6.19506726 L123.490909,9.96188341 L128.212987,9.96188341 L128.212987,6.19506726 Z" id="Fill-1-Copy" fill="#393F44"></path>
                    <path d="M6.75813703,3.70588235 L11.5294118,8.47667343 L4.77079108,15.2352941 L0,10.464503 L6.75813703,3.70588235 Z M12.5043443,7.41176471 L7.82352941,2.73065015 L10.5544793,0 L15.2352941,4.68111455 L12.5043443,7.41176471 Z M14.2413793,17.2941176 L9.47058824,12.5233266 L16.2292089,5.76470588 L21,10.535497 L14.2413793,17.2941176 Z M8.49535604,13.5882353 L13.1764706,18.2693498 L10.4458204,21 L5.76470588,16.3188854 L8.49535604,13.5882353 Z" id="Combined-Shape" fill="#C32D7B"></path>
                </g>
            </g>
        </g>
    </g>
</svg>