<?xml version="1.0" encoding="UTF-8"?>
<svg width="154px" height="55px" viewBox="0 0 154 55" version="1.1" xmlns="http://www.w3.org/2000/svg" xmlns:xlink="http://www.w3.org/1999/xlink">
    <defs></defs>
    <g id="Web" stroke="none" stroke-width="1" fill="none" fill-rule="evenodd">
        <g id="Home" transform="translate(-111.000000, -2958.000000)">
            <g id="WRI-footer" transform="translate(0.000000, 2891.000000)">
                <g id="WRI-logo" transform="translate(111.000000, 67.000000)">
                    <path d="M7.41163441,35.7864892 L10.7583548,39.1332097 L7.73276344,42.1588011 L4.38604301,38.8120806 L7.41163441,35.7864892 Z M26.9381129,0.532376344 L27.0658548,0.659526882 L30.2848333,3.87850538 L34.3501022,7.94436559 L31.0027903,11.2904946 L26.9381129,7.2258172 L15.0090269,19.1543118 L11.6628978,15.8075914 L26.9381129,0.532376344 Z M0,27.4704892 L7.41198925,20.0585 L10.7587097,23.4058118 L6.69344086,27.4704892 L18.6219355,39.3995753 L15.2752151,42.7457043 L3.34672043,30.8166183 L0.127150538,27.5976398 L0,27.4704892 Z M43.1181667,31.5354032 L47.1828441,27.4701344 L35.2543495,15.5416398 L38.6010699,12.1949194 L50.5295645,24.1240054 L53.7491344,27.3429839 L53.8762849,27.4701344 L46.4648871,34.8821237 L43.1181667,31.5354032 Z M26.9381129,47.715457 L38.8671989,35.786371 L42.2139194,39.1330914 L26.9381129,54.4088978 L26.8109624,54.2811559 L23.5919839,51.061586 L19.5261237,46.9969086 L22.8734355,43.6507796 L26.9381129,47.715457 Z M46.4647688,19.1543118 L43.1180484,15.8075914 L46.1436398,12.782 L49.4903602,16.1287204 L46.4647688,19.1543118 Z M38.6008925,43.6503656 L41.6264839,46.675957 L38.2797634,50.0226774 L35.254172,46.997086 L38.6008925,43.6503656 Z M18.6221129,7.94383333 L15.2753925,11.2905538 L12.2498011,8.26496237 L15.5965215,4.91824194 L18.6221129,7.94383333 Z M23.1393871,35.7864892 L26.4861075,39.1332097 L15.5966989,50.0226183 L12.2499785,46.6758978 L23.1393871,35.7864892 Z M30.7370753,34.8820645 L27.3903548,31.5353441 L38.8670215,20.0586774 L42.2137419,23.4053978 L30.7370753,34.8820645 Z M30.7370753,19.1543118 L27.3903548,15.8075914 L38.2797634,4.9181828 L41.6264839,8.26490323 L30.7370753,19.1543118 Z M23.139328,20.0587957 L26.4860484,23.4055161 L15.0093817,34.8821828 L11.6626613,31.5354624 L23.139328,20.0587957 Z M22.8731989,27.922672 L34.3498656,39.3993387 L31.0031452,42.7460591 L19.5264785,31.2693925 L22.8731989,27.922672 Z M18.6221129,23.671586 L15.2753925,27.0183065 L4.38598387,16.1288978 L7.7327043,12.7821774 L18.6221129,23.671586 Z M34.3498656,23.671586 L31.0031452,27.0183065 L19.5264785,15.5416398 L22.8731989,12.1949194 L34.3498656,23.671586 Z M38.6008925,27.922672 L49.4903011,38.8120806 L46.1435806,42.1588011 L35.254172,31.2693925 L38.6008925,27.922672 Z" id="WRI-Symbol" fill="#FAB72E"></path>
                    <path d="M68.7433172,6.39236022 C68.5984247,5.94526344 68.4653602,5.65547849 68.2962204,5.53424194 C68.1631559,5.45026344 67.9212742,5.42601613 67.8130484,5.42601613 C67.6924032,5.42601613 67.6196613,5.41359677 67.6196613,5.31719892 C67.6196613,5.23262903 67.7166505,5.20838172 67.8857903,5.20838172 C68.5138548,5.20838172 69.1779946,5.24445699 69.2874032,5.24445699 C69.395629,5.24445699 69.9272957,5.20838172 70.6281022,5.20838172 C70.7978333,5.20838172 70.8818118,5.24445699 70.8818118,5.31719892 C70.8818118,5.41359677 70.785414,5.42601613 70.6647688,5.42601613 C70.5677796,5.42601613 70.4471344,5.42601613 70.3625645,5.47391935 C70.2537473,5.52241398 70.2300914,5.60698387 70.2300914,5.74004839 C70.2300914,5.89736022 70.3507366,6.30779032 70.495629,6.85128495 C70.7002527,7.64908065 71.8245,11.3104247 72.0421344,11.9869839 L74.4219194,5.67972581 C74.5437473,5.34144624 74.6277258,5.24445699 74.7241237,5.24445699 C74.8577796,5.24445699 74.9175108,5.42601613 75.0748226,5.81279032 L77.5882634,11.902414 C77.8419731,11.0927903 78.8083172,7.90279032 79.2311667,6.48934946 C79.316328,6.21139247 79.3524032,5.9576828 79.3524032,5.78854301 C79.3524032,5.59515591 79.243586,5.42601613 78.7722419,5.42601613 C78.6515968,5.42601613 78.5670269,5.38934946 78.5670269,5.31719892 C78.5670269,5.23262903 78.6634247,5.20838172 78.8449839,5.20838172 C79.4854677,5.20838172 79.9922957,5.24445699 80.1017043,5.24445699 C80.1862742,5.24445699 80.7055215,5.20838172 81.1041237,5.20838172 C81.2371882,5.20838172 81.3217581,5.23262903 81.3217581,5.30477957 C81.3217581,5.38934946 81.2614355,5.42601613 81.1526183,5.42601613 C81.0319731,5.42601613 80.8628333,5.43784409 80.7297688,5.48633871 C80.4399839,5.59515591 80.3069194,6.07832796 80.0532097,6.76671505 C79.4972957,8.28956452 78.2287473,12.1318763 77.6367581,13.9445108 C77.5036935,14.3673602 77.443371,14.5122527 77.2860591,14.5122527 C77.165414,14.5122527 77.092672,14.3673602 76.9111129,13.9202634 L74.3982634,7.8542957 C74.1445538,8.47053226 72.5377258,12.7605323 72.0178871,13.8717688 C71.7878333,14.3673602 71.7281022,14.5122527 71.5832097,14.5122527 C71.4625645,14.5122527 71.4140699,14.3791882 71.3052527,14.0651559 L68.7433172,6.39236022 Z M87.1935699,5.03947849 C90.2026022,5.03947849 92.0755591,6.79119892 92.0755591,9.55834946 C92.0755591,12.3255 90.1422796,14.5124892 87.0729247,14.5124892 C83.6055591,14.5124892 82.2039462,11.9144785 82.2039462,9.77598387 C82.2039462,7.70963978 83.5694839,5.03947849 87.1935699,5.03947849 Z M95.3181344,8.71247312 C95.3181344,6.8755914 95.3181344,6.53731183 95.2938871,6.15053763 C95.2702312,5.74010753 95.1732419,5.54672043 94.7746398,5.46215054 C94.6776505,5.43790323 94.4724355,5.42607527 94.3032957,5.42607527 C94.1702312,5.42607527 94.0974892,5.40182796 94.0974892,5.31725806 C94.0974892,5.23268817 94.1826505,5.20844086 94.3636183,5.20844086 C95.0041022,5.20844086 95.7652312,5.24451613 96.0189409,5.24451613 C96.4299624,5.24451613 97.3478118,5.20844086 97.7227581,5.20844086 C98.4838871,5.20844086 99.2935108,5.2805914 99.9458226,5.72768817 C100.284102,5.95774194 100.767866,6.57397849 100.767866,7.38360215 C100.767866,8.2772043 100.392919,9.09924731 99.1722742,10.0898387 C100.248027,11.442957 101.081898,12.5187097 101.794532,13.2674194 C102.471683,13.9682258 102.966683,14.0533871 103.148242,14.0894624 C103.281306,14.1137097 103.389532,14.1255376 103.48593,14.1255376 C103.582919,14.1255376 103.630823,14.1622043 103.630823,14.2225269 C103.630823,14.3189247 103.546844,14.343172 103.401952,14.343172 L102.253457,14.343172 C101.577489,14.343172 101.275285,14.2828495 100.961253,14.1137097 C100.441414,13.8357527 99.9824892,13.2674194 99.3053387,12.3371505 C98.8227581,11.6730108 98.2662527,10.8515591 98.1095323,10.67 C98.0492097,10.5972581 97.9764677,10.5854301 97.8918978,10.5854301 L96.8403925,10.5611828 C96.7806613,10.5611828 96.7439946,10.5854301 96.7439946,10.6575806 L96.7439946,10.8273118 C96.7439946,11.9503763 96.7439946,12.9054839 96.8049086,13.4129032 C96.8403925,13.7630108 96.9131344,14.0291398 97.2756613,14.0776344 C97.456629,14.1018817 97.7227581,14.1255376 97.8676505,14.1255376 C97.9640484,14.1255376 98.012543,14.1622043 98.012543,14.2225269 C98.012543,14.3070968 97.9279731,14.343172 97.7706613,14.343172 C97.0704462,14.343172 96.1762527,14.3070968 95.9946935,14.3070968 C95.7652312,14.3070968 95.0041022,14.343172 94.5203387,14.343172 C94.3636183,14.343172 94.2790484,14.3070968 94.2790484,14.2225269 C94.2790484,14.1622043 94.327543,14.1255376 94.4724355,14.1255376 C94.6534032,14.1255376 94.7988871,14.1018817 94.9077043,14.0776344 C95.1489946,14.0291398 95.2093172,13.7630108 95.2578118,13.4129032 C95.3181344,12.9054839 95.3181344,11.9503763 95.3181344,10.8391398 L95.3181344,8.71247312 Z M107.790597,10.8391398 C107.790597,12.3856452 107.790597,13.2195161 108.044898,13.4365591 C108.249522,13.6181183 108.564145,13.7026882 109.506242,13.7026882 C110.146726,13.7026882 110.61807,13.6908602 110.920274,13.3644086 C111.065167,13.2070968 111.210059,12.8694086 111.234306,12.6393548 C111.246726,12.5305376 111.270973,12.4583871 111.367371,12.4583871 C111.451941,12.4583871 111.46436,12.5187097 111.46436,12.6636022 C111.46436,12.7966667 111.379199,13.7026882 111.282801,14.0527957 C111.210059,14.3189247 111.150328,14.3792473 110.521672,14.3792473 C109.651134,14.3792473 109.02307,14.355 108.479575,14.343172 C107.935489,14.3189247 107.500812,14.3070968 107.005812,14.3070968 C106.872156,14.3070968 106.606618,14.3070968 106.316833,14.3189247 C106.038876,14.3189247 105.724844,14.343172 105.482962,14.343172 C105.325651,14.343172 105.241081,14.3070968 105.241081,14.2225269 C105.241081,14.1622043 105.289575,14.1255376 105.435059,14.1255376 C105.615435,14.1255376 105.760919,14.1018817 105.869737,14.077043 C106.111027,14.0291398 106.171941,13.7630108 106.220435,13.4129032 C106.280167,12.9054839 106.280167,11.9503763 106.280167,10.8391398 L106.280167,8.71247312 C106.280167,6.8755914 106.280167,6.53731183 106.255919,6.15053763 C106.231672,5.74010753 106.135274,5.54672043 105.736672,5.46215054 C105.639683,5.43790323 105.49479,5.42607527 105.337478,5.42607527 C105.205005,5.42607527 105.132855,5.40182796 105.132855,5.31725806 C105.132855,5.23268817 105.216833,5.20844086 105.398392,5.20844086 C105.966134,5.20844086 106.727263,5.24451613 107.053715,5.24451613 C107.3435,5.24451613 108.225866,5.20844086 108.69721,5.20844086 C108.865758,5.20844086 108.950919,5.23268817 108.950919,5.31725806 C108.950919,5.40182796 108.878177,5.42607527 108.733285,5.42607527 C108.60022,5.42607527 108.406833,5.43790323 108.261941,5.46215054 C107.935489,5.52247312 107.839091,5.72768817 107.814844,6.15053763 C107.790597,6.53731183 107.790597,6.8755914 107.790597,8.71247312 L107.790597,10.8391398 Z M114.665952,8.71265054 C114.665952,6.87576882 114.665952,6.53748925 114.641704,6.15071505 C114.617457,5.74028495 114.521059,5.54630645 114.122457,5.46173656 C114.025468,5.43808065 113.820844,5.42566129 113.651113,5.42566129 C113.51864,5.42566129 113.445898,5.40141398 113.445898,5.31684409 C113.445898,5.23227419 113.530468,5.20861828 113.711435,5.20861828 C114.351919,5.20861828 115.113048,5.24469355 115.451919,5.24469355 C115.826274,5.24469355 116.587403,5.20861828 117.312457,5.20861828 C118.822887,5.20861828 120.840737,5.20861828 122.15778,6.58598387 C122.762188,7.21404839 123.32993,8.21705914 123.32993,9.65474731 C123.32993,11.1770054 122.689446,12.337328 122.012887,13.0263065 C121.456973,13.5940484 120.200253,14.4521667 117.96536,14.4521667 C117.530091,14.4521667 117.0345,14.4155 116.575575,14.3794247 C116.116059,14.3433495 115.693801,14.3066828 115.391597,14.3066828 C115.257941,14.3066828 114.992403,14.3066828 114.702618,14.3191022 C114.424661,14.3191022 114.110629,14.3433495 113.868747,14.3433495 C113.711435,14.3433495 113.626866,14.3066828 113.626866,14.2221129 C113.626866,14.1617903 113.67536,14.1257151 113.820844,14.1257151 C114.00122,14.1257151 114.146704,14.1014677 114.255522,14.0772204 C114.496812,14.0293172 114.557726,13.7631882 114.60622,13.4130806 C114.665952,12.9050699 114.665952,11.9505538 114.665952,10.8393172 L114.665952,8.71265054 Z M69.8187742,27.1546828 C69.8187742,25.3178011 69.8187742,24.9795215 69.7945269,24.5927473 C69.770871,24.1823172 69.6738817,23.9889301 69.2752796,23.9043602 C69.1782903,23.8801129 68.9730753,23.8682849 68.8039355,23.8682849 C68.670871,23.8682849 68.598129,23.8440376 68.598129,23.7588763 C68.598129,23.6743065 68.6832903,23.6506505 68.8642581,23.6506505 C69.5047419,23.6506505 70.265871,23.6867258 70.5195806,23.6867258 C70.9306022,23.6867258 71.8484516,23.6506505 72.2233978,23.6506505 C72.9845269,23.6506505 73.7941505,23.7228011 74.4464624,24.1698978 C74.7847419,24.3993602 75.2685054,25.0155968 75.2685054,25.8258118 C75.2685054,26.719414 74.8935591,27.541457 73.672914,28.5320484 C74.7486667,29.8851667 75.5825376,30.9609194 76.295172,31.709629 C76.9717312,32.4104355 77.4673226,32.4950054 77.6488817,32.531672 C77.7819462,32.5559194 77.890172,32.5677473 77.9865699,32.5677473 C78.0835591,32.5677473 78.1314624,32.604414 78.1314624,32.6647366 C78.1314624,32.7611344 78.0474839,32.7853817 77.9025914,32.7853817 L76.7540968,32.7853817 C76.078129,32.7853817 75.7759247,32.7250591 75.4618925,32.5559194 C74.9420538,32.2779624 74.4825376,31.709629 73.8059785,30.7793602 C73.3233978,30.1152204 72.7668925,29.2931774 72.610172,29.1122097 C72.5498495,29.0394677 72.4771075,29.0276398 72.3925376,29.0276398 L71.3410323,29.0033925 C71.2807097,29.0033925 71.2446344,29.0276398 71.2446344,29.0997903 L71.2446344,29.2689301 C71.2446344,30.392586 71.2446344,31.3476935 71.304957,31.8551129 C71.3410323,32.2052204 71.4137742,32.4713495 71.7763011,32.5192527 C71.9572688,32.5435 72.2233978,32.5677473 72.3682903,32.5677473 C72.4646882,32.5677473 72.5131828,32.604414 72.5131828,32.6647366 C72.5131828,32.7493065 72.4286129,32.7853817 72.2713011,32.7853817 C71.571086,32.7853817 70.6768925,32.7493065 70.4953333,32.7493065 C70.265871,32.7493065 69.5047419,32.7853817 69.0209785,32.7853817 C68.8642581,32.7853817 68.7796882,32.7493065 68.7796882,32.6647366 C68.7796882,32.604414 68.8281828,32.5677473 68.9730753,32.5677473 C69.154043,32.5677473 69.2995269,32.5435 69.4083441,32.5192527 C69.6496344,32.4713495 69.709957,32.2052204 69.7584516,31.8551129 C69.8187742,31.3476935 69.8187742,30.392586 69.8187742,29.2813495 L69.8187742,27.1546828 Z M80.781457,27.1545645 C80.781457,25.3182742 80.781457,24.9794032 80.7572097,24.592629 C80.7335538,24.1821989 80.6365645,23.9888118 80.2379624,23.9042419 C80.1409731,23.8799946 79.9357581,23.8681667 79.7666183,23.8681667 C79.6341452,23.8681667 79.5614032,23.8439194 79.5614032,23.7593495 C79.5614032,23.6747796 79.6459731,23.6505323 79.8269409,23.6505323 C80.1533925,23.6505323 80.5035,23.6629516 80.8057043,23.6629516 C81.1197366,23.6747796 81.3976935,23.6866075 81.5668333,23.6866075 C81.9536075,23.6866075 84.3582312,23.6866075 84.5882849,23.6747796 C84.8171559,23.6505323 85.010543,23.6262849 85.1069409,23.6020376 C85.1678548,23.5902097 85.2400054,23.5541344 85.3009194,23.5541344 C85.3612419,23.5541344 85.3736613,23.6020376 85.3736613,23.6629516 C85.3736613,23.7469301 85.3127473,23.892414 85.276672,24.4477366 C85.2642527,24.5689731 85.2400054,25.1006398 85.2163495,25.2455323 C85.2045215,25.3058548 85.1796828,25.3785968 85.0951129,25.3785968 C85.010543,25.3785968 84.9862957,25.3182742 84.9862957,25.209457 C84.9862957,25.1248871 84.9744677,24.9190806 84.9135538,24.7741882 C84.8295753,24.5565538 84.7089301,24.4116613 84.1045215,24.3395108 C83.8987151,24.3152634 82.6301667,24.2910161 82.3888763,24.2910161 C82.3279624,24.2910161 82.3037151,24.3270914 82.3037151,24.4116613 L82.3037151,27.4685968 C82.3037151,27.5531667 82.3161344,27.6016613 82.3888763,27.6016613 C82.654414,27.6016613 84.0441989,27.6016613 84.3215645,27.577414 C84.6119409,27.5531667 84.7929086,27.5170914 84.9023172,27.3964462 C84.9862957,27.299457 85.0347903,27.2391344 85.0951129,27.2391344 C85.1436075,27.2391344 85.1796828,27.2633817 85.1796828,27.3361237 C85.1796828,27.4082742 85.1311882,27.6016613 85.0826935,28.2178978 C85.0708656,28.4591882 85.0347903,28.9429516 85.0347903,29.0275215 C85.0347903,29.1245108 85.0347903,29.2569839 84.9259731,29.2569839 C84.8414032,29.2569839 84.8171559,29.2090806 84.8171559,29.1487581 C84.805328,29.0275215 84.805328,28.8702097 84.7686613,28.7134892 C84.7089301,28.4716075 84.5391989,28.2906398 84.0926935,28.2421452 C83.8626398,28.2178978 82.6668333,28.2060699 82.376457,28.2060699 C82.3161344,28.2060699 82.3037151,28.2539731 82.3037151,28.3267151 L82.3037151,29.2812312 C82.3037151,29.6922527 82.2918871,30.8034892 82.3037151,31.1541882 C82.3279624,31.9880591 82.5213495,32.1690269 83.7538226,32.1690269 C84.0684462,32.1690269 84.5758656,32.1690269 84.8898978,32.0241344 C85.2045215,31.8792419 85.349414,31.6255323 85.4333925,31.1299409 C85.4576398,30.9968763 85.4818871,30.9489731 85.566457,30.9489731 C85.6634462,30.9489731 85.6634462,31.045371 85.6634462,31.1660161 C85.6634462,31.4439731 85.566457,32.2660161 85.5061344,32.5073065 C85.4215645,32.8219301 85.3127473,32.8219301 84.8538226,32.8219301 C83.9478011,32.8219301 83.2824785,32.7976828 82.7632312,32.7852634 C82.2439839,32.7610161 81.8690376,32.7491882 81.5065108,32.7491882 C81.3734462,32.7491882 81.1079086,32.7491882 80.8181237,32.7610161 C80.5401667,32.7610161 80.2261344,32.7852634 79.9836613,32.7852634 C79.8269409,32.7852634 79.742371,32.7491882 79.742371,32.6646183 C79.742371,32.6042957 79.7908656,32.567629 79.9357581,32.567629 C80.1167258,32.567629 80.2622097,32.5439731 80.3710269,32.5197258 C80.6123172,32.4712312 80.6726398,32.2056935 80.7211344,31.8549946 C80.781457,31.3475753 80.781457,30.3930591 80.781457,29.2812312 L80.781457,27.1545645 Z M88.2915591,32.2298226 C88.2915591,31.5650914 88.3400538,30.8400376 88.3524731,30.6466505 C88.3637097,30.4656828 88.4003763,30.3326183 88.4973656,30.3326183 C88.6061828,30.3326183 88.6180108,30.4414355 88.6180108,30.5378333 C88.6180108,30.6951452 88.6665054,30.9488548 88.726828,31.1540699 C88.9923656,32.0482634 89.7055914,32.3747151 90.4548925,32.3747151 C91.5418817,32.3747151 92.0741398,31.6372419 92.0741398,30.9973495 C92.0741398,30.4047688 91.8925806,29.8494462 90.8895699,29.0640699 L90.3336559,28.6288011 C89.0041935,27.5897151 88.5452688,26.7440161 88.5452688,25.7646613 C88.5452688,24.4363817 89.6570968,23.4812742 91.3366667,23.4812742 C92.122043,23.4812742 92.6294624,23.6019194 92.944086,23.6864892 C93.0523118,23.7107366 93.1132258,23.7468118 93.1132258,23.8313817 C93.1132258,23.9886935 93.0647312,24.3393925 93.0647312,25.2820806 C93.0647312,25.5476183 93.0280645,25.6440161 92.9316667,25.6440161 C92.8470968,25.6440161 92.8110215,25.5718656 92.8110215,25.4269731 C92.8110215,25.3181559 92.7501075,24.9432097 92.4969892,24.6291774 C92.3154301,24.3997151 91.9647312,24.0371882 91.1793548,24.0371882 C90.2851613,24.0371882 89.7416667,24.5570269 89.7416667,25.2820806 C89.7416667,25.8374032 90.0196237,26.2602527 91.022043,27.0213817 L91.360914,27.2756828 C92.8228495,28.3750914 93.3420968,29.2089624 93.3420968,30.3568656 C93.3420968,31.057672 93.0765591,31.8909516 92.2066129,32.4592849 C91.6027957,32.8460591 90.9256452,32.9542849 90.2851613,32.9542849 C89.5849462,32.9542849 89.0408602,32.8697151 88.5210215,32.6402527 C88.3282258,32.5556828 88.2915591,32.4953602 88.2915591,32.2298226 Z M100.69814,23.4810968 C103.707172,23.4810968 105.580129,25.2334086 105.580129,28.0005591 C105.580129,30.7677097 103.646849,32.9546989 100.577495,32.9546989 C97.110129,32.9546989 95.7085161,30.3566882 95.7085161,28.2181935 C95.7085161,26.1518495 97.0740538,23.4810968 100.69814,23.4810968 Z M108.471473,27.1545645 C108.471473,25.3182742 108.471473,24.9794032 108.447226,24.592629 C108.422978,24.1821989 108.325989,23.9888118 107.927387,23.9042419 C107.830989,23.8799946 107.625183,23.8681667 107.456043,23.8681667 C107.32357,23.8681667 107.250828,23.8439194 107.250828,23.7593495 C107.250828,23.6747796 107.335398,23.6505323 107.516957,23.6505323 C108.157441,23.6505323 108.91857,23.6866075 109.280505,23.6866075 C109.57029,23.6866075 110.332011,23.6505323 110.76728,23.6505323 C110.948839,23.6505323 111.032817,23.6747796 111.032817,23.7593495 C111.032817,23.8439194 110.960075,23.8681667 110.83943,23.8681667 C110.706366,23.8681667 110.634215,23.8799946 110.489323,23.9042419 C110.162871,23.9645645 110.065882,24.170371 110.041634,24.592629 C110.017978,24.9794032 110.017978,25.3182742 110.017978,27.1545645 L110.017978,28.8459624 C110.017978,30.5982742 110.368086,31.3351559 110.960075,31.8189194 C111.504161,32.2660161 112.059484,32.3145108 112.471097,32.3145108 C113.002172,32.3145108 113.655075,32.1447796 114.138247,31.6616075 C114.802978,30.9968763 114.839054,29.9098871 114.839054,28.6649946 L114.839054,27.1545645 C114.839054,25.3182742 114.839054,24.9794032 114.815398,24.592629 C114.791151,24.1821989 114.69357,23.9888118 114.295559,23.9042419 C114.199161,23.8799946 113.993355,23.8681667 113.86029,23.8681667 C113.727817,23.8681667 113.655075,23.8439194 113.655075,23.7593495 C113.655075,23.6747796 113.739054,23.6505323 113.908194,23.6505323 C114.52443,23.6505323 115.286151,23.6866075 115.297978,23.6866075 C115.442871,23.6866075 116.204591,23.6505323 116.675935,23.6505323 C116.844484,23.6505323 116.929645,23.6747796 116.929645,23.7593495 C116.929645,23.8439194 116.856903,23.8681667 116.712011,23.8681667 C116.578946,23.8681667 116.506796,23.8799946 116.361903,23.9042419 C116.035452,23.9645645 115.938462,24.170371 115.914215,24.592629 C115.890559,24.9794032 115.890559,25.3182742 115.890559,27.1545645 L115.890559,28.4479516 C115.890559,29.7886505 115.756903,31.2145108 114.742656,32.084457 C113.884538,32.8219301 113.014591,32.9544032 112.229215,32.9544032 C111.588731,32.9544032 110.429,32.918328 109.546634,32.1205323 C108.930398,31.5652097 108.471473,30.6710161 108.471473,28.9187043 L108.471473,27.1545645 Z M120.426581,27.1546828 C120.426581,25.3178011 120.426581,24.9795215 120.402333,24.5927473 C120.378086,24.1823172 120.281688,23.9889301 119.883086,23.9043602 C119.786097,23.8801129 119.580882,23.8682849 119.411742,23.8682849 C119.278677,23.8682849 119.205935,23.8440376 119.205935,23.7588763 C119.205935,23.6743065 119.291097,23.6506505 119.472065,23.6506505 C120.112548,23.6506505 120.873677,23.6867258 121.127387,23.6867258 C121.538409,23.6867258 122.456258,23.6506505 122.831204,23.6506505 C123.592333,23.6506505 124.401957,23.7228011 125.054269,24.1698978 C125.392548,24.3993602 125.876312,25.0155968 125.876312,25.8258118 C125.876312,26.719414 125.501366,27.541457 124.28072,28.5320484 C125.356473,29.8851667 126.190344,30.9609194 126.902978,31.709629 C127.580129,32.4104355 128.07572,32.4950054 128.256688,32.531672 C128.389753,32.5559194 128.497978,32.5677473 128.594376,32.5677473 C128.691366,32.5677473 128.73986,32.604414 128.73986,32.6647366 C128.73986,32.7611344 128.65529,32.7853817 128.510398,32.7853817 L127.361903,32.7853817 C126.685935,32.7853817 126.383731,32.7250591 126.069699,32.5559194 C125.54986,32.2779624 125.090935,31.709629 124.413785,30.7793602 C123.931204,30.1152204 123.374699,29.2931774 123.217978,29.1122097 C123.157656,29.0394677 123.084914,29.0276398 123.000344,29.0276398 L121.948839,29.0033925 C121.888516,29.0033925 121.852441,29.0276398 121.852441,29.0997903 L121.852441,29.2689301 C121.852441,30.392586 121.852441,31.3476935 121.912763,31.8551129 C121.948839,32.2052204 122.021581,32.4713495 122.384108,32.5192527 C122.565075,32.5435 122.831204,32.5677473 122.976097,32.5677473 C123.072495,32.5677473 123.120989,32.604414 123.120989,32.6647366 C123.120989,32.7493065 123.036419,32.7853817 122.879108,32.7853817 C122.178892,32.7853817 121.284699,32.7493065 121.10314,32.7493065 C120.873677,32.7493065 120.112548,32.7853817 119.628785,32.7853817 C119.472065,32.7853817 119.387495,32.7493065 119.387495,32.6647366 C119.387495,32.604414 119.435989,32.5677473 119.580882,32.5677473 C119.761849,32.5677473 119.907333,32.5435 120.016151,32.5192527 C120.257441,32.4713495 120.317763,32.2052204 120.366258,31.8551129 C120.426581,31.3476935 120.426581,30.392586 120.426581,29.2813495 L120.426581,27.1546828 Z M129.116817,28.0730054 C129.116817,27.2509624 129.370527,25.8256935 130.530258,24.7617688 C131.400204,23.9645645 132.548699,23.4813925 134.348914,23.4813925 C135.097624,23.4813925 135.54472,23.5298871 136.100634,23.6020376 C136.560151,23.6629516 136.946333,23.7711774 137.30886,23.8078441 C137.441925,23.819672 137.490419,23.8799946 137.490419,23.9527366 C137.490419,24.0491344 137.453753,24.1946183 137.429505,24.6168763 C137.405258,25.0160699 137.417677,25.6802097 137.39343,25.9220914 C137.381011,26.1036505 137.356763,26.2000484 137.248538,26.2000484 C137.15214,26.2000484 137.127892,26.1036505 137.127892,25.9345108 C137.115473,25.5595645 136.958753,25.1367151 136.656548,24.8226828 C136.257946,24.3998333 135.315258,24.0733817 134.20343,24.0733817 C133.152516,24.0733817 132.463538,24.3395108 131.932462,24.8226828 C131.049505,25.6323065 130.820634,26.7802097 130.820634,27.9523602 C130.820634,30.8277366 133.007624,32.2535968 134.62628,32.2535968 C135.702032,32.2535968 136.354344,32.1329516 136.838108,31.5770376 C137.042731,31.3475753 137.200043,30.9968763 137.248538,30.7792419 C137.284613,30.5864462 137.30886,30.5379516 137.405258,30.5379516 C137.490419,30.5379516 137.514075,30.6225215 137.514075,30.7189194 C137.514075,30.8638118 137.369183,31.9153172 137.248538,32.3263387 C137.188215,32.5315538 137.13972,32.5918763 136.934505,32.6764462 C136.450742,32.8698333 135.532301,32.9544032 134.759344,32.9544032 C133.104022,32.9544032 131.714237,32.5918763 130.614828,31.6373602 C129.430849,30.5982742 129.116817,29.2451559 129.116817,28.0730054 Z M141.113323,27.1545645 C141.113323,25.3182742 141.113323,24.9794032 141.089075,24.592629 C141.065419,24.1821989 140.96843,23.9888118 140.569828,23.9042419 C140.472839,23.8799946 140.267624,23.8681667 140.098484,23.8681667 C139.966011,23.8681667 139.893269,23.8439194 139.893269,23.7593495 C139.893269,23.6747796 139.977839,23.6505323 140.158806,23.6505323 C140.485258,23.6505323 140.835366,23.6629516 141.13757,23.6629516 C141.451602,23.6747796 141.729559,23.6866075 141.898699,23.6866075 C142.285473,23.6866075 144.690097,23.6866075 144.920151,23.6747796 C145.149022,23.6505323 145.342409,23.6262849 145.438806,23.6020376 C145.49972,23.5902097 145.571871,23.5541344 145.632785,23.5541344 C145.693108,23.5541344 145.705527,23.6020376 145.705527,23.6629516 C145.705527,23.7469301 145.644613,23.892414 145.608538,24.4477366 C145.596118,24.5689731 145.571871,25.1006398 145.548215,25.2455323 C145.536387,25.3058548 145.511548,25.3785968 145.426978,25.3785968 C145.342409,25.3785968 145.318161,25.3182742 145.318161,25.209457 C145.318161,25.1248871 145.306333,24.9190806 145.245419,24.7741882 C145.161441,24.5565538 145.040796,24.4116613 144.436387,24.3395108 C144.230581,24.3152634 142.962032,24.2910161 142.720742,24.2910161 C142.659828,24.2910161 142.635581,24.3270914 142.635581,24.4116613 L142.635581,27.4685968 C142.635581,27.5531667 142.648,27.6016613 142.720742,27.6016613 C142.98628,27.6016613 144.376065,27.6016613 144.65343,27.577414 C144.943806,27.5531667 145.124774,27.5170914 145.234183,27.3964462 C145.318161,27.299457 145.366656,27.2391344 145.426978,27.2391344 C145.475473,27.2391344 145.511548,27.2633817 145.511548,27.3361237 C145.511548,27.4082742 145.463054,27.6016613 145.414559,28.2178978 C145.402731,28.4591882 145.366656,28.9429516 145.366656,29.0275215 C145.366656,29.1245108 145.366656,29.2569839 145.257839,29.2569839 C145.173269,29.2569839 145.149022,29.2090806 145.149022,29.1487581 C145.137194,29.0275215 145.137194,28.8702097 145.100527,28.7134892 C145.040796,28.4716075 144.871065,28.2906398 144.424559,28.2421452 C144.194505,28.2178978 142.998699,28.2060699 142.708323,28.2060699 C142.648,28.2060699 142.635581,28.2539731 142.635581,28.3267151 L142.635581,29.2812312 C142.635581,29.6922527 142.623753,30.8034892 142.635581,31.1541882 C142.659828,31.9880591 142.853215,32.1690269 144.085688,32.1690269 C144.400312,32.1690269 144.907731,32.1690269 145.221763,32.0241344 C145.536387,31.8792419 145.68128,31.6255323 145.765258,31.1299409 C145.789505,30.9968763 145.813753,30.9489731 145.898323,30.9489731 C145.995312,30.9489731 145.995312,31.045371 145.995312,31.1660161 C145.995312,31.4439731 145.898323,32.2660161 145.838,32.5073065 C145.75343,32.8219301 145.644613,32.8219301 145.185688,32.8219301 C144.279667,32.8219301 143.614344,32.7976828 143.095097,32.7852634 C142.575849,32.7610161 142.200903,32.7491882 141.838376,32.7491882 C141.705312,32.7491882 141.439774,32.7491882 141.149989,32.7610161 C140.872032,32.7610161 140.558,32.7852634 140.315527,32.7852634 C140.158806,32.7852634 140.074237,32.7491882 140.074237,32.6646183 C140.074237,32.6042957 140.122731,32.567629 140.267624,32.567629 C140.448591,32.567629 140.594075,32.5439731 140.702892,32.5197258 C140.944183,32.4712312 141.004505,32.2056935 141.053,31.8549946 C141.113323,31.3475753 141.113323,30.3930591 141.113323,29.2812312 L141.113323,27.1545645 Z M148.623957,32.2298226 C148.623957,31.5650914 148.672452,30.8400376 148.684871,30.6466505 C148.696699,30.4656828 148.732774,30.3326183 148.829763,30.3326183 C148.938581,30.3326183 148.950409,30.4414355 148.950409,30.5378333 C148.950409,30.6951452 148.998903,30.9488548 149.059226,31.1540699 C149.324763,32.0482634 150.037989,32.3747151 150.78729,32.3747151 C151.87428,32.3747151 152.406538,31.6372419 152.406538,30.9973495 C152.406538,30.4047688 152.224978,29.8494462 151.221968,29.0640699 L150.666645,28.6288011 C149.336591,27.5897151 148.877667,26.7440161 148.877667,25.7646613 C148.877667,24.4363817 149.989495,23.4812742 151.669065,23.4812742 C152.454441,23.4812742 152.96186,23.6019194 153.276484,23.6864892 C153.38471,23.7107366 153.445624,23.7468118 153.445624,23.8313817 C153.445624,23.9886935 153.397129,24.3393925 153.397129,25.2820806 C153.397129,25.5476183 153.360462,25.6440161 153.264065,25.6440161 C153.180086,25.6440161 153.143419,25.5718656 153.143419,25.4269731 C153.143419,25.3181559 153.082505,24.9432097 152.829387,24.6291774 C152.647828,24.3997151 152.297129,24.0371882 151.511753,24.0371882 C150.617559,24.0371882 150.074065,24.5570269 150.074065,25.2820806 C150.074065,25.8374032 150.352022,26.2602527 151.355032,27.0213817 L151.693312,27.2756828 C153.155247,28.3750914 153.674495,29.2089624 153.674495,30.3568656 C153.674495,31.057672 153.408957,31.8909516 152.539011,32.4592849 C151.935194,32.8460591 151.258043,32.9542849 150.617559,32.9542849 C149.917344,32.9542849 149.373258,32.8697151 148.853419,32.6402527 C148.660624,32.5556828 148.623957,32.4953602 148.623957,32.2298226 Z M69.8186559,45.5967151 C69.8186559,43.7604247 69.8186559,43.4215538 69.7944086,43.035371 C69.7707527,42.6243495 69.6495161,42.418543 69.3839785,42.3582204 C69.250914,42.3221452 69.0936022,42.3103172 68.9487097,42.3103172 C68.8280645,42.3103172 68.7553226,42.2860699 68.7553226,42.1890806 C68.7553226,42.1169301 68.8517204,42.0926828 69.0451075,42.0926828 C69.5046237,42.0926828 70.2657527,42.1287581 70.6164516,42.1287581 C70.9180645,42.1287581 71.6306989,42.0926828 72.0902151,42.0926828 C72.2469355,42.0926828 72.3439247,42.1169301 72.3439247,42.1890806 C72.3439247,42.2860699 72.2711828,42.3103172 72.1505376,42.3103172 C72.0298925,42.3103172 71.9334946,42.3221452 71.7880108,42.3463925 C71.4621505,42.4073065 71.3651613,42.6125215 71.340914,43.035371 C71.3172581,43.4215538 71.3172581,43.7604247 71.3172581,45.5967151 L71.3172581,47.7233817 C71.3172581,48.8955323 71.3172581,49.8500484 71.3651613,50.3698871 C71.401828,50.6957473 71.4858065,50.9133817 71.8489247,50.9618763 C72.0180645,50.9861237 72.2836022,51.0097796 72.4651613,51.0097796 C72.5976344,51.0097796 72.6585484,51.0464462 72.6585484,51.1067688 C72.6585484,51.1913387 72.5615591,51.227414 72.4284946,51.227414 C71.6306989,51.227414 70.8695699,51.1913387 70.5437097,51.1913387 C70.2657527,51.1913387 69.5046237,51.227414 69.0208602,51.227414 C68.8641398,51.227414 68.7795699,51.1913387 68.7795699,51.1067688 C68.7795699,51.0464462 68.8280645,51.0097796 68.972957,51.0097796 C69.1539247,51.0097796 69.2994086,50.9861237 69.4082258,50.9618763 C69.6495161,50.9133817 69.7222581,50.7081667 69.7583333,50.3574677 C69.8186559,49.8500484 69.8186559,48.8955323 69.8186559,47.7233817 L69.8186559,45.5967151 Z M77.0442366,49.5843333 C77.0684839,50.5270215 77.2257957,50.8410538 77.467086,50.9256237 C77.6728925,50.9983656 77.9017634,51.0101935 78.0951505,51.0101935 C78.2282151,51.0101935 78.300957,51.0344409 78.300957,51.1065914 C78.300957,51.2035806 78.1915484,51.227828 78.0224086,51.227828 C77.2376237,51.227828 76.7544516,51.1911613 76.5243978,51.1911613 C76.416172,51.1911613 75.8484301,51.227828 75.2197742,51.227828 C75.0624624,51.227828 74.9536452,51.2154086 74.9536452,51.1065914 C74.9536452,51.0344409 75.0263871,51.0101935 75.1470323,51.0101935 C75.3043441,51.0101935 75.5219785,50.9983656 75.6911183,50.949871 C76.0051505,50.8528817 76.0530538,50.5027742 76.0654731,49.4512688 L76.1736989,42.3343871 C76.1736989,42.0925054 76.2103656,41.9233656 76.3310108,41.9233656 C76.4646667,41.9233656 76.5728925,42.0806774 76.7786989,42.2983118 C76.9235914,42.4550323 78.7598817,44.3883118 80.5240215,46.1406237 C81.3454731,46.9620753 82.9765484,48.7019677 83.1823548,48.8953548 L83.2426774,48.8953548 L83.1220323,43.4704624 C83.1102043,42.7329892 83.0007957,42.5035269 82.7110108,42.3828817 C82.5294516,42.3101398 82.2396667,42.3101398 82.0705269,42.3101398 C81.9256344,42.3101398 81.8777312,42.2740645 81.8777312,42.2013226 C81.8777312,42.1043333 82.0107957,42.0925054 82.1917634,42.0925054 C82.819828,42.0925054 83.3999892,42.129172 83.6536989,42.129172 C83.786172,42.129172 84.2456882,42.0925054 84.8376774,42.0925054 C84.9943978,42.0925054 85.1156344,42.1043333 85.1156344,42.2013226 C85.1156344,42.2740645 85.0428925,42.3101398 84.898,42.3101398 C84.7773548,42.3101398 84.6803656,42.3101398 84.5354731,42.3462151 C84.1977849,42.4432043 84.1007957,42.696914 84.0883763,43.3734731 L83.9559032,50.9983656 C83.9559032,51.2639032 83.9074086,51.3727204 83.7985914,51.3727204 C83.6655269,51.3727204 83.5206344,51.2396559 83.3881613,51.1065914 C82.6264409,50.3815376 81.0799355,48.798957 79.8232151,47.5540645 C78.506172,46.2494409 77.1648817,44.775086 76.9472473,44.5456237 L76.911172,44.5456237 L77.0442366,49.5843333 Z M87.4131559,50.6720323 C87.4131559,50.0073011 87.4616505,49.2822473 87.4740699,49.0888602 C87.4858978,48.9078925 87.5219731,48.774828 87.6189624,48.774828 C87.7277796,48.774828 87.7396075,48.8836452 87.7396075,48.980043 C87.7396075,49.1373548 87.7881022,49.3910645 87.8484247,49.5962796 C88.1139624,50.4904731 88.8271882,50.8169247 89.5764892,50.8169247 C90.6634785,50.8169247 91.1957366,50.0794516 91.1957366,49.4395591 C91.1957366,48.8469785 91.0141774,48.2910645 90.0111667,47.5062796 L89.4552527,47.0710108 C88.1257903,46.0319247 87.6668656,45.1862258 87.6668656,44.2074624 C87.6668656,42.878 88.7786935,41.9234839 90.4582634,41.9234839 C91.2436398,41.9234839 91.7510591,42.044129 92.0656828,42.1286989 C92.1739086,42.1529462 92.2348226,42.1890215 92.2348226,42.2735914 C92.2348226,42.4309032 92.186328,42.7816022 92.186328,43.7242903 C92.186328,43.989828 92.1496613,44.0862258 92.0532634,44.0862258 C91.9686935,44.0862258 91.9326183,44.0140753 91.9326183,43.8691828 C91.9326183,43.7603656 91.8717043,43.3854194 91.618586,43.0713871 C91.4370269,42.8419247 91.086328,42.4793978 90.3009516,42.4793978 C89.4067581,42.4793978 88.8632634,42.9992366 88.8632634,43.7242903 C88.8632634,44.2796129 89.1412204,44.7024624 90.1442312,45.4641828 L90.4825108,45.7178925 C91.9444462,46.8173011 92.4636935,47.651172 92.4636935,48.7990753 C92.4636935,49.4998817 92.1981559,50.3331613 91.3282097,50.9014946 C90.7243925,51.2882688 90.0472419,51.3964946 89.4067581,51.3964946 C88.706543,51.3964946 88.162457,51.3119247 87.6426183,51.0824624 C87.4498226,50.9978925 87.4131559,50.9375699 87.4131559,50.6720323 Z M97.9730376,42.7694194 L96.1722312,42.8173226 C95.4714247,42.8415699 95.1816398,42.9024839 95.000672,43.1680215 C94.8800269,43.3489892 94.8191129,43.4944731 94.7948656,43.590871 C94.7712097,43.6878602 94.734543,43.7357634 94.6618011,43.7357634 C94.5778226,43.7357634 94.5535753,43.6754409 94.5535753,43.5429677 C94.5535753,43.3489892 94.7824462,42.250172 94.8066935,42.1531828 C94.8433602,41.995871 94.8800269,41.9237204 94.9521774,41.9237204 C95.0491667,41.9237204 95.1698118,42.0443656 95.4714247,42.0686129 C95.8221237,42.1046882 96.2816398,42.1289355 96.6796505,42.1289355 L101.464651,42.1289355 C101.852016,42.1289355 102.117554,42.0928602 102.298522,42.0686129 C102.480081,42.0319462 102.576478,42.0082903 102.624973,42.0082903 C102.709543,42.0082903 102.721371,42.0804409 102.721371,42.262 C102.721371,42.5157097 102.685296,43.3489892 102.685296,43.6636129 C102.672876,43.7842581 102.64922,43.857 102.576478,43.857 C102.480081,43.857 102.455833,43.7966774 102.443414,43.6151183 L102.431586,43.4826452 C102.407339,43.1680215 102.080887,42.8297419 101.005726,42.8054946 L99.4834677,42.7694194 L99.4834677,47.7235591 C99.4834677,48.8347957 99.4834677,49.7899032 99.5437903,50.3091505 C99.5798656,50.6474301 99.6526075,50.9135591 100.015134,50.9620538 C100.183683,50.9857097 100.449812,51.009957 100.631371,51.009957 C100.764435,51.009957 100.824167,51.0466237 100.824167,51.1069462 C100.824167,51.1915161 100.727769,51.2275914 100.595296,51.2275914 C99.7975,51.2275914 99.036371,51.1915161 98.6980914,51.1915161 C98.4201344,51.1915161 97.6590054,51.2275914 97.1752419,51.2275914 C97.0185215,51.2275914 96.9339516,51.1915161 96.9339516,51.1069462 C96.9339516,51.0466237 96.9818548,51.009957 97.1267473,51.009957 C97.3083065,51.009957 97.4531989,50.9857097 97.5620161,50.9620538 C97.8038978,50.9135591 97.8760484,50.6474301 97.9121237,50.2973226 C97.9730376,49.7899032 97.9730376,48.8347957 97.9730376,47.7235591 L97.9730376,42.7694194 Z M106.067796,45.5967151 C106.067796,43.7604247 106.067796,43.4215538 106.043548,43.035371 C106.019301,42.6243495 105.898656,42.418543 105.633118,42.3582204 C105.500054,42.3221452 105.342742,42.3103172 105.197849,42.3103172 C105.077204,42.3103172 105.004462,42.2860699 105.004462,42.1890806 C105.004462,42.1169301 105.10086,42.0926828 105.294247,42.0926828 C105.753763,42.0926828 106.514892,42.1287581 106.865591,42.1287581 C107.167204,42.1287581 107.879839,42.0926828 108.339946,42.0926828 C108.496075,42.0926828 108.593065,42.1169301 108.593065,42.1890806 C108.593065,42.2860699 108.520323,42.3103172 108.399677,42.3103172 C108.279032,42.3103172 108.182634,42.3221452 108.037151,42.3463925 C107.71129,42.4073065 107.614301,42.6125215 107.590054,43.035371 C107.565806,43.4215538 107.565806,43.7604247 107.565806,45.5967151 L107.565806,47.7233817 C107.565806,48.8955323 107.565806,49.8500484 107.614301,50.3698871 C107.650968,50.6957473 107.734946,50.9133817 108.098065,50.9618763 C108.267204,50.9861237 108.532742,51.0097796 108.714301,51.0097796 C108.846774,51.0097796 108.907688,51.0464462 108.907688,51.1067688 C108.907688,51.1913387 108.810699,51.227414 108.677634,51.227414 C107.879839,51.227414 107.11871,51.1913387 106.793441,51.1913387 C106.514892,51.1913387 105.753763,51.227414 105.27,51.227414 C105.11328,51.227414 105.02871,51.1913387 105.02871,51.1067688 C105.02871,51.0464462 105.077204,51.0097796 105.222097,51.0097796 C105.403065,51.0097796 105.548548,50.9861237 105.657366,50.9618763 C105.898656,50.9133817 105.971398,50.7081667 106.007473,50.3574677 C106.067796,49.8500484 106.067796,48.8955323 106.067796,47.7233817 L106.067796,45.5967151 Z M114.16829,42.7694194 L112.367484,42.8173226 C111.666677,42.8415699 111.376892,42.9024839 111.195925,43.1680215 C111.07528,43.3489892 111.014366,43.4944731 110.990118,43.590871 C110.966462,43.6878602 110.929796,43.7357634 110.857054,43.7357634 C110.773075,43.7357634 110.748828,43.6754409 110.748828,43.5429677 C110.748828,43.3489892 110.977699,42.250172 111.001946,42.1531828 C111.038613,41.995871 111.07528,41.9237204 111.14743,41.9237204 C111.244419,41.9237204 111.365065,42.0443656 111.666677,42.0686129 C112.017376,42.1046882 112.476892,42.1289355 112.874903,42.1289355 L117.659903,42.1289355 C118.047269,42.1289355 118.312806,42.0928602 118.493774,42.0686129 C118.675333,42.0319462 118.771731,42.0082903 118.820226,42.0082903 C118.904796,42.0082903 118.916624,42.0804409 118.916624,42.262 C118.916624,42.5157097 118.880548,43.3489892 118.880548,43.6636129 C118.868129,43.7842581 118.844473,43.857 118.771731,43.857 C118.675333,43.857 118.651086,43.7966774 118.639258,43.6151183 L118.626839,43.4826452 C118.602591,43.1680215 118.27614,42.8297419 117.200978,42.8054946 L115.67872,42.7694194 L115.67872,47.7235591 C115.67872,48.8347957 115.67872,49.7899032 115.739043,50.3091505 C115.775118,50.6474301 115.84786,50.9135591 116.210387,50.9620538 C116.378935,50.9857097 116.645065,51.009957 116.826624,51.009957 C116.959688,51.009957 117.019419,51.0466237 117.019419,51.1069462 C117.019419,51.1915161 116.923022,51.2275914 116.790548,51.2275914 C115.992753,51.2275914 115.231624,51.1915161 114.893344,51.1915161 C114.615387,51.1915161 113.854258,51.2275914 113.370495,51.2275914 C113.213774,51.2275914 113.129204,51.1915161 113.129204,51.1069462 C113.129204,51.0466237 113.177108,51.009957 113.322,51.009957 C113.503559,51.009957 113.648452,50.9857097 113.757269,50.9620538 C113.999151,50.9135591 114.071301,50.6474301 114.107376,50.2973226 C114.16829,49.7899032 114.16829,48.8347957 114.16829,47.7235591 L114.16829,42.7694194 Z M122.087522,45.5967151 C122.087522,43.7604247 122.087522,43.4215538 122.063274,43.035371 C122.039027,42.6243495 121.942038,42.4309624 121.543435,42.3463925 C121.447038,42.3221452 121.241231,42.3103172 121.072091,42.3103172 C120.939618,42.3103172 120.866876,42.2860699 120.866876,42.2015 C120.866876,42.1169301 120.951446,42.0926828 121.133005,42.0926828 C121.773489,42.0926828 122.534618,42.1287581 122.896554,42.1287581 C123.186339,42.1287581 123.948059,42.0926828 124.383328,42.0926828 C124.564296,42.0926828 124.648866,42.1169301 124.648866,42.2015 C124.648866,42.2860699 124.576124,42.3103172 124.455478,42.3103172 C124.322414,42.3103172 124.250263,42.3221452 124.105371,42.3463925 C123.778919,42.4073065 123.68193,42.6125215 123.657683,43.035371 C123.634027,43.4215538 123.634027,43.7604247 123.634027,45.5967151 L123.634027,47.2881129 C123.634027,49.0404247 123.984134,49.7773065 124.576124,50.2610699 C125.12021,50.7081667 125.675532,50.7566613 126.087145,50.7566613 C126.61822,50.7566613 127.271124,50.5875215 127.754296,50.1037581 C128.419027,49.4396183 128.455102,48.3520376 128.455102,47.1071452 L128.455102,45.5967151 C128.455102,43.7604247 128.455102,43.4215538 128.431446,43.035371 C128.407199,42.6243495 128.309618,42.4309624 127.911608,42.3463925 C127.81521,42.3221452 127.609403,42.3103172 127.476339,42.3103172 C127.343866,42.3103172 127.271124,42.2860699 127.271124,42.2015 C127.271124,42.1169301 127.355102,42.0926828 127.524242,42.0926828 C128.140478,42.0926828 128.901608,42.1287581 128.914027,42.1287581 C129.058919,42.1287581 129.82064,42.0926828 130.291984,42.0926828 C130.460532,42.0926828 130.545694,42.1169301 130.545694,42.2015 C130.545694,42.2860699 130.472952,42.3103172 130.328059,42.3103172 C130.194995,42.3103172 130.122844,42.3221452 129.977952,42.3463925 C129.6515,42.4073065 129.554511,42.6125215 129.530263,43.035371 C129.506608,43.4215538 129.506608,43.7604247 129.506608,45.5967151 L129.506608,46.8901022 C129.506608,48.2308011 129.372952,49.6566613 128.358704,50.5271989 C127.500586,51.2640806 126.63064,51.3965538 125.845263,51.3965538 C125.20478,51.3965538 124.045048,51.3604785 123.162683,50.5632742 C122.546446,50.0073602 122.087522,49.1131667 122.087522,47.3608548 L122.087522,45.5967151 Z M135.853075,42.7694194 L134.052269,42.8173226 C133.351462,42.8415699 133.061677,42.9024839 132.88071,43.1680215 C132.760065,43.3489892 132.699151,43.4944731 132.674903,43.590871 C132.650656,43.6878602 132.614581,43.7357634 132.541839,43.7357634 C132.45786,43.7357634 132.433613,43.6754409 132.433613,43.5429677 C132.433613,43.3489892 132.662484,42.250172 132.686731,42.1531828 C132.723398,41.995871 132.760065,41.9237204 132.832215,41.9237204 C132.929204,41.9237204 133.049849,42.0443656 133.351462,42.0686129 C133.702161,42.1046882 134.161677,42.1289355 134.559688,42.1289355 L139.344688,42.1289355 C139.732054,42.1289355 139.997591,42.0928602 140.178559,42.0686129 C140.360118,42.0319462 140.456516,42.0082903 140.505011,42.0082903 C140.589581,42.0082903 140.601409,42.0804409 140.601409,42.262 C140.601409,42.5157097 140.565333,43.3489892 140.565333,43.6636129 C140.552914,43.7842581 140.529258,43.857 140.456516,43.857 C140.360118,43.857 140.335871,43.7966774 140.324043,43.6151183 L140.311624,43.4826452 C140.287376,43.1680215 139.960925,42.8297419 138.885763,42.8054946 L137.363505,42.7694194 L137.363505,47.7235591 C137.363505,48.8347957 137.363505,49.7899032 137.423828,50.3091505 C137.459903,50.6474301 137.532645,50.9135591 137.895172,50.9620538 C138.064312,50.9857097 138.329849,51.009957 138.511409,51.009957 C138.644473,51.009957 138.704204,51.0466237 138.704204,51.1069462 C138.704204,51.1915161 138.607806,51.2275914 138.475333,51.2275914 C137.677538,51.2275914 136.916409,51.1915161 136.578129,51.1915161 C136.300172,51.1915161 135.539043,51.2275914 135.05528,51.2275914 C134.898559,51.2275914 134.813989,51.1915161 134.813989,51.1069462 C134.813989,51.0466237 134.861892,51.009957 135.006785,51.009957 C135.188344,51.009957 135.333237,50.9857097 135.442054,50.9620538 C135.683935,50.9135591 135.756086,50.6474301 135.792161,50.2973226 C135.853075,49.7899032 135.853075,48.8347957 135.853075,47.7235591 L135.853075,42.7694194 Z M144.028145,45.5967151 C144.028145,43.7604247 144.028145,43.4215538 144.003898,43.035371 C143.979651,42.6243495 143.883253,42.4309624 143.484651,42.3463925 C143.387661,42.3221452 143.182446,42.3103172 143.013306,42.3103172 C142.880833,42.3103172 142.808091,42.2860699 142.808091,42.2015 C142.808091,42.1169301 142.892661,42.0926828 143.073629,42.0926828 C143.400081,42.0926828 143.750188,42.1045108 144.052392,42.1045108 C144.366425,42.1169301 144.644382,42.1287581 144.813522,42.1287581 C145.200296,42.1287581 147.604919,42.1287581 147.834973,42.1169301 C148.063844,42.0926828 148.257231,42.0684355 148.353629,42.0441882 C148.414543,42.0323602 148.486694,41.9962849 148.547608,41.9962849 C148.60793,41.9962849 148.619758,42.0441882 148.619758,42.1045108 C148.619758,42.1890806 148.559435,42.3345645 148.52336,42.8898871 C148.510941,43.0111237 148.486694,43.5427903 148.463038,43.6876828 C148.45121,43.7480054 148.426371,43.8207473 148.341801,43.8207473 C148.257231,43.8207473 148.232984,43.7604247 148.232984,43.6510161 C148.232984,43.5670376 148.221156,43.3612312 148.160242,43.2163387 C148.076263,42.9987043 147.955618,42.8538118 147.35121,42.7816613 C147.145403,42.757414 145.876855,42.7331667 145.635565,42.7331667 C145.574651,42.7331667 145.550403,42.7692419 145.550403,42.8538118 L145.550403,45.9107473 C145.550403,45.9953172 145.562823,46.0438118 145.635565,46.0438118 C145.901102,46.0438118 147.290887,46.0438118 147.568253,46.0195645 C147.858629,45.9953172 148.039597,45.9592419 148.149005,45.8385968 C148.232984,45.7416075 148.281478,45.6812849 148.341801,45.6812849 C148.390296,45.6812849 148.426371,45.7055323 148.426371,45.7782742 C148.426371,45.8504247 148.377876,46.0438118 148.329382,46.6600484 C148.317554,46.9019301 148.281478,47.3851022 148.281478,47.469672 C148.281478,47.5666613 148.281478,47.6991344 148.172661,47.6991344 C148.088091,47.6991344 148.063844,47.6512312 148.063844,47.5909086 C148.052016,47.469672 148.052016,47.3123602 148.015349,47.1556398 C147.955618,46.9137581 147.786478,46.7327903 147.339382,46.6842957 C147.109328,46.6600484 145.913522,46.6482204 145.623145,46.6482204 C145.562823,46.6482204 145.550403,46.6961237 145.550403,46.7688656 L145.550403,47.7233817 C145.550403,48.1344032 145.538575,49.2456398 145.550403,49.5963387 C145.574651,50.4302097 145.768038,50.6111774 147.000511,50.6111774 C147.315134,50.6111774 147.822554,50.6111774 148.136586,50.4662849 C148.45121,50.3213925 148.596102,50.0676828 148.680081,49.5720914 C148.704328,49.4396183 148.728575,49.3911237 148.813145,49.3911237 C148.910134,49.3911237 148.910134,49.4875215 148.910134,49.6081667 C148.910134,49.8861237 148.813145,50.7081667 148.752823,50.949457 C148.668253,51.2640806 148.559435,51.2640806 148.100511,51.2640806 C147.194489,51.2640806 146.529758,51.2398333 146.009919,51.227414 C145.490672,51.2031667 145.115726,51.1913387 144.75379,51.1913387 C144.620134,51.1913387 144.354597,51.1913387 144.064812,51.2031667 C143.786855,51.2031667 143.472823,51.227414 143.230349,51.227414 C143.073629,51.227414 142.989059,51.1913387 142.989059,51.1067688 C142.989059,51.0464462 143.037554,51.0097796 143.182446,51.0097796 C143.363414,51.0097796 143.508898,50.9861237 143.617715,50.9618763 C143.859005,50.9133817 143.919328,50.6478441 143.967823,50.2971452 C144.028145,49.7897258 144.028145,48.8352097 144.028145,47.7233817 L144.028145,45.5967151 Z M86.8440538,5.61904839 C85.4542688,5.61904839 83.8710968,6.39259677 83.8710968,9.40103763 C83.8710968,11.9144785 85.2608817,13.9080806 87.5809355,13.9080806 C88.426043,13.9080806 90.3841613,13.4970591 90.3841613,10.0054462 C90.3841613,7.29861828 88.8252366,5.61904839 86.8440538,5.61904839 Z M96.7439946,9.66698925 C96.7439946,9.80005376 96.7682419,9.84854839 96.8528118,9.88462366 C97.1065215,9.96919355 97.4690484,10.0052688 97.7706613,10.0052688 C98.2544247,10.0052688 98.4111452,9.95677419 98.6287796,9.80005376 C98.9913065,9.53392473 99.3420054,8.97860215 99.3420054,7.98741935 C99.3420054,6.27177419 98.2065215,5.7761828 97.4932957,5.7761828 C97.1910914,5.7761828 96.973457,5.78801075 96.8528118,5.82467742 C96.7682419,5.84892473 96.7439946,5.89741935 96.7439946,5.9938172 L96.7439946,9.66698925 Z M116.176382,10.0415215 C116.176382,11.3224892 116.18821,12.2527581 116.200629,12.4828118 C116.213048,12.7844247 116.237296,13.2675968 116.333694,13.4006613 C116.490414,13.6301237 116.961758,13.8838333 117.916274,13.8838333 C119.148747,13.8838333 119.97079,13.642543 120.695844,13.0138871 C121.468801,12.3491559 121.710683,11.2503387 121.710683,10.0054462 C121.710683,8.47076882 121.070199,7.48017742 120.55036,6.98458602 C119.439124,5.92125269 118.061758,5.77636022 117.11907,5.77636022 C116.87778,5.77636022 116.430683,5.81243548 116.333694,5.86093011 C116.224876,5.90942473 116.18821,5.96974731 116.18821,6.10222043 C116.176382,6.51324194 116.176382,7.56474731 116.176382,8.51926344 L116.176382,10.0415215 Z M71.2446344,28.1091989 C71.2446344,28.2422634 71.2688817,28.2907581 71.3534516,28.3268333 C71.6071613,28.4114032 71.9690968,28.4474785 72.2713011,28.4474785 C72.7550645,28.4474785 72.9117849,28.3989839 73.1300108,28.2422634 C73.4919462,27.9761344 73.8426452,27.4202204 73.8426452,26.429629 C73.8426452,24.7139839 72.7071613,24.2183925 71.9939355,24.2183925 C71.6917312,24.2183925 71.4740968,24.2302204 71.3534516,24.2668871 C71.2688817,24.290543 71.2446344,24.3390376 71.2446344,24.4360269 L71.2446344,28.1091989 Z M100.348624,24.0612581 C98.9588387,24.0612581 97.3756667,24.8348065 97.3756667,27.8432473 C97.3756667,30.3566882 98.7654516,32.3502903 101.085505,32.3502903 C101.930613,32.3502903 103.888731,31.9392688 103.888731,28.4476559 C103.888731,25.740828 102.329806,24.0612581 100.348624,24.0612581 Z M121.852441,28.1091989 C121.852441,28.2422634 121.876688,28.2907581 121.961258,28.3268333 C122.214968,28.4114032 122.577495,28.4474785 122.879108,28.4474785 C123.362871,28.4474785 123.519591,28.3989839 123.737817,28.2422634 C124.099753,27.9761344 124.450452,27.4202204 124.450452,26.429629 C124.450452,24.7139839 123.314968,24.2183925 122.601742,24.2183925 C122.299538,24.2183925 122.081903,24.2302204 121.961258,24.2668871 C121.876688,24.290543 121.852441,24.3390376 121.852441,24.4360269 L121.852441,28.1091989 Z" id="World-Resources-Institute" fill="#FFFFFF"></path>
                </g>
            </g>
        </g>
    </g>
</svg>