<?xml version="1.0" encoding="UTF-8"?>
<svg width="75px" height="75px" viewBox="0 0 75 75" version="1.1" xmlns="http://www.w3.org/2000/svg" xmlns:xlink="http://www.w3.org/1999/xlink">
    <!-- Generator: Sketch 48.1 (47250) - http://www.bohemiancoding.com/sketch -->
    <title>close-modal</title>
    <desc>Created with Sketch.</desc>
    <defs></defs>
    <g id="coral-detail-2" stroke="none" stroke-width="1" fill="none" fill-rule="evenodd" transform="translate(-1171.000000, -453.000000)">
        <g id="Group-5" transform="translate(1171.000000, 453.000000)" fill="#FFFFFF" fill-rule="nonzero">
            <path d="M38.6100929,37.5290169 L51.3224114,50.2413353 L49.9081978,51.6555489 L37.1958793,38.9432304 L24.4835609,51.6555489 L23.0693473,50.2413353 L35.7816658,37.5290169 L23.0955448,24.8428959 L24.5097583,23.4286823 L37.1958793,36.1148033 L49.8820003,23.4286823 L51.2962139,24.8428959 L38.6100929,37.5290169 Z M37.5,75 C16.7893219,75 0,58.2106781 0,37.5 C0,16.7893219 16.7893219,0 37.5,0 C58.2106781,0 75,16.7893219 75,37.5 C75,58.2106781 58.2106781,75 37.5,75 Z M37.5,73 C57.1061086,73 73,57.1061086 73,37.5 C73,17.8938914 57.1061086,2 37.5,2 C17.8938914,2 2,17.8938914 2,37.5 C2,57.1061086 17.8938914,73 37.5,73 Z" id="close-modal"></path>
        </g>
    </g>
</svg>