<?xml version="1.0" encoding="UTF-8"?>
<svg width="106px" height="106px" viewBox="0 0 106 106" version="1.1" xmlns="http://www.w3.org/2000/svg" xmlns:xlink="http://www.w3.org/1999/xlink">
    <!-- Generator: Sketch 47.1 (45422) - http://www.bohemiancoding.com/sketch -->
    <title>Drag_dot</title>
    <desc>Created with Sketch.</desc>
    <defs>
        <circle id="path-1" cx="46" cy="46" r="46"></circle>
        <filter x="-12.5%" y="-10.3%" width="125.0%" height="125.0%" filterUnits="objectBoundingBox" id="filter-2">
            <feOffset dx="0" dy="2" in="SourceAlpha" result="shadowOffsetOuter1"></feOffset>
            <feGaussianBlur stdDeviation="3.5" in="shadowOffsetOuter1" result="shadowBlurOuter1"></feGaussianBlur>
            <feColorMatrix values="0 0 0 0 0   0 0 0 0 0   0 0 0 0 0  0 0 0 0.5 0" type="matrix" in="shadowBlurOuter1"></feColorMatrix>
        </filter>
    </defs>
    <g id="Page-1" stroke="none" stroke-width="1" fill="none" fill-rule="evenodd">
        <g id="WRW_02_05" transform="translate(-697.000000, -449.000000)">
            <g id="Drag_dot" transform="translate(704.000000, 454.000000)">
                <g id="Group-3">
                    <g id="Oval-3">
                        <use fill="black" fill-opacity="1" filter="url(#filter-2)" xlink:href="#path-1"></use>
                        <use fill="#C7184D" fill-rule="evenodd" xlink:href="#path-1"></use>
                    </g>
                    <g id="arrows-24px-glyph-1_minimal-down" transform="translate(13.500000, 46.000000) rotate(-270.000000) translate(-13.500000, -46.000000) translate(8.000000, 43.000000)" fill="#FFFFFF">
                        <path d="M5.53846154,6 C5.42030769,6 5.30215385,5.95476923 5.21215385,5.86476923 L0.270461538,0.923076923 L0.923076923,0.270461538 L5.53846154,4.88584615 L10.1538462,0.270461538 L10.8064615,0.923076923 L5.86476923,5.86476923 C5.77476923,5.95476923 5.65661538,6 5.53846154,6 Z" id="Shape"></path>
                    </g>
                    <g id="arrows-24px-glyph-1_minimal-down" transform="translate(77.666667, 45.833333) scale(-1, 1) rotate(-270.000000) translate(-77.666667, -45.833333) translate(72.166667, 42.833333)" fill="#FFFFFF">
                        <path d="M5.53846154,6 C5.42030769,6 5.30215385,5.95476923 5.21215385,5.86476923 L0.270461538,0.923076923 L0.923076923,0.270461538 L5.53846154,4.88584615 L10.1538462,0.270461538 L10.8064615,0.923076923 L5.86476923,5.86476923 C5.77476923,5.95476923 5.65661538,6 5.53846154,6 Z" id="Shape"></path>
                    </g>
                </g>
                <path d="M40.436,45.272 C40.436,46.130671 40.3000014,46.9119965 40.028,47.616 C39.7559986,48.3200035 39.3720025,48.9226642 38.876,49.424 C38.3799975,49.9253358 37.7853368,50.313332 37.092,50.588 C36.3986632,50.862668 35.6306709,51 34.788,51 L30.5,51 L30.5,39.536 L34.788,39.536 C35.6306709,39.536 36.3986632,39.673332 37.092,39.948 C37.7853368,40.222668 38.3799975,40.6119975 38.876,41.116 C39.3720025,41.6200025 39.7559986,42.2239965 40.028,42.928 C40.3000014,43.6320035 40.436,44.413329 40.436,45.272 Z M38.844,45.272 C38.844,44.5679965 38.748001,43.9386694 38.556,43.384 C38.363999,42.8293306 38.0920018,42.3600019 37.74,41.976 C37.3879982,41.5919981 36.9613358,41.2986677 36.46,41.096 C35.9586642,40.8933323 35.4013364,40.792 34.788,40.792 L32.06,40.792 L32.06,49.744 L34.788,49.744 C35.4013364,49.744 35.9586642,49.6426677 36.46,49.44 C36.9613358,49.2373323 37.3879982,48.9453352 37.74,48.564 C38.0920018,48.1826648 38.363999,47.7146694 38.556,47.16 C38.748001,46.6053306 38.844,45.9760035 38.844,45.272 Z M42.324,51 L42.324,42.896 L43.14,42.896 C43.2946674,42.896 43.401333,42.925333 43.46,42.984 C43.518667,43.042667 43.5586666,43.1439993 43.58,43.288 L43.676,44.552 C43.9533347,43.9866638 44.295998,43.5453349 44.704,43.228 C45.112002,42.9106651 45.5906639,42.752 46.14,42.752 C46.3640011,42.752 46.5666658,42.7773331 46.748,42.828 C46.9293342,42.8786669 47.0973326,42.9493329 47.252,43.04 L47.068,44.104 C47.0306665,44.237334 46.9480006,44.304 46.82,44.304 C46.745333,44.304 46.6306674,44.2786669 46.476,44.228 C46.3213326,44.1773331 46.1053347,44.152 45.828,44.152 C45.3319975,44.152 44.917335,44.2959986 44.584,44.584 C44.250665,44.8720014 43.9720011,45.2906639 43.748,45.84 L43.748,51 L42.324,51 Z M54.724,51 L54.092,51 C53.9533326,51 53.8413338,50.9786669 53.756,50.936 C53.6706662,50.8933331 53.6146668,50.8026674 53.588,50.664 L53.428,49.912 C53.2146656,50.104001 53.0066677,50.2759992 52.804,50.428 C52.6013323,50.5800008 52.3880011,50.7079995 52.164,50.812 C51.9399989,50.9160005 51.7013346,50.9946664 51.448,51.048 C51.1946654,51.1013336 50.9133349,51.128 50.604,51.128 C50.2893318,51.128 49.994668,51.0840004 49.72,50.996 C49.445332,50.9079996 49.2066677,50.7760009 49.004,50.6 C48.8013323,50.4239991 48.6400006,50.2013347 48.52,49.932 C48.3999994,49.6626653 48.34,49.3440018 48.34,48.976 C48.34,48.6559984 48.4279991,48.3480015 48.604,48.052 C48.7800009,47.7559985 49.063998,47.4933345 49.456,47.264 C49.848002,47.0346655 50.3613302,46.8466674 50.996,46.7 C51.6306698,46.5533326 52.4066621,46.4693334 53.324,46.448 L53.324,45.816 C53.324,45.1866635 53.1893347,44.7106683 52.92,44.388 C52.6506653,44.0653317 52.2520026,43.904 51.724,43.904 C51.3773316,43.904 51.0853345,43.9479996 50.848,44.036 C50.6106655,44.1240004 50.4053342,44.2226661 50.232,44.332 C50.0586658,44.4413339 49.909334,44.5399996 49.784,44.628 C49.658666,44.7160004 49.5346673,44.76 49.412,44.76 C49.3159995,44.76 49.2320004,44.7346669 49.16,44.684 C49.0879996,44.6333331 49.0306669,44.570667 48.988,44.496 L48.732,44.04 C49.1800022,43.6079978 49.6626641,43.2853344 50.18,43.072 C50.6973359,42.8586656 51.2706635,42.752 51.9,42.752 C52.3533356,42.752 52.7559982,42.8266659 53.108,42.976 C53.4600018,43.1253341 53.7559988,43.333332 53.996,43.6 C54.2360012,43.866668 54.4173327,44.1893314 54.54,44.568 C54.6626673,44.9466686 54.724,45.3626644 54.724,45.816 L54.724,51 Z M51.028,50.128 C51.2786679,50.128 51.507999,50.1026669 51.716,50.052 C51.924001,50.0013331 52.1199991,49.9293338 52.304,49.836 C52.4880009,49.7426662 52.6639992,49.629334 52.832,49.496 C53.0000008,49.362666 53.1639992,49.2106675 53.324,49.04 L53.324,47.352 C52.6679967,47.3733334 52.110669,47.4253329 51.652,47.508 C51.193331,47.5906671 50.8200014,47.698666 50.532,47.832 C50.2439986,47.965334 50.0346673,48.1226658 49.904,48.304 C49.7733327,48.4853342 49.708,48.6879989 49.708,48.912 C49.708,49.1253344 49.7426663,49.3093326 49.812,49.464 C49.8813337,49.6186674 49.9746661,49.7453328 50.092,49.844 C50.2093339,49.9426672 50.3479992,50.0146664 50.508,50.06 C50.6680008,50.1053336 50.8413324,50.128 51.028,50.128 Z M59.612,42.76 C59.9640018,42.76 60.2933318,42.7986663 60.6,42.876 C60.9066682,42.9533337 61.1853321,43.0666659 61.436,43.216 L63.636,43.216 L63.636,43.744 C63.636,43.9200009 63.5240011,44.0319998 63.3,44.08 L62.38,44.208 C62.5613342,44.5546684 62.652,44.9413312 62.652,45.368 C62.652,45.7626686 62.5760008,46.1213317 62.424,46.444 C62.2719992,46.7666683 62.0613347,47.0426655 61.792,47.272 C61.5226653,47.5013345 61.2026685,47.6773327 60.832,47.8 C60.4613315,47.9226673 60.0546689,47.984 59.612,47.984 C59.2333314,47.984 58.8760017,47.9386671 58.54,47.848 C58.3693325,47.9546672 58.2400004,48.0693327 58.152,48.192 C58.0639996,48.3146673 58.02,48.4346661 58.02,48.552 C58.02,48.744001 58.0973326,48.8893328 58.252,48.988 C58.4066674,49.0866672 58.6119987,49.1573331 58.868,49.2 C59.1240013,49.2426669 59.414665,49.2693333 59.74,49.28 C60.065335,49.2906667 60.3973316,49.3079999 60.736,49.332 C61.0746684,49.3560001 61.406665,49.397333 61.732,49.456 C62.057335,49.514667 62.3479987,49.610666 62.604,49.744 C62.8600013,49.877334 63.0653326,50.0613322 63.22,50.296 C63.3746674,50.5306678 63.452,50.8346648 63.452,51.208 C63.452,51.5546684 63.3653342,51.890665 63.192,52.216 C63.0186658,52.541335 62.769335,52.8306654 62.444,53.084 C62.118665,53.3373346 61.7213357,53.5399992 61.252,53.692 C60.7826643,53.8440008 60.252003,53.92 59.66,53.92 C59.067997,53.92 58.5493356,53.8613339 58.104,53.744 C57.6586644,53.6266661 57.2893348,53.4693343 56.996,53.272 C56.7026652,53.0746657 56.4826674,52.846668 56.336,52.588 C56.1893326,52.329332 56.116,52.0586681 56.116,51.776 C56.116,51.375998 56.2426654,51.0360014 56.496,50.756 C56.7493346,50.4759986 57.0973311,50.2533342 57.54,50.088 C57.3106655,49.9813328 57.1280007,49.8386676 56.992,49.66 C56.8559993,49.4813324 56.788,49.2426682 56.788,48.944 C56.788,48.8266661 56.8093331,48.705334 56.852,48.58 C56.8946669,48.454666 56.9599996,48.3306673 57.048,48.208 C57.1360004,48.0853327 57.2439994,47.9680006 57.372,47.856 C57.5000006,47.7439994 57.6493325,47.6453338 57.82,47.56 C57.419998,47.3359989 57.1066678,47.0386685 56.88,46.668 C56.6533322,46.2973315 56.54,45.8640025 56.54,45.368 C56.54,44.9733314 56.6159992,44.6146683 56.768,44.292 C56.9200008,43.9693317 57.1319986,43.6946678 57.404,43.468 C57.6760014,43.2413322 57.9999981,43.0666673 58.376,42.944 C58.7520019,42.8213327 59.1639978,42.76 59.612,42.76 Z M62.14,51.44 C62.14,51.2373323 62.0840006,51.0746673 61.972,50.952 C61.8599994,50.8293327 61.708001,50.734667 61.516,50.668 C61.323999,50.601333 61.1026679,50.5520002 60.852,50.52 C60.6013321,50.4879998 60.3373347,50.4653334 60.06,50.452 C59.7826653,50.4386666 59.5000014,50.4240001 59.212,50.408 C58.9239986,50.3919999 58.6493346,50.3626669 58.388,50.32 C58.0839985,50.4640007 57.8373343,50.639999 57.648,50.848 C57.4586657,51.056001 57.364,51.3039986 57.364,51.592 C57.364,51.7733342 57.4106662,51.9426659 57.504,52.1 C57.5973338,52.2573341 57.739999,52.3933328 57.932,52.508 C58.124001,52.6226672 58.3653319,52.713333 58.656,52.78 C58.9466681,52.846667 59.2893314,52.88 59.684,52.88 C60.0680019,52.88 60.4119985,52.8453337 60.716,52.776 C61.0200015,52.7066663 61.2773323,52.6080006 61.488,52.48 C61.6986677,52.3519994 61.8599994,52.2000009 61.972,52.024 C62.0840006,51.8479991 62.14,51.6533344 62.14,51.44 Z M59.612,47.04 C59.9000014,47.04 60.1546656,47.0000004 60.376,46.92 C60.5973344,46.8399996 60.7826659,46.7280007 60.932,46.584 C61.0813341,46.4399993 61.193333,46.268001 61.268,46.068 C61.342667,45.867999 61.38,45.6480012 61.38,45.408 C61.38,44.9119975 61.2293348,44.5173348 60.928,44.224 C60.6266652,43.9306652 60.1880029,43.784 59.612,43.784 C59.0413305,43.784 58.6053348,43.9306652 58.304,44.224 C58.0026652,44.5173348 57.852,44.9119975 57.852,45.408 C57.852,45.6480012 57.8906663,45.867999 57.968,46.068 C58.0453337,46.268001 58.1586659,46.4399993 58.308,46.584 C58.4573341,46.7280007 58.6413322,46.8399996 58.86,46.92 C59.0786678,47.0000004 59.3293319,47.04 59.612,47.04 Z" id="Drag" fill="#FFFFFF"></path>
            </g>
        </g>
    </g>
</svg>