<?xml version="1.0" encoding="UTF-8"?>
<svg width="30px" height="32px" viewBox="0 0 30 32" version="1.1" xmlns="http://www.w3.org/2000/svg" xmlns:xlink="http://www.w3.org/1999/xlink">
    <!-- Generator: Sketch 47.1 (45422) - http://www.bohemiancoding.com/sketch -->
    <title>Globe</title>
    <desc>Created with Sketch.</desc>
    <defs>
        <filter x="-31.8%" y="-20.8%" width="163.6%" height="162.5%" filterUnits="objectBoundingBox" id="filter-1">
            <feOffset dx="0" dy="2" in="SourceAlpha" result="shadowOffsetOuter1"></feOffset>
            <feGaussianBlur stdDeviation="2" in="shadowOffsetOuter1" result="shadowBlurOuter1"></feGaussianBlur>
            <feColorMatrix values="0 0 0 0 0   0 0 0 0 0   0 0 0 0 0  0 0 0 0.5 0" type="matrix" in="shadowBlurOuter1" result="shadowMatrixOuter1"></feColorMatrix>
            <feMerge>
                <feMergeNode in="shadowMatrixOuter1"></feMergeNode>
                <feMergeNode in="SourceGraphic"></feMergeNode>
            </feMerge>
        </filter>
    </defs>
    <g id="Page-1" stroke="none" stroke-width="1" fill="none" fill-rule="evenodd">
        <g id="WRW_02_06" transform="translate(-918.000000, -44.000000)" fill="#FFFFFF">
            <g id="Group" transform="translate(922.000000, 46.000000)">
                <g id="Globe" filter="url(#filter-1)">
                    <path d="M19.8,11.4 C19.9,11.9 20,12.5 20,13 C20,14.4 19.7,15.8 19.1,17 C17.1,18.1 16.2,17.5 15.3,16.8 C14.7,16.3 13.8,15.7 12.7,16.1 C11.6,16.5 10.8,17.4 10.3,18.5 C9.9,19.5 9.8,20.8 10,22 C8,21.8 6.2,20.9 4.9,19.6 C5.6,18.1 5.6,16.6 4.7,15.3 C4.5,14.9 4.2,14.6 3.9,14.3 C3.4,13.8 3.6,12.9 4.2,12.6 C5,12.2 5.9,11.8 6.5,11 C7.7,9.2 6.3,6.6 6,6.1 C5.9,6 5.8,5.9 5.7,5.7 C6.7,5 7.8,4.5 9,4.2 C9.1,3.4 9.3,2.7 9.6,2.1 C4.2,2.8 0,7.4 0,13 C0,19.1 4.9,24 11,24 C17.1,24 22,19.1 22,13 C22,11.8 21.8,10.6 21.4,9.4 C20.9,10.1 20.4,10.8 19.8,11.4 Z" id="Shape"></path>
                    <path d="M16,0 C13.5,0 11,1.9 11,5 C11,7.8 14.9,11.4 15.3,11.7 C15.5,11.9 15.7,12 16,12 C16.3,12 16.5,11.9 16.7,11.7 C17.1,11.4 21,7.8 21,5 C21,1.9 18.5,0 16,0 Z M16,7 C14.9,7 14,6.1 14,5 C14,3.9 14.9,3 16,3 C17.1,3 18,3.9 18,5 C18,6.1 17.1,7 16,7 Z" id="Shape"></path>
                </g>
            </g>
        </g>
    </g>
</svg>