<?xml version="1.0" encoding="UTF-8"?>
<svg width="43px" height="44px" viewBox="0 0 43 44" version="1.1" xmlns="http://www.w3.org/2000/svg" xmlns:xlink="http://www.w3.org/1999/xlink">
    <!-- Generator: Sketch 47.1 (45422) - http://www.bohemiancoding.com/sketch -->
    <title>Current</title>
    <desc>Created with Sketch.</desc>
    <defs></defs>
    <g id="Page-1" stroke="none" stroke-width="1" fill="none" fill-rule="evenodd">
        <g id="WRW_02_02" transform="translate(-726.000000, -489.000000)" fill-rule="nonzero" fill="#FFFFFF">
            <g id="Group-3" transform="translate(446.000000, 182.000000)">
                <g id="Current" transform="translate(280.000000, 307.000000)">
                    <g id="Page-1">
                        <path d="M21.7371,41.4742 C10.8363847,41.4742 2.0001,32.6379153 2.0001,21.7372 C2.0001,10.8364847 10.8363847,2.0002 21.7371,2.0002 C25.1726256,2.0002 28.477676,2.87789175 31.4056597,4.52567477 L32.3865403,2.78272523 C29.161046,0.967511951 25.5185203,0.0002 21.7371,0.0002 C9.73181525,0.0002 0.0001,9.73191525 0.0001,21.7372 C0.0001,33.7424847 9.73181525,43.4742 21.7371,43.4742 L21.7371,41.4742 Z" id="Stroke-1"></path>
                        <path d="M31.6504925,4.09018822 C37.9765053,7.65195187 41.9738,14.3443636 41.9738,21.7375 C41.9738,32.9137067 32.9133085,41.9745 21.7368,41.9745 L21.7368,42.9745 C33.4656007,42.9745 42.9738,33.465984 42.9738,21.7375 C42.9738,13.9795756 38.7787129,6.95601278 32.1411075,3.21881178 L31.6504925,4.09018822 Z" id="Stroke-3" fill-opacity="0.35"></path>
                    </g>
                    <path d="M22.1919211,25.775986 C24.3364652,25.775986 26.0749618,24.0388508 26.0749618,21.8959859 C26.0749618,19.753121 24.3364652,18.0159858 22.1919211,18.0159858 C20.0473769,18.0159858 18.3088803,19.753121 18.3088803,21.8959859 C18.3088803,24.0388508 20.0473769,25.775986 22.1919211,25.775986 Z M22.1919211,33.775986 C15.6305012,33.775986 10.3088803,28.4585323 10.3088803,21.8959859 C10.3088803,15.3334395 15.6305012,10.0159858 22.1919211,10.0159858 C28.753341,10.0159858 34.0749618,15.3334395 34.0749618,21.8959859 C34.0749618,28.4585323 28.753341,33.775986 22.1919211,33.775986 Z" id="Oval-2" fill-opacity="0.279608243"></path>
                </g>
            </g>
        </g>
    </g>
</svg>