<svg xmlns="http://www.w3.org/2000/svg" width="194" height="32"><path d="M50.924 15.615c.462-.62.694-1.373.694-2.258 0-.732-.128-1.344-.382-1.834-.256-.49-.599-.879-1.032-1.169s-.936-.513-1.511-.637-1.183-.203-1.823-.203h-4.69v12.608h2.769V17h1.192l2.632 5.122h3.326l-3.201-5.313c.89-.165 1.565-.575 2.027-1.195zm-2.41-1.479a1.31 1.31 0 01-.56.416c-.226.088-.477.091-.756.108s-.542-.024-.791-.024h-1.459v-2.758h1.637c.249 0 .504.022.764.057s.492.106.694.206c.201.101.367.246.498.435s.195.443.195.762c0 .343-.074.609-.222.798zm7.51 2.865h5.538v-2.758h-5.538v-1.97h5.538V9.515h-8.307v12.608h8.703v-2.758h-5.934v-2.364zm14.383-1.519c-.433-.26-.898-.461-1.396-.602s-.964-.283-1.396-.425c-.433-.142-.792-.312-1.076-.514s-.427-.49-.427-.868c0-.236.059-.437.178-.602s.273-.298.462-.398c.19-.1.391-.174.605-.221s.421-.071.623-.071c.344 0 .708.068 1.093.203s.691.346.916.629l1.903-2.072c-.533-.472-1.132-.809-1.796-1.009s-1.352-.301-2.063-.301c-.616 0-1.215.086-1.796.257s-1.093.428-1.538.77c-.445.343-.801.768-1.067 1.276s-.4 1.098-.4 1.771c0 .697.145 1.258.436 1.683s.655.768 1.094 1.028c.438.26.913.466 1.423.62s.984.307 1.422.461.803.34 1.094.558c.29.219.436.517.436.894 0 .225-.057.42-.169.585s-.261.301-.445.407-.392.186-.623.239c-.231.053-.46.08-.685.08-.462 0-.91-.103-1.343-.31s-.792-.498-1.076-.876l-1.974 2.161c.604.555 1.256.957 1.956 1.205s1.458.372 2.276.372c.651 0 1.272-.083 1.858-.248s1.102-.419 1.547-.761.797-.773 1.058-1.294c.261-.52.391-1.128.391-1.824 0-.732-.142-1.317-.427-1.754s-.643-.785-1.076-1.045zm14.076-4.473c-.604-.573-1.322-1.013-2.152-1.32s-1.737-.461-2.721-.461-1.891.154-2.721.461-1.547.747-2.152 1.32-1.076 1.266-1.414 2.082c-.337.814-.507 1.724-.507 2.728s.169 1.913.507 2.728c.338.815.809 1.509 1.414 2.082s1.322 1.013 2.152 1.32c.83.307 1.737.461 2.721.461s1.891-.154 2.721-.461c.83-.307 1.547-.747 2.152-1.32s1.076-1.267 1.415-2.082c.337-.814.507-1.724.507-2.728s-.169-1.913-.507-2.728a5.971 5.971 0 00-1.415-2.082zm-1.236 6.431c-.184.49-.448.915-.792 1.275s-.756.641-1.236.842c-.48.201-1.017.301-1.609.301s-1.129-.1-1.61-.301a3.6 3.6 0 01-2.027-2.117 4.6 4.6 0 01-.276-1.621c0-.578.092-1.116.276-1.612s.447-.924.791-1.284c.344-.36.756-.64 1.236-.842s1.017-.301 1.61-.301c.593 0 1.129.1 1.609.301s.892.481 1.236.842.608.788.792 1.284.276 1.033.276 1.612c0 .591-.092 1.131-.276 1.621zm12.334-.293c0 .39-.027.75-.151 1.081s-.282.617-.507.859c-.225.242-.483.431-.792.567s-.642.204-1.009.204c-.367 0-.707-.068-1.021-.204s-.583-.325-.808-.567c-.225-.242-.472-.528-.596-.859s-.258-.691-.258-1.081V9.514H87.67v7.739c0 .744.182 1.429.407 2.055s.595 1.169 1.04 1.63 1.016.821 1.68 1.08c.664.26 1.443.39 2.321.39.865 0 1.635-.13 2.299-.39s1.22-.62 1.665-1.08c.445-.461.743-1.004.968-1.63s.301-1.311.301-2.055V9.514h-2.769v7.633zm13.854-1.532c.462-.62.693-1.373.693-2.258 0-.732-.128-1.344-.382-1.834-.256-.49-.599-.879-1.032-1.169s-.936-.513-1.511-.637-1.182-.203-1.823-.203h-5.051v12.608h2.769V17h1.554l2.632 5.122h3.326l-3.201-5.313c.89-.165 1.565-.575 2.028-1.195zm-2.41-1.479a1.31 1.31 0 01-.56.416c-.226.088-.477.091-.756.108s-.543-.024-.792-.024h-1.82v-2.758h1.998c.249 0 .504.022.764.057s.493.106.694.206c.201.101.367.246.498.435s.195.443.195.762c0 .343-.074.609-.222.798zm11.8 5.367c-.439.237-.943.355-1.511.355-.498 0-.964-.1-1.396-.301s-.809-.481-1.129-.842c-.32-.36-.572-.785-.756-1.275s-.276-1.03-.276-1.621c0-.578.092-1.116.276-1.612s.438-.924.765-1.284a3.463 3.463 0 012.605-1.143c.521 0 .981.088 1.379.265a2.73 2.73 0 011.005.762l2.134-1.736c-.273-.342-.581-.632-.925-.868s-.702-.426-1.076-.567c-.373-.141-.753-.245-1.138-.31s-.756-.097-1.112-.097c-.984 0-1.891.154-2.721.461s-1.547.747-2.152 1.32-1.076 1.266-1.414 2.082c-.337.814-.507 1.724-.507 2.728s.169 1.913.507 2.728c.338.815.809 1.509 1.414 2.082s1.322 1.013 2.152 1.32c.83.307 1.737.461 2.721.461.865 0 1.707-.177 2.525-.531s1.494-.903 2.028-1.648l-2.312-1.718a3.005 3.005 0 01-1.085.992zm7.215-2.502h5.538v-2.758h-5.538v-1.97h5.934V9.515h-8.703v12.608h9.098v-2.758h-6.329v-2.364zm22.859-7.486l-3.13 11.032h-.036l-3.184-11.032h-1.494l-3.183 11.032h-.036l-3.13-11.032h-1.209l3.663 12.608h1.441l3.184-11.032h.036l3.184 11.032h1.44l3.664-12.608h-1.21zm6.402 0l-5.496 12.608h1.227l1.422-3.546h6.669l1.369 3.546h1.316l-5.3-12.608h-1.209zm-2.383 8.274l2.934-6.873 2.846 6.873h-5.78zm8.724-7.092h4.351v11.426h1.187V10.697h4.351V9.515h-9.889v1.182zm19.855 9.577c-.296.242-.608.443-.934.602s-.661.278-1.005.354a4.555 4.555 0 01-.996.115c-.818 0-1.556-.141-2.214-.425s-1.218-.673-1.68-1.169c-.462-.496-.818-1.08-1.068-1.754s-.373-1.399-.373-2.179.125-1.506.373-2.179c.249-.673.605-1.258 1.068-1.754s1.023-.886 1.68-1.169c.658-.283 1.396-.425 2.214-.425.64 0 1.265.136 1.877.407.61.272 1.111.703 1.502 1.293l.96-.797c-.557-.708-1.207-1.213-1.947-1.515s-1.538-.451-2.392-.451c-.96 0-1.841.165-2.641.496s-1.485.788-2.054 1.373c-.569.585-1.013 1.279-1.334 2.082s-.48 1.683-.48 2.639c0 .956.16 1.84.48 2.648s.765 1.506 1.334 2.091c.569.584 1.254 1.039 2.054 1.364s1.681.487 2.641.487c.925 0 1.784-.177 2.579-.531s1.494-.939 2.098-1.754l-.96-.726a3.854 3.854 0 01-.783.877zm11.791-10.759v5.516h-7.12V9.515h-1.187v12.608h1.187v-5.91h7.12v5.91h1.187V9.515h-1.187zM10.296 5.764L0 16.02l7.268 7.24 10.297-10.256-7.269-7.24zM19.051 11.387l4.161-4.144L16.081.139 11.92 4.283l7.131 7.104zM21.697 26.384l10.297-10.256-7.268-7.24-10.297 10.256 7.268 7.24zM12.943 20.76l-4.16 4.144 7.132 7.104 4.16-4.144-7.132-7.104z"/></svg>
