<!-- Generated by IcoMoon.io -->
<svg version="1.1" xmlns="http://www.w3.org/2000/svg" width="24" height="24" viewBox="0 0 24 24">
<title>cog</title>
<path d="M21.886 14.303c-1.259-2.181-0.502-4.976 1.691-6.246l-2.359-4.085c-0.674 0.395-1.457 0.622-2.294 0.622-2.521 0-4.564-2.056-4.564-4.594h-4.717c0.006 0.783-0.189 1.577-0.608 2.302-1.259 2.181-4.058 2.923-6.254 1.658l-2.358 4.085c0.679 0.386 1.267 0.951 1.684 1.676 1.257 2.177 0.504 4.967-1.681 6.239l2.359 4.085c0.671-0.391 1.451-0.615 2.283-0.615 2.513 0 4.55 2.044 4.563 4.569h4.717c-0.002-0.776 0.194-1.56 0.608-2.279 1.257-2.177 4.049-2.921 6.244-1.664l2.359-4.085c-0.674-0.386-1.259-0.95-1.674-1.669zM12 16.859c-2.683 0-4.859-2.176-4.859-4.859s2.176-4.859 4.859-4.859c2.683 0 4.859 2.176 4.859 4.859s-2.176 4.859-4.859 4.859z"></path>
</svg>
