<!-- Generated by IcoMoon.io -->
<svg version="1.1" xmlns="http://www.w3.org/2000/svg" width="14" height="24" viewBox="0 0 14 24">
<title>drag-dots</title>
<path d="M2.4 9.6c1.325 0 2.4 1.075 2.4 2.4s-1.075 2.4-2.4 2.4c-1.325 0-2.4-1.075-2.4-2.4s1.075-2.4 2.4-2.4z"></path>
<path d="M12 9.6c1.325 0 2.4 1.075 2.4 2.4s-1.075 2.4-2.4 2.4c-1.325 0-2.4-1.075-2.4-2.4s1.075-2.4 2.4-2.4z"></path>
<path d="M2.4 0c1.325 0 2.4 1.075 2.4 2.4s-1.075 2.4-2.4 2.4c-1.325 0-2.4-1.075-2.4-2.4s1.075-2.4 2.4-2.4z"></path>
<path d="M12 0c1.325 0 2.4 1.075 2.4 2.4s-1.075 2.4-2.4 2.4c-1.325 0-2.4-1.075-2.4-2.4s1.075-2.4 2.4-2.4z"></path>
<path d="M2.4 19.2c1.325 0 2.4 1.075 2.4 2.4s-1.075 2.4-2.4 2.4c-1.325 0-2.4-1.075-2.4-2.4s1.075-2.4 2.4-2.4z"></path>
<path d="M12 19.2c1.325 0 2.4 1.075 2.4 2.4s-1.075 2.4-2.4 2.4c-1.325 0-2.4-1.075-2.4-2.4s1.075-2.4 2.4-2.4z"></path>
</svg>
