<!-- Generated by IcoMoon.io -->
<svg version="1.1" xmlns="http://www.w3.org/2000/svg" width="24" height="24" viewBox="0 0 24 24">
<title>filter</title>
<path d="M12 1.5c-5.799 0-10.5 1.469-10.5 3.281v1.969l7.875 7.875v6.563c0 0.725 1.175 1.313 2.625 1.313s2.625-0.588 2.625-1.313v-6.563l7.875-7.875v-1.969c0-1.812-4.701-3.281-10.5-3.281zM3.436 4.347c0.491-0.28 1.181-0.546 1.995-0.769 1.804-0.494 4.137-0.766 6.569-0.766s4.766 0.272 6.569 0.766c0.814 0.223 1.504 0.489 1.995 0.769 0.324 0.185 0.499 0.341 0.58 0.434-0.081 0.093-0.256 0.25-0.58 0.434-0.491 0.28-1.181 0.546-1.995 0.769-1.804 0.494-4.137 0.766-6.569 0.766s-4.766-0.272-6.569-0.766c-0.814-0.223-1.504-0.489-1.995-0.769-0.324-0.185-0.499-0.341-0.58-0.434 0.082-0.093 0.256-0.25 0.58-0.434z"></path>
</svg>
