<!-- Generated by IcoMoon.io -->
<svg version="1.1" xmlns="http://www.w3.org/2000/svg" width="24" height="24" viewBox="0 0 24 24">
<title>filter</title>
<path d="M12 0c-6.627 0-12 1.679-12 3.75v2.25l9 9v7.5c0 0.828 1.343 1.5 3 1.5s3-0.672 3-1.5v-7.5l9-9v-2.25c0-2.071-5.373-3.75-12-3.75zM2.212 3.254c0.561-0.32 1.35-0.624 2.28-0.879 2.061-0.564 4.728-0.875 7.508-0.875s5.447 0.311 7.508 0.875c0.93 0.255 1.719 0.559 2.28 0.879 0.37 0.211 0.57 0.39 0.663 0.496-0.093 0.107-0.293 0.285-0.663 0.496-0.561 0.32-1.35 0.624-2.28 0.879-2.061 0.564-4.728 0.875-7.508 0.875s-5.447-0.311-7.508-0.875c-0.93-0.255-1.719-0.559-2.28-0.879-0.37-0.211-0.57-0.39-0.663-0.496 0.093-0.107 0.293-0.285 0.663-0.496z"></path>
</svg>
