<!-- Generated by IcoMoon.io -->
<svg version="1.1" xmlns="http://www.w3.org/2000/svg" width="10" height="24" viewBox="0 0 10 24">
<title>info</title>
<path d="M1.462 9.645v-0.977c0.287-0.115 0.671-0.235 1.15-0.359s0.987-0.235 1.523-0.331c0.537-0.096 1.068-0.177 1.595-0.244s0.992-0.101 1.394-0.101l0.517 0.345-2.587 12.389h2.012v0.977c-0.249 0.172-0.541 0.335-0.877 0.489s-0.69 0.287-1.064 0.402c-0.374 0.115-0.752 0.206-1.135 0.273s-0.747 0.101-1.092 0.101c-0.728 0-1.231-0.139-1.509-0.417s-0.417-0.58-0.417-0.905c0-0.383 0.029-0.757 0.086-1.121s0.134-0.767 0.23-1.207l1.955-8.911-1.782-0.402zM3.876 3.177c0-0.652 0.22-1.159 0.661-1.523s0.996-0.546 1.667-0.546c0.728 0 1.308 0.182 1.739 0.546s0.647 0.872 0.647 1.523c0 0.613-0.216 1.102-0.647 1.466s-1.011 0.546-1.739 0.546c-0.671 0-1.226-0.182-1.667-0.546s-0.661-0.853-0.661-1.466v0z"></path>
</svg>
