<!-- Generated by IcoMoon.io -->
<svg version="1.1" xmlns="http://www.w3.org/2000/svg" width="13" height="32" viewBox="0 0 13 32">
<title>info2</title>
<path d="M10.536 10.806l-3.924 14.082c-0.231 0.693-0.231 1.385-0.231 1.616s0 0.231 0.231 0.462c0 0.231 0.231 0.231 0.462 0.231s0.462 0 0.693-0.231c0.693-0.462 1.385-1.385 2.078-2.77l0.693 0.462c-2.309 3.232-4.386 5.079-6.695 5.079-0.923 0-1.616-0.231-2.078-0.693s-0.693-1.154-0.693-1.847c0-0.462 0-1.154 0.231-1.847l2.77-9.465c0.462-1.154 0.462-1.847 0.462-2.309 0-0.231-0.231-0.462-0.462-0.693s-0.462-0.231-0.923-0.231c-0.231 0-0.462 0-0.693 0l0.231-0.693z"></path>
<path d="M11.459 7.343c-0.462 0.462-1.154 0.923-2.078 0.923-0.693 0-1.385-0.231-2.078-0.923-0.462-0.693-0.693-1.385-0.693-2.078s0.231-1.385 0.923-2.078c0.462-0.462 1.154-0.923 2.078-0.923s1.616 0.231 2.078 0.923c0.462 0.462 0.693 1.154 0.693 2.078 0 0.693-0.231 1.385-0.923 2.078z"></path>
</svg>
