<!-- Generated by IcoMoon.io -->
<svg version="1.1" xmlns="http://www.w3.org/2000/svg" width="32" height="32" viewBox="0 0 32 32">
<title>item-unknown</title>
<path d="M13.692 29.77v-7.266c0-0.56 0.035-1.127 0.105-1.701s0.189-1.099 0.357-1.575c-0.364 0.392-0.77 0.742-1.218 1.050s-0.924 0.616-1.428 0.924l-6.132 3.57-3.024-4.998 6.132-3.57c0.532-0.308 1.064-0.574 1.596-0.798s1.078-0.392 1.638-0.504c-0.56-0.112-1.106-0.287-1.638-0.525s-1.064-0.511-1.596-0.819l-6.132-3.654 3.024-5.040 6.132 3.696c0.504 0.308 0.987 0.623 1.449 0.945s0.875 0.679 1.239 1.071c-0.336-0.952-0.504-2.030-0.504-3.234v-7.35h6.132v7.266c0 0.588-0.035 1.162-0.105 1.722s-0.189 1.092-0.357 1.596c0.364-0.392 0.77-0.749 1.218-1.071s0.924-0.637 1.428-0.945l6.132-3.612 3.024 5.040-6.132 3.57c-0.56 0.308-1.106 0.574-1.638 0.798s-1.078 0.392-1.638 0.504c0.56 0.112 1.113 0.287 1.659 0.525s1.085 0.511 1.617 0.819l6.132 3.654-3.024 4.998-6.132-3.654c-0.532-0.308-1.022-0.623-1.47-0.945s-0.868-0.679-1.26-1.071c0.364 0.98 0.546 2.058 0.546 3.234v7.35h-6.132z"></path>
</svg>
