<!-- Generated by IcoMoon.io -->
<svg version="1.1" xmlns="http://www.w3.org/2000/svg" width="24" height="24" viewBox="0 0 24 24">
<title>item-unknown</title>
<path fill="#fff" opacity="0.7" d="M10.269 22.328v-5.45c0-0.42 0.026-0.845 0.079-1.276s0.142-0.824 0.268-1.181c-0.273 0.294-0.578 0.556-0.914 0.787s-0.693 0.462-1.071 0.693l-4.599 2.678-2.268-3.749 4.599-2.677c0.399-0.231 0.798-0.431 1.197-0.599s0.808-0.294 1.229-0.378c-0.42-0.084-0.83-0.215-1.229-0.394s-0.798-0.383-1.197-0.614l-4.599-2.741 2.268-3.78 4.599 2.772c0.378 0.231 0.74 0.467 1.087 0.709s0.656 0.509 0.929 0.803c-0.252-0.714-0.378-1.522-0.378-2.426v-5.512h4.599v5.45c0 0.441-0.026 0.872-0.079 1.291s-0.142 0.819-0.268 1.197c0.273-0.294 0.577-0.562 0.913-0.803s0.693-0.478 1.071-0.709l4.599-2.709 2.268 3.78-4.599 2.678c-0.42 0.231-0.829 0.43-1.228 0.598s-0.808 0.294-1.228 0.378c0.42 0.084 0.835 0.215 1.244 0.394s0.814 0.383 1.213 0.614l4.599 2.74-2.268 3.749-4.599-2.741c-0.399-0.231-0.766-0.467-1.102-0.709s-0.651-0.509-0.945-0.803c0.273 0.735 0.409 1.543 0.409 2.425v5.512h-4.599z"></path>
</svg>
