<!-- Generated by IcoMoon.io -->
<svg version="1.1" xmlns="http://www.w3.org/2000/svg" width="26" height="32" viewBox="0 0 26 32">
<title>item-number</title>
<path d="M17.285 23.514l-1.602 8.486h-2.35c-0.416 0-0.777-0.166-1.082-0.499s-0.458-0.742-0.458-1.227c0-0.069 0.003-0.135 0.010-0.198s0.017-0.128 0.031-0.198l1.227-6.365h-4.264l-1.206 6.614c-0.125 0.666-0.409 1.144-0.853 1.435s-0.936 0.437-1.477 0.437h-2.267l1.581-8.486h-2.392c-0.444 0-0.783-0.107-1.019-0.322s-0.354-0.572-0.354-1.071c0-0.194 0.021-0.416 0.062-0.666l0.27-1.643h3.952l1.082-5.741h-4.451l0.395-2.142c0.097-0.527 0.312-0.919 0.645-1.175s0.874-0.385 1.622-0.385h2.309l1.29-6.698c0.111-0.555 0.367-0.985 0.77-1.29s0.874-0.458 1.414-0.458h2.33l-1.581 8.445h4.243l1.602-8.445h2.288c0.485 0 0.881 0.139 1.186 0.416s0.458 0.631 0.458 1.061c0 0.139-0.007 0.243-0.021 0.312l-1.29 6.656h4.222l-0.395 2.142c-0.097 0.527-0.315 0.919-0.655 1.175s-0.877 0.385-1.612 0.385h-2.080l-1.061 5.741h2.954c0.444 0 0.78 0.107 1.009 0.322s0.343 0.579 0.343 1.092c0 0.194-0.021 0.416-0.062 0.666l-0.25 1.622h-4.514zM9.318 19.811h4.264l1.061-5.741h-4.243l-1.082 5.741z"></path>
</svg>
