<!-- Generated by IcoMoon.io -->
<svg version="1.1" xmlns="http://www.w3.org/2000/svg" width="19" height="24" viewBox="0 0 19 24">
<title>item-number</title>
<path fill="#fff" opacity="0.7" d="M12.964 17.635l-1.201 6.365h-1.763c-0.312 0-0.582-0.125-0.811-0.374s-0.343-0.556-0.343-0.92c0-0.052 0.003-0.101 0.008-0.148s0.013-0.096 0.023-0.148l0.92-4.774h-3.198l-0.905 4.961c-0.094 0.499-0.307 0.858-0.64 1.076s-0.702 0.328-1.108 0.328h-1.7l1.186-6.365h-1.794c-0.333 0-0.588-0.081-0.764-0.242s-0.265-0.429-0.265-0.803c0-0.146 0.016-0.312 0.047-0.499l0.203-1.232h2.964l0.811-4.306h-3.338l0.296-1.607c0.073-0.395 0.234-0.689 0.484-0.881s0.655-0.289 1.217-0.289h1.732l0.967-5.023c0.083-0.416 0.276-0.738 0.577-0.967s0.655-0.343 1.061-0.343h1.747l-1.186 6.334h3.182l1.201-6.334h1.716c0.364 0 0.66 0.104 0.889 0.312s0.343 0.473 0.343 0.796c0 0.104-0.005 0.182-0.016 0.234l-0.967 4.992h3.167l-0.296 1.607c-0.073 0.395-0.237 0.689-0.491 0.881s-0.658 0.289-1.209 0.289h-1.56l-0.796 4.306h2.215c0.333 0 0.585 0.081 0.757 0.242s0.257 0.434 0.257 0.819c0 0.146-0.016 0.312-0.047 0.499l-0.187 1.217h-3.385zM6.989 14.858h3.198l0.796-4.306h-3.182l-0.811 4.306z"></path>
</svg>
