<!-- Generated by IcoMoon.io -->
<svg version="1.1" xmlns="http://www.w3.org/2000/svg" width="24" height="24" viewBox="0 0 24 24">
<title>linkedin</title>
<path d="M9 6.75h4.151v2.128h0.059c0.578-1.036 1.991-2.128 4.098-2.128 4.381 0 5.192 2.728 5.192 6.275v7.225h-4.327v-6.405c0-1.528-0.032-3.493-2.251-3.493-2.254 0-2.597 1.663-2.597 3.382v6.516h-4.325v-13.5z"></path>
<path d="M1.5 6.75h4.5v13.5h-4.5v-13.5z"></path>
<path d="M6 3c0 1.243-1.007 2.25-2.25 2.25s-2.25-1.007-2.25-2.25c0-1.243 1.007-2.25 2.25-2.25s2.25 1.007 2.25 2.25z"></path>
</svg>
