<!-- Generated by IcoMoon.io -->
<svg version="1.1" xmlns="http://www.w3.org/2000/svg" width="146" height="24" viewBox="0 0 146 24">
<title>logo</title>
<path d="M38.193 11.711c0.347-0.465 0.521-1.030 0.521-1.694 0-0.549-0.096-1.008-0.286-1.375-0.192-0.368-0.449-0.659-0.774-0.877s-0.702-0.385-1.133-0.478-0.887-0.152-1.367-0.152h-3.517v9.456h2.077v-3.841h0.894l1.974 3.841h2.495l-2.401-3.985c0.667-0.124 1.174-0.431 1.52-0.896v0zM36.386 10.602c-0.111 0.142-0.251 0.245-0.42 0.312s-0.358 0.068-0.567 0.081-0.407-0.018-0.593-0.018h-1.094v-2.069h1.228c0.187 0 0.378 0.017 0.573 0.043s0.369 0.080 0.52 0.155c0.151 0.076 0.275 0.184 0.373 0.326s0.146 0.332 0.146 0.572c0 0.257-0.056 0.457-0.167 0.598zM42.018 12.751h4.153v-2.068h-4.153v-1.478h4.153v-2.069h-6.23v9.456h6.527v-2.068h-4.45v-1.773zM52.805 11.611c-0.325-0.195-0.674-0.346-1.047-0.451s-0.723-0.212-1.047-0.319c-0.325-0.107-0.594-0.234-0.807-0.386s-0.32-0.367-0.32-0.651c0-0.177 0.044-0.328 0.133-0.451s0.205-0.224 0.346-0.299c0.142-0.075 0.293-0.13 0.454-0.166s0.316-0.053 0.467-0.053c0.258 0 0.531 0.051 0.82 0.152s0.518 0.259 0.687 0.472l1.427-1.554c-0.4-0.354-0.849-0.607-1.347-0.757s-1.014-0.226-1.547-0.226c-0.462 0-0.911 0.064-1.347 0.193s-0.82 0.321-1.154 0.577c-0.334 0.257-0.601 0.576-0.8 0.957s-0.3 0.823-0.3 1.328c0 0.523 0.109 0.943 0.327 1.262s0.491 0.576 0.821 0.771c0.329 0.195 0.685 0.349 1.067 0.465s0.738 0.23 1.066 0.346 0.602 0.255 0.82 0.418c0.218 0.164 0.327 0.388 0.327 0.67 0 0.169-0.043 0.315-0.127 0.439s-0.196 0.226-0.334 0.305-0.294 0.14-0.467 0.179c-0.173 0.040-0.345 0.060-0.514 0.060-0.346 0-0.682-0.077-1.007-0.232s-0.594-0.373-0.807-0.657l-1.48 1.621c0.453 0.416 0.942 0.718 1.467 0.904s1.094 0.279 1.707 0.279c0.488 0 0.954-0.062 1.394-0.186s0.827-0.314 1.16-0.571 0.598-0.58 0.794-0.971c0.196-0.39 0.293-0.846 0.293-1.368 0-0.549-0.106-0.988-0.32-1.316s-0.482-0.589-0.807-0.784zM63.362 8.257c-0.453-0.43-0.992-0.76-1.614-0.99s-1.303-0.346-2.041-0.346c-0.738 0-1.418 0.116-2.041 0.346s-1.16 0.56-1.614 0.99-0.807 0.95-1.060 1.562c-0.253 0.611-0.38 1.293-0.38 2.046s0.127 1.435 0.38 2.046c0.253 0.611 0.607 1.132 1.060 1.561s0.992 0.76 1.614 0.99c0.623 0.23 1.303 0.346 2.041 0.346s1.418-0.116 2.041-0.346c0.623-0.23 1.16-0.56 1.614-0.99s0.807-0.95 1.061-1.561c0.253-0.611 0.38-1.293 0.38-2.046s-0.127-1.435-0.38-2.046c-0.253-0.611-0.607-1.132-1.061-1.562zM62.435 13.080c-0.138 0.367-0.336 0.686-0.594 0.956s-0.567 0.481-0.927 0.631c-0.36 0.151-0.763 0.226-1.207 0.226s-0.847-0.075-1.207-0.226-0.669-0.361-0.927-0.631c-0.258-0.27-0.456-0.589-0.593-0.956s-0.207-0.773-0.207-1.216c0-0.433 0.069-0.837 0.207-1.209s0.335-0.693 0.593-0.963c0.258-0.27 0.567-0.48 0.927-0.632s0.763-0.226 1.207-0.226c0.445 0 0.847 0.075 1.207 0.226s0.669 0.361 0.927 0.632c0.258 0.271 0.456 0.591 0.594 0.963s0.207 0.775 0.207 1.209c0 0.443-0.069 0.848-0.207 1.216zM71.686 12.86c0 0.293-0.020 0.563-0.113 0.811s-0.212 0.463-0.38 0.644c-0.169 0.182-0.362 0.323-0.594 0.425s-0.482 0.153-0.757 0.153c-0.275 0-0.53-0.051-0.766-0.153s-0.437-0.244-0.606-0.425c-0.169-0.182-0.354-0.396-0.447-0.644s-0.193-0.518-0.193-0.811v-5.725h-2.077v5.804c0 0.558 0.136 1.072 0.305 1.541s0.446 0.877 0.78 1.222 0.762 0.616 1.26 0.81c0.498 0.195 1.082 0.293 1.741 0.293 0.649 0 1.226-0.098 1.724-0.293s0.915-0.465 1.249-0.81c0.334-0.346 0.557-0.753 0.726-1.222s0.226-0.983 0.226-1.541v-5.804h-2.077v5.725zM82.076 11.711c0.347-0.465 0.52-1.030 0.52-1.694 0-0.549-0.096-1.008-0.287-1.375-0.192-0.368-0.449-0.659-0.774-0.877s-0.702-0.385-1.133-0.478-0.887-0.152-1.367-0.152h-3.788v9.456h2.077v-3.841h1.165l1.974 3.841h2.494l-2.401-3.985c0.667-0.124 1.174-0.431 1.521-0.896zM80.269 10.602c-0.111 0.142-0.251 0.245-0.42 0.312s-0.358 0.068-0.567 0.081-0.407-0.018-0.594-0.018h-1.365v-2.069h1.498c0.187 0 0.378 0.017 0.573 0.043s0.37 0.080 0.521 0.155c0.151 0.076 0.275 0.184 0.373 0.326s0.146 0.332 0.146 0.572c0 0.257-0.056 0.457-0.166 0.598zM89.119 14.627c-0.329 0.178-0.707 0.266-1.133 0.266-0.374 0-0.723-0.075-1.047-0.226s-0.607-0.361-0.847-0.631c-0.24-0.27-0.429-0.589-0.567-0.956s-0.207-0.773-0.207-1.216c0-0.434 0.069-0.837 0.207-1.209s0.329-0.693 0.574-0.963c0.244-0.27 0.533-0.48 0.867-0.632s0.696-0.226 1.087-0.226 0.736 0.066 1.034 0.199c0.298 0.133 0.549 0.323 0.754 0.572l1.601-1.302c-0.205-0.256-0.436-0.474-0.694-0.651s-0.526-0.319-0.807-0.425c-0.28-0.106-0.565-0.184-0.854-0.232s-0.567-0.073-0.834-0.073c-0.738 0-1.418 0.115-2.041 0.346s-1.16 0.56-1.614 0.99-0.807 0.95-1.061 1.562c-0.253 0.61-0.38 1.293-0.38 2.046s0.127 1.435 0.38 2.046c0.254 0.611 0.607 1.132 1.061 1.562s0.992 0.76 1.614 0.99c0.623 0.23 1.303 0.346 2.041 0.346 0.649 0 1.28-0.133 1.894-0.398s1.121-0.677 1.521-1.236l-1.734-1.289c-0.214 0.319-0.484 0.567-0.814 0.744zM94.53 12.751h4.154v-2.068h-4.154v-1.478h4.451v-2.069h-6.527v9.456h6.824v-2.068h-4.747v-1.773zM111.674 7.136l-2.347 8.274h-0.027l-2.388-8.274h-1.121l-2.387 8.274h-0.027l-2.347-8.274h-0.907l2.747 9.456h1.081l2.388-8.274h0.027l2.388 8.274h1.080l2.748-9.456h-0.907zM116.476 7.136l-4.122 9.456h0.92l1.067-2.659h5.002l1.027 2.659h0.987l-3.975-9.456h-0.907zM114.689 13.342l2.201-5.155 2.135 5.155h-4.335zM121.231 8.023h3.263v8.57h0.89v-8.57h3.263v-0.887h-7.417v0.887zM136.123 15.206c-0.222 0.181-0.456 0.332-0.7 0.451s-0.496 0.209-0.754 0.265c-0.258 0.058-0.507 0.086-0.747 0.086-0.614 0-1.167-0.106-1.66-0.319s-0.913-0.505-1.26-0.877c-0.346-0.372-0.614-0.81-0.801-1.316s-0.28-1.049-0.28-1.634 0.094-1.13 0.28-1.634c0.187-0.505 0.454-0.944 0.801-1.316s0.767-0.664 1.26-0.877c0.493-0.212 1.047-0.319 1.66-0.319 0.48 0 0.949 0.102 1.408 0.305 0.458 0.204 0.833 0.527 1.127 0.97l0.72-0.598c-0.418-0.531-0.905-0.91-1.46-1.136s-1.154-0.338-1.794-0.338c-0.72 0-1.381 0.124-1.981 0.372s-1.114 0.591-1.541 1.030c-0.427 0.439-0.76 0.959-1 1.562s-0.36 1.262-0.36 1.979c0 0.717 0.12 1.38 0.36 1.986s0.574 1.13 1 1.568c0.427 0.438 0.94 0.779 1.541 1.023s1.261 0.365 1.981 0.365c0.694 0 1.338-0.133 1.934-0.398s1.121-0.704 1.574-1.316l-0.72-0.544c-0.169 0.257-0.365 0.476-0.587 0.658zM144.966 7.136v4.137h-5.34v-4.137h-0.89v9.456h0.89v-4.432h5.34v4.432h0.89v-9.456h-0.89z"></path>
<path d="M7.722 4.323l-7.722 7.692 5.451 5.43 7.723-7.692-5.452-5.43z"></path>
<path d="M14.288 8.54l3.121-3.108-5.348-5.328-3.121 3.108 5.348 5.328z"></path>
<path d="M16.273 19.788l7.723-7.692-5.451-5.43-7.723 7.692 5.451 5.43z"></path>
<path d="M9.707 15.57l-3.12 3.108 5.349 5.328 3.12-3.108-5.349-5.328z"></path>
</svg>
