<!-- Generated by IcoMoon.io -->
<svg version="1.1" xmlns="http://www.w3.org/2000/svg" width="194" height="32" viewBox="0 0 194 32">
<title>logo</title>
<path d="M50.924 15.615c0.462-0.62 0.694-1.373 0.694-2.258 0-0.732-0.128-1.344-0.382-1.834-0.256-0.49-0.599-0.879-1.032-1.169s-0.936-0.513-1.511-0.637-1.183-0.203-1.823-0.203h-4.69v12.608h2.769v-5.122h1.192l2.632 5.122h3.326l-3.201-5.313c0.89-0.165 1.565-0.575 2.027-1.195v0zM48.514 14.136c-0.148 0.189-0.335 0.327-0.56 0.416-0.226 0.088-0.477 0.091-0.756 0.108s-0.542-0.024-0.791-0.024h-1.459v-2.758h1.637c0.249 0 0.504 0.022 0.764 0.057s0.492 0.106 0.694 0.206c0.201 0.101 0.367 0.246 0.498 0.435s0.195 0.443 0.195 0.762c0 0.343-0.074 0.609-0.222 0.798zM56.024 17.001h5.538v-2.758h-5.538v-1.97h5.538v-2.758h-8.307v12.608h8.703v-2.758h-5.934v-2.364zM70.407 15.482c-0.433-0.26-0.898-0.461-1.396-0.602s-0.964-0.283-1.396-0.425c-0.433-0.142-0.792-0.312-1.076-0.514s-0.427-0.49-0.427-0.868c0-0.236 0.059-0.437 0.178-0.602s0.273-0.298 0.462-0.398c0.19-0.1 0.391-0.174 0.605-0.221s0.421-0.071 0.623-0.071c0.344 0 0.708 0.068 1.093 0.203s0.691 0.346 0.916 0.629l1.903-2.072c-0.533-0.472-1.132-0.809-1.796-1.009s-1.352-0.301-2.063-0.301c-0.616 0-1.215 0.086-1.796 0.257s-1.093 0.428-1.538 0.77c-0.445 0.343-0.801 0.768-1.067 1.276s-0.4 1.098-0.4 1.771c0 0.697 0.145 1.258 0.436 1.683s0.655 0.768 1.094 1.028c0.438 0.26 0.913 0.466 1.423 0.62s0.984 0.307 1.422 0.461 0.803 0.34 1.094 0.558c0.29 0.219 0.436 0.517 0.436 0.894 0 0.225-0.057 0.42-0.169 0.585s-0.261 0.301-0.445 0.407-0.392 0.186-0.623 0.239c-0.231 0.053-0.46 0.080-0.685 0.080-0.462 0-0.91-0.103-1.343-0.31s-0.792-0.498-1.076-0.876l-1.974 2.161c0.604 0.555 1.256 0.957 1.956 1.205s1.458 0.372 2.276 0.372c0.651 0 1.272-0.083 1.858-0.248s1.102-0.419 1.547-0.761 0.797-0.773 1.058-1.294c0.261-0.52 0.391-1.128 0.391-1.824 0-0.732-0.142-1.317-0.427-1.754s-0.643-0.785-1.076-1.045zM84.483 11.009c-0.604-0.573-1.322-1.013-2.152-1.32s-1.737-0.461-2.721-0.461c-0.984 0-1.891 0.154-2.721 0.461s-1.547 0.747-2.152 1.32-1.076 1.266-1.414 2.082c-0.337 0.814-0.507 1.724-0.507 2.728s0.169 1.913 0.507 2.728c0.338 0.815 0.809 1.509 1.414 2.082s1.322 1.013 2.152 1.32c0.83 0.307 1.737 0.461 2.721 0.461s1.891-0.154 2.721-0.461c0.83-0.307 1.547-0.747 2.152-1.32s1.076-1.267 1.415-2.082c0.337-0.814 0.507-1.724 0.507-2.728s-0.169-1.913-0.507-2.728c-0.338-0.815-0.809-1.509-1.415-2.082zM83.247 17.44c-0.184 0.49-0.448 0.915-0.792 1.275s-0.756 0.641-1.236 0.842c-0.48 0.201-1.017 0.301-1.609 0.301s-1.129-0.1-1.61-0.301-0.892-0.481-1.236-0.842c-0.344-0.36-0.608-0.785-0.791-1.275s-0.276-1.030-0.276-1.621c0-0.578 0.092-1.116 0.276-1.612s0.447-0.924 0.791-1.284c0.344-0.36 0.756-0.64 1.236-0.842s1.017-0.301 1.61-0.301c0.593 0 1.129 0.1 1.609 0.301s0.892 0.481 1.236 0.842c0.344 0.361 0.608 0.788 0.792 1.284s0.276 1.033 0.276 1.612c0 0.591-0.092 1.131-0.276 1.621zM95.581 17.147c0 0.39-0.027 0.75-0.151 1.081s-0.282 0.617-0.507 0.859c-0.225 0.242-0.483 0.431-0.792 0.567s-0.642 0.204-1.009 0.204c-0.367 0-0.707-0.068-1.021-0.204s-0.583-0.325-0.808-0.567c-0.225-0.242-0.472-0.528-0.596-0.859s-0.258-0.691-0.258-1.081v-7.633h-2.769v7.739c0 0.744 0.182 1.429 0.407 2.055s0.595 1.169 1.040 1.63 1.016 0.821 1.68 1.080c0.664 0.26 1.443 0.39 2.321 0.39 0.865 0 1.635-0.13 2.299-0.39s1.22-0.62 1.665-1.080c0.445-0.461 0.743-1.004 0.968-1.63s0.301-1.311 0.301-2.055v-7.739h-2.769v7.633zM109.435 15.615c0.462-0.62 0.693-1.373 0.693-2.258 0-0.732-0.128-1.344-0.382-1.834-0.256-0.49-0.599-0.879-1.032-1.169s-0.936-0.513-1.511-0.637-1.182-0.203-1.823-0.203h-5.051v12.608h2.769v-5.122h1.554l2.632 5.122h3.326l-3.201-5.313c0.89-0.165 1.565-0.575 2.028-1.195zM107.025 14.136c-0.148 0.189-0.335 0.327-0.56 0.416-0.226 0.088-0.477 0.091-0.756 0.108s-0.543-0.024-0.792-0.024h-1.82v-2.758h1.998c0.249 0 0.504 0.022 0.764 0.057s0.493 0.106 0.694 0.206c0.201 0.101 0.367 0.246 0.498 0.435s0.195 0.443 0.195 0.762c0 0.343-0.074 0.609-0.222 0.798zM118.825 19.503c-0.439 0.237-0.943 0.355-1.511 0.355-0.498 0-0.964-0.1-1.396-0.301s-0.809-0.481-1.129-0.842c-0.32-0.36-0.572-0.785-0.756-1.275s-0.276-1.030-0.276-1.621c0-0.578 0.092-1.116 0.276-1.612s0.438-0.924 0.765-1.284c0.326-0.36 0.711-0.64 1.156-0.842s0.928-0.301 1.449-0.301 0.981 0.088 1.379 0.265c0.397 0.178 0.732 0.431 1.005 0.762l2.134-1.736c-0.273-0.342-0.581-0.632-0.925-0.868s-0.702-0.426-1.076-0.567c-0.373-0.141-0.753-0.245-1.138-0.31s-0.756-0.097-1.112-0.097c-0.984 0-1.891 0.154-2.721 0.461s-1.547 0.747-2.152 1.32-1.076 1.266-1.414 2.082c-0.337 0.814-0.507 1.724-0.507 2.728s0.169 1.913 0.507 2.728c0.338 0.815 0.809 1.509 1.414 2.082s1.322 1.013 2.152 1.32c0.83 0.307 1.737 0.461 2.721 0.461 0.865 0 1.707-0.177 2.525-0.531s1.494-0.903 2.028-1.648l-2.312-1.718c-0.285 0.425-0.646 0.756-1.085 0.992zM126.040 17.001h5.538v-2.758h-5.538v-1.97h5.934v-2.758h-8.703v12.608h9.098v-2.758h-6.329v-2.364zM148.899 9.515l-3.13 11.032h-0.036l-3.184-11.032h-1.494l-3.183 11.032h-0.036l-3.13-11.032h-1.209l3.663 12.608h1.441l3.184-11.032h0.036l3.184 11.032h1.44l3.664-12.608h-1.21zM155.301 9.515l-5.496 12.608h1.227l1.422-3.546h6.669l1.369 3.546h1.316l-5.3-12.608h-1.209zM152.918 17.789l2.934-6.873 2.846 6.873h-5.78zM161.642 10.697h4.351v11.426h1.187v-11.426h4.351v-1.182h-9.889v1.182zM181.497 20.274c-0.296 0.242-0.608 0.443-0.934 0.602s-0.661 0.278-1.005 0.354c-0.344 0.077-0.676 0.115-0.996 0.115-0.818 0-1.556-0.141-2.214-0.425s-1.218-0.673-1.68-1.169c-0.462-0.496-0.818-1.080-1.068-1.754s-0.373-1.399-0.373-2.179 0.125-1.506 0.373-2.179c0.249-0.673 0.605-1.258 1.068-1.754s1.023-0.886 1.68-1.169c0.658-0.283 1.396-0.425 2.214-0.425 0.64 0 1.265 0.136 1.877 0.407 0.61 0.272 1.111 0.703 1.502 1.293l0.96-0.797c-0.557-0.708-1.207-1.213-1.947-1.515s-1.538-0.451-2.392-0.451c-0.96 0-1.841 0.165-2.641 0.496s-1.485 0.788-2.054 1.373c-0.569 0.585-1.013 1.279-1.334 2.082s-0.48 1.683-0.48 2.639c0 0.956 0.16 1.84 0.48 2.648s0.765 1.506 1.334 2.091c0.569 0.584 1.254 1.039 2.054 1.364s1.681 0.487 2.641 0.487c0.925 0 1.784-0.177 2.579-0.531s1.494-0.939 2.098-1.754l-0.96-0.726c-0.225 0.343-0.487 0.635-0.783 0.877zM193.288 9.515v5.516h-7.12v-5.516h-1.187v12.608h1.187v-5.91h7.12v5.91h1.187v-12.608h-1.187z"></path>
<path d="M10.296 5.764l-10.296 10.256 7.268 7.24 10.297-10.256-7.269-7.24z"></path>
<path d="M19.051 11.387l4.161-4.144-7.131-7.104-4.161 4.144 7.131 7.104z"></path>
<path d="M21.697 26.384l10.297-10.256-7.268-7.24-10.297 10.256 7.268 7.24z"></path>
<path d="M12.943 20.76l-4.16 4.144 7.132 7.104 4.16-4.144-7.132-7.104z"></path>
</svg>
