<!-- Generated by IcoMoon.io -->
<svg version="1.1" xmlns="http://www.w3.org/2000/svg" width="145" height="24" viewBox="0 0 145 24">
<title>logo-cms</title>
<path d="M34.62 19.49c-0.035 0-0.071 0.016-0.108 0.048-0.083 0.072-0.166 0.135-0.248 0.187s-0.171 0.095-0.266 0.129c-0.095 0.034-0.199 0.059-0.311 0.075s-0.238 0.024-0.378 0.024c-0.23 0-0.445-0.040-0.644-0.121s-0.372-0.199-0.518-0.353c-0.146-0.154-0.261-0.344-0.345-0.567s-0.127-0.478-0.127-0.764c0-0.277 0.042-0.527 0.127-0.751s0.202-0.413 0.353-0.569c0.151-0.156 0.331-0.275 0.541-0.36s0.44-0.126 0.692-0.126c0.14 0 0.264 0.010 0.371 0.030s0.202 0.045 0.283 0.075c0.081 0.030 0.151 0.062 0.21 0.096s0.111 0.066 0.154 0.096c0.044 0.030 0.082 0.055 0.113 0.075s0.062 0.030 0.090 0.030c0.037 0 0.066-0.007 0.085-0.021s0.037-0.031 0.053-0.053l0.207-0.284c-0.195-0.179-0.418-0.321-0.669-0.425s-0.549-0.157-0.896-0.157c-0.351 0-0.671 0.057-0.961 0.171s-0.54 0.274-0.748 0.481c-0.208 0.207-0.37 0.454-0.485 0.742s-0.173 0.604-0.173 0.949c0 0.345 0.054 0.662 0.161 0.949s0.259 0.534 0.454 0.74c0.195 0.206 0.431 0.365 0.707 0.479s0.584 0.171 0.924 0.171c0.388 0 0.719-0.061 0.994-0.182s0.509-0.291 0.702-0.508l-0.25-0.265c-0.028-0.028-0.060-0.042-0.095-0.042zM40.022 18.148c0 0.343-0.056 0.658-0.168 0.945s-0.269 0.533-0.473 0.74c-0.204 0.207-0.449 0.367-0.735 0.481s-0.602 0.171-0.948 0.171c-0.346 0-0.662-0.057-0.947-0.171s-0.529-0.274-0.733-0.481c-0.204-0.207-0.362-0.453-0.473-0.74s-0.168-0.601-0.168-0.945c0-0.343 0.056-0.658 0.168-0.945s0.269-0.534 0.473-0.742c0.204-0.208 0.448-0.369 0.733-0.484s0.6-0.173 0.947-0.173c0.346 0 0.662 0.058 0.948 0.173s0.531 0.276 0.735 0.484c0.204 0.208 0.362 0.455 0.473 0.742s0.168 0.601 0.168 0.945zM39.368 18.148c0-0.281-0.039-0.534-0.118-0.758s-0.191-0.413-0.335-0.567c-0.145-0.155-0.32-0.273-0.526-0.356s-0.436-0.125-0.69-0.125c-0.252 0-0.481 0.042-0.687 0.125s-0.382 0.202-0.527 0.356c-0.146 0.154-0.258 0.344-0.337 0.567s-0.118 0.476-0.118 0.758c0 0.281 0.039 0.533 0.118 0.756s0.191 0.411 0.337 0.566c0.146 0.154 0.322 0.273 0.527 0.355s0.435 0.123 0.687 0.123c0.254 0 0.484-0.041 0.69-0.123s0.381-0.2 0.526-0.355c0.145-0.154 0.256-0.343 0.335-0.566s0.118-0.475 0.118-0.756zM41.066 15.856h-0.329v4.581h0.559v-3.264c0-0.043-0.001-0.090-0.003-0.141s-0.005-0.103-0.010-0.157l2.725 3.449c0.033 0.040 0.066 0.069 0.1 0.086s0.076 0.026 0.127 0.026h0.322v-4.581h-0.559v3.244c0 0.049 0.001 0.1 0.003 0.152s0.007 0.106 0.013 0.161l-2.728-3.452c-0.035-0.043-0.066-0.071-0.094-0.085s-0.070-0.021-0.127-0.021zM48.758 15.856h-3.687v0.521h1.528v4.060h0.638v-4.060h1.522v-0.521zM52.175 15.856h-2.902v4.581h2.902v-0.505h-2.261v-1.563h1.831v-0.486h-1.831v-1.522h2.261v-0.505zM53.265 15.856h-0.329v4.581h0.559v-3.264c0-0.043-0.001-0.090-0.003-0.141s-0.005-0.103-0.010-0.157l2.725 3.449c0.033 0.040 0.066 0.069 0.1 0.086s0.076 0.026 0.127 0.026h0.322v-4.581h-0.559v3.244c0 0.049 0.001 0.1 0.003 0.152s0.007 0.106 0.013 0.161l-2.728-3.452c-0.035-0.043-0.066-0.071-0.094-0.085s-0.070-0.021-0.127-0.021zM60.957 15.856h-3.687v0.521h1.528v4.060h0.638v-4.060h1.522v-0.521zM64.902 18.781l-1.627-2.819c-0.028-0.049-0.058-0.079-0.089-0.090s-0.074-0.016-0.131-0.016h-0.47v4.581h0.559v-3.366c0-0.045-0.002-0.094-0.005-0.147s-0.008-0.108-0.015-0.163l1.65 2.874c0.055 0.096 0.131 0.144 0.23 0.144h0.092c0.099 0 0.175-0.048 0.23-0.144l1.614-2.864c-0.004 0.053-0.008 0.105-0.010 0.157s-0.003 0.099-0.003 0.144v3.366h0.559v-4.581h-0.47c-0.057 0-0.101 0.005-0.131 0.016s-0.060 0.040-0.089 0.090l-1.594 2.816c-0.031 0.055-0.058 0.11-0.082 0.165s-0.047 0.111-0.069 0.171c-0.022-0.058-0.044-0.115-0.067-0.171s-0.050-0.11-0.081-0.161zM72.351 20.437h-0.493c-0.057 0-0.103-0.014-0.138-0.042s-0.061-0.063-0.079-0.105l-0.44-1.106h-2.113l-0.44 1.106c-0.015 0.038-0.042 0.072-0.079 0.102s-0.083 0.045-0.138 0.045h-0.493l1.883-4.581h0.647l1.883 4.581zM69.265 18.736h1.758l-0.739-1.864c-0.048-0.115-0.095-0.259-0.141-0.432-0.024 0.087-0.048 0.168-0.071 0.241s-0.045 0.138-0.067 0.193l-0.739 1.86zM73.119 15.856h-0.329v4.581h0.559v-3.264c0-0.043-0.001-0.090-0.003-0.141s-0.005-0.103-0.010-0.157l2.725 3.449c0.033 0.040 0.066 0.069 0.1 0.086s0.076 0.026 0.127 0.026h0.322v-4.581h-0.559v3.244c0 0.049 0.001 0.1 0.003 0.152s0.007 0.106 0.013 0.161l-2.728-3.452c-0.035-0.043-0.066-0.071-0.094-0.085s-0.070-0.021-0.127-0.021zM81.479 20.437h-0.493c-0.057 0-0.103-0.014-0.138-0.042s-0.061-0.063-0.079-0.105l-0.44-1.106h-2.113l-0.44 1.106c-0.015 0.038-0.042 0.072-0.079 0.102s-0.083 0.045-0.138 0.045h-0.493l1.883-4.581h0.647l1.883 4.581zM78.393 18.736h1.758l-0.739-1.864c-0.048-0.115-0.095-0.259-0.141-0.432-0.024 0.087-0.048 0.168-0.071 0.241s-0.045 0.138-0.067 0.193l-0.739 1.86zM83.88 19.986c-0.254 0-0.486-0.042-0.697-0.125s-0.392-0.204-0.546-0.361c-0.153-0.158-0.272-0.35-0.357-0.577s-0.127-0.485-0.127-0.775c0-0.277 0.041-0.527 0.122-0.75s0.197-0.412 0.348-0.569c0.151-0.157 0.334-0.277 0.549-0.361s0.455-0.126 0.72-0.126c0.182 0 0.339 0.014 0.472 0.042s0.248 0.061 0.345 0.101c0.097 0.039 0.18 0.080 0.248 0.123s0.129 0.079 0.184 0.109c0.042 0.023 0.080 0.035 0.115 0.035 0.059 0 0.107-0.029 0.145-0.086l0.181-0.281c-0.101-0.090-0.209-0.17-0.325-0.241s-0.243-0.132-0.38-0.182c-0.137-0.050-0.285-0.088-0.445-0.115s-0.333-0.040-0.519-0.040c-0.368 0-0.701 0.056-0.997 0.169s-0.55 0.272-0.759 0.478c-0.209 0.206-0.37 0.452-0.483 0.74s-0.169 0.606-0.169 0.956c0 0.345 0.058 0.662 0.173 0.949s0.276 0.534 0.481 0.74c0.206 0.206 0.451 0.365 0.736 0.479s0.598 0.171 0.94 0.171c0.195 0 0.376-0.010 0.542-0.030s0.323-0.051 0.468-0.093c0.146-0.042 0.283-0.093 0.411-0.155s0.251-0.134 0.37-0.217v-1.758h-1.446v0.352c0 0.034 0.013 0.063 0.038 0.086s0.059 0.035 0.1 0.035h0.73v1.010c-0.083 0.043-0.167 0.080-0.25 0.113s-0.172 0.061-0.266 0.085c-0.094 0.023-0.194 0.041-0.301 0.053s-0.223 0.018-0.35 0.018zM89.351 15.856h-2.902v4.581h2.902v-0.505h-2.261v-1.563h1.831v-0.486h-1.831v-1.522h2.261v-0.505zM90.812 18.525h0.483c0.088 0 0.153 0.011 0.197 0.034s0.084 0.059 0.122 0.11l1.223 1.637c0.055 0.087 0.14 0.131 0.256 0.131h0.565l-1.374-1.819c-0.061-0.085-0.131-0.15-0.21-0.195 0.182-0.040 0.345-0.1 0.488-0.179s0.265-0.174 0.365-0.286c0.1-0.112 0.176-0.238 0.228-0.379s0.079-0.292 0.079-0.454c0-0.194-0.034-0.369-0.102-0.526s-0.173-0.29-0.314-0.401c-0.141-0.111-0.32-0.196-0.537-0.254s-0.474-0.088-0.772-0.088h-1.331v4.581h0.634v-1.912zM90.812 18.074v-1.729h0.697c0.366 0 0.641 0.069 0.827 0.208s0.278 0.344 0.278 0.617c0 0.134-0.024 0.257-0.072 0.368s-0.12 0.206-0.215 0.286c-0.095 0.080-0.214 0.142-0.355 0.185s-0.305 0.066-0.491 0.066h-0.667zM37.545 7.163c-0.345 0.468-0.848 0.777-1.512 0.902l2.387 4.012h-2.48l-1.962-3.867h-0.889v3.867h-2.065v-9.52h3.497c0.478 0 0.931 0.059 1.359 0.153s0.804 0.262 1.127 0.481c0.323 0.219 0.579 0.513 0.77 0.883s0.285 0.831 0.285 1.385c0 0.669-0.173 1.237-0.517 1.705zM41.348 8.21v1.785h4.424v2.082h-6.489v-9.52h6.194v2.082h-4.13v1.487h4.13v2.082h-4.13zM52.073 7.063c0.323 0.196 0.59 0.459 0.802 0.789s0.318 0.771 0.318 1.324c0 0.526-0.097 0.985-0.292 1.377s-0.458 0.718-0.789 0.977-0.716 0.45-1.154 0.575c-0.437 0.125-0.9 0.187-1.386 0.187-0.61 0-1.176-0.094-1.698-0.281s-1.008-0.491-1.459-0.91l1.472-1.631c0.212 0.285 0.48 0.506 0.802 0.662s0.656 0.234 1.001 0.234c0.168 0 0.338-0.020 0.511-0.060s0.327-0.1 0.464-0.181 0.247-0.182 0.332-0.307c0.084-0.125 0.126-0.272 0.126-0.442 0-0.285-0.109-0.51-0.325-0.675s-0.488-0.306-0.816-0.421-0.681-0.232-1.061-0.348c-0.38-0.116-0.734-0.272-1.061-0.468s-0.599-0.455-0.816-0.776c-0.217-0.321-0.325-0.745-0.325-1.271 0-0.508 0.099-0.954 0.298-1.338s0.464-0.704 0.796-0.963c0.332-0.258 0.714-0.452 1.147-0.582s0.88-0.194 1.339-0.194c0.53 0 1.043 0.076 1.538 0.228s0.942 0.406 1.339 0.762l-1.419 1.565c-0.168-0.214-0.396-0.372-0.683-0.475s-0.559-0.154-0.815-0.154c-0.15 0-0.305 0.018-0.464 0.053s-0.309 0.092-0.451 0.167c-0.141 0.076-0.256 0.176-0.345 0.301s-0.132 0.277-0.132 0.455c0 0.286 0.106 0.504 0.318 0.655s0.479 0.281 0.802 0.388c0.322 0.107 0.67 0.214 1.041 0.321s0.718 0.259 1.041 0.455zM62.569 3.686c0.451 0.433 0.803 0.956 1.055 1.572s0.378 1.302 0.378 2.060c0 0.758-0.126 1.445-0.378 2.060s-0.603 1.139-1.055 1.572c-0.451 0.433-0.985 0.765-1.604 0.996s-1.295 0.348-2.029 0.348c-0.734 0-1.41-0.116-2.029-0.348s-1.154-0.564-1.605-0.996-0.802-0.956-1.055-1.572c-0.252-0.615-0.378-1.302-0.378-2.060s0.126-1.445 0.378-2.060c0.252-0.616 0.603-1.139 1.055-1.572s0.985-0.765 1.605-0.997c0.619-0.232 1.295-0.348 2.029-0.348s1.41 0.116 2.029 0.348c0.619 0.232 1.154 0.564 1.604 0.997zM70.844 8.32v-5.763h2.065v5.843c0 0.562-0.057 1.079-0.224 1.551s-0.39 0.883-0.721 1.231c-0.332 0.348-0.747 0.62-1.242 0.816s-1.069 0.294-1.714 0.294c-0.654 0-1.235-0.098-1.731-0.294s-0.921-0.468-1.253-0.816-0.607-0.758-0.775-1.231c-0.168-0.472-0.304-0.99-0.304-1.551v-5.843h2.065v5.763c0 0.294 0.1 0.566 0.193 0.816s0.277 0.466 0.445 0.649c0.168 0.183 0.368 0.325 0.603 0.428s0.487 0.154 0.761 0.154c0.274 0 0.523-0.051 0.752-0.154s0.422-0.245 0.59-0.428c0.168-0.183 0.285-0.399 0.378-0.649s0.113-0.522 0.113-0.816zM81.175 7.163c-0.345 0.468-0.849 0.777-1.512 0.902l2.387 4.012h-2.48l-1.962-3.867h-1.159v3.867h-2.065v-9.52h3.767c0.478 0 0.931 0.059 1.359 0.153s0.804 0.262 1.127 0.481c0.323 0.219 0.579 0.513 0.77 0.883s0.285 0.831 0.285 1.385c0 0.669-0.173 1.237-0.517 1.705zM88.177 10.099c0.327-0.178 0.597-0.428 0.809-0.749l1.724 1.297c-0.398 0.562-0.902 0.976-1.512 1.244s-1.238 0.401-1.883 0.401c-0.734 0-1.41-0.116-2.029-0.348s-1.154-0.564-1.605-0.996-0.802-0.956-1.055-1.572c-0.252-0.615-0.378-1.302-0.378-2.060s0.126-1.445 0.378-2.060c0.252-0.616 0.603-1.139 1.055-1.572s0.985-0.765 1.605-0.997c0.619-0.232 1.295-0.348 2.029-0.348 0.265 0 0.542 0.025 0.829 0.073s0.57 0.127 0.849 0.234c0.279 0.107 0.546 0.25 0.802 0.428s0.486 0.397 0.69 0.655l-1.591 1.311c-0.204-0.25-0.453-0.441-0.749-0.575s-0.639-0.2-1.028-0.2-0.749 0.076-1.081 0.227c-0.332 0.152-0.619 0.364-0.862 0.635s-0.433 0.595-0.57 0.97c-0.137 0.375-0.206 0.78-0.206 1.217 0 0.446 0.068 0.854 0.206 1.224s0.325 0.691 0.564 0.963c0.238 0.272 0.519 0.484 0.842 0.635s0.67 0.227 1.041 0.227c0.424 0 0.8-0.089 1.127-0.268zM93.557 8.21v1.785h4.719v2.082h-6.784v-9.52h6.489v2.082h-4.424v1.487h4.13v2.082h-4.13zM110.601 2.557h0.902l-2.732 9.52h-1.074l-2.374-8.33h-0.027l-2.374 8.33h-1.074l-2.732-9.52h0.902l2.334 8.33h0.027l2.374-8.33h1.114l2.374 8.33h0.027l2.334-8.33zM115.375 2.557h0.902l3.952 9.52h-0.981l-1.021-2.677h-4.973l-1.061 2.677h-0.915l4.098-9.52zM120.103 3.45v-0.892h7.374v0.892h-3.245v8.627h-0.885v-8.627h-3.245zM134.909 10.681c0.221-0.183 0.416-0.403 0.584-0.662l0.716 0.548c-0.451 0.616-0.972 1.057-1.564 1.324s-1.234 0.401-1.923 0.401c-0.716 0-1.372-0.123-1.969-0.368s-1.107-0.589-1.532-1.030c-0.424-0.441-0.756-0.967-0.995-1.579s-0.358-1.277-0.358-1.999c0-0.722 0.119-1.387 0.358-1.993s0.57-1.13 0.995-1.572c0.424-0.441 0.935-0.787 1.532-1.036s1.253-0.375 1.969-0.375c0.637 0 1.231 0.114 1.784 0.341s1.036 0.609 1.452 1.144l-0.716 0.602c-0.292-0.446-0.665-0.771-1.12-0.977s-0.922-0.308-1.399-0.308c-0.61 0-1.16 0.107-1.651 0.321s-0.908 0.508-1.253 0.883c-0.345 0.375-0.61 0.816-0.796 1.324s-0.278 1.057-0.278 1.645 0.093 1.137 0.278 1.645c0.186 0.508 0.451 0.95 0.796 1.324s0.762 0.669 1.253 0.883c0.491 0.214 1.041 0.321 1.651 0.321 0.239 0 0.486-0.029 0.743-0.087s0.506-0.147 0.749-0.267 0.475-0.272 0.696-0.455zM143.7 2.557h0.885v9.52h-0.885v-4.462h-5.309v4.462h-0.885v-9.52h0.885v4.165h5.309v-4.165zM7.724 4.235l5.453 5.452-7.724 7.724-5.452-5.452 7.724-7.724zM14.291 8.471l-5.349-5.35 3.121-3.121 5.349 5.35-3.121 3.121zM16.276 19.765l-5.452-5.452 7.724-7.724 5.452 5.452-7.724 7.724zM9.709 15.529l5.35 5.35-3.121 3.121-5.35-5.35 3.121-3.121zM35.749 6.046c0.11-0.143 0.165-0.343 0.165-0.602 0-0.241-0.049-0.433-0.146-0.575s-0.221-0.252-0.371-0.328c-0.15-0.076-0.323-0.129-0.517-0.155s-0.384-0.043-0.57-0.043h-1.221v2.082h1.088c0.186 0 0.382 0.032 0.59 0.018s0.396-0.015 0.564-0.082c0.168-0.067 0.307-0.172 0.418-0.314zM61.648 8.541c0.137-0.37 0.206-0.778 0.206-1.224 0-0.437-0.069-0.843-0.206-1.217s-0.334-0.698-0.59-0.97c-0.256-0.272-0.564-0.483-0.922-0.635s-0.758-0.227-1.2-0.227c-0.442 0-0.842 0.076-1.2 0.227s-0.665 0.364-0.922 0.635c-0.256 0.272-0.453 0.595-0.59 0.97s-0.206 0.78-0.206 1.217c0 0.446 0.068 0.854 0.206 1.224s0.334 0.691 0.59 0.963c0.257 0.272 0.564 0.484 0.922 0.635s0.758 0.227 1.2 0.227c0.442 0 0.842-0.076 1.2-0.227s0.665-0.364 0.922-0.635c0.256-0.272 0.453-0.593 0.59-0.963zM79.378 6.046c0.11-0.143 0.165-0.343 0.165-0.602 0-0.241-0.049-0.433-0.146-0.575s-0.221-0.252-0.371-0.328c-0.15-0.076-0.323-0.129-0.517-0.155s-0.384-0.043-0.57-0.043h-1.49v2.082h1.357c0.186 0 0.382 0.032 0.59 0.018s0.395-0.015 0.564-0.082c0.168-0.067 0.307-0.172 0.418-0.314zM113.598 8.805h4.31l-2.122-5.189-2.188 5.189z"></path>
</svg>
