<!-- Generated by IcoMoon.io -->
<svg version="1.1" xmlns="http://www.w3.org/2000/svg" width="25" height="24" viewBox="0 0 25 24">
<title>twitter</title>
<path d="M19.835 6.545c0.793-0.595 1.388-1.388 1.785-2.182-0.794 0.397-1.587 0.793-2.579 0.992-0.793-0.992-1.785-1.388-2.975-1.388-2.182 0-3.967 1.785-3.967 3.967 0 0.397 0 0.595 0.198 0.991-3.57-0.198-6.545-1.785-8.529-4.165-0.397 0.595-0.595 1.19-0.595 1.984 0 1.388 0.793 2.579 1.785 3.372-0.595 0-1.19-0.198-1.785-0.595 0 0 0 0 0 0 0 1.984 1.388 3.57 3.173 3.967-0.198 0.198-0.595 0.397-0.992 0.397-0.198 0-0.595 0-0.793 0 0.595 1.587 1.984 2.777 3.769 2.777-1.388 0.991-2.975 1.587-4.959 1.587-0.397 0-0.595 0-0.991 0 1.785 1.19 3.967 1.785 6.148 1.785 7.537 0 11.504-6.149 11.504-11.504 0-0.198 0-0.397 0-0.595 0.794-0.595 1.388-1.388 1.984-2.182-0.595 0.397-1.388 0.595-2.182 0.794z"></path>
</svg>
