<!-- Generated by IcoMoon.io -->
<svg version="1.1" xmlns="http://www.w3.org/2000/svg" width="33" height="32" viewBox="0 0 33 32">
<title>twitter</title>
<path d="M26.446 8.727c1.058-0.793 1.851-1.851 2.38-2.909-1.058 0.529-2.116 1.058-3.438 1.322-1.058-1.322-2.38-1.851-3.967-1.851-2.909 0-5.289 2.38-5.289 5.289 0 0.529 0 0.793 0.264 1.322-4.76-0.264-8.727-2.38-11.372-5.554-0.529 0.793-0.793 1.587-0.793 2.645 0 1.851 1.058 3.438 2.38 4.496-0.793 0-1.587-0.264-2.38-0.793 0 0 0 0 0 0 0 2.645 1.851 4.76 4.231 5.289-0.264 0.264-0.793 0.529-1.322 0.529-0.264 0-0.793 0-1.058 0 0.793 2.116 2.645 3.702 5.025 3.702-1.851 1.322-3.967 2.116-6.612 2.116-0.529 0-0.793 0-1.322 0 2.38 1.587 5.289 2.38 8.198 2.38 10.050 0 15.339-8.198 15.339-15.339 0-0.264 0-0.529 0-0.793 1.058-0.793 1.851-1.851 2.645-2.909-0.793 0.529-1.851 0.793-2.909 1.058z"></path>
</svg>
