<!-- Generated by IcoMoon.io -->
<svg version="1.1" xmlns="http://www.w3.org/2000/svg" width="24" height="24" viewBox="0 0 24 24">
<title>type</title>
<path d="M19.875 1.5h-15.75c-0.362 0-0.656 0.294-0.656 0.656v3.938c0 0.362 0.294 0.656 0.656 0.656h0.656c0.362 0 0.656-0.294 0.656-0.656l1.313-1.969h3.938v15.75l-3.281 1.313c-0.362 0-0.656 0.293-0.656 0.656s0.294 0.656 0.656 0.656h9.188c0.363 0 0.656-0.293 0.656-0.656s-0.293-0.656-0.656-0.656l-3.281-1.313v-15.75h3.938l1.313 1.969c0 0.362 0.293 0.656 0.656 0.656h0.656c0.363 0 0.656-0.294 0.656-0.656v-3.938c0-0.362-0.293-0.656-0.656-0.656z"></path>
</svg>
