<!-- Generated by IcoMoon.io -->
<svg version="1.1" xmlns="http://www.w3.org/2000/svg" width="32" height="32" viewBox="0 0 32 32">
<title>type</title>
<path d="M26.5 2h-21c-0.483 0-0.875 0.392-0.875 0.875v5.25c0 0.483 0.392 0.875 0.875 0.875h0.875c0.483 0 0.875-0.392 0.875-0.875l1.75-2.625h5.25v21l-4.375 1.75c-0.483 0-0.875 0.391-0.875 0.875s0.392 0.875 0.875 0.875h12.25c0.484 0 0.875-0.391 0.875-0.875s-0.391-0.875-0.875-0.875l-4.375-1.75v-21h5.25l1.75 2.625c0 0.483 0.391 0.875 0.875 0.875h0.875c0.484 0 0.875-0.392 0.875-0.875v-5.25c0-0.483-0.391-0.875-0.875-0.875z"></path>
</svg>
