<!-- Generated by IcoMoon.io -->
<svg version="1.1" xmlns="http://www.w3.org/2000/svg" width="29" height="32" viewBox="0 0 29 32">
<title>user</title>
<path d="M14.598 14.58c3.245 0 5.87-2.615 5.87-5.835s-2.626-5.835-5.87-5.835c-3.245 0-5.87 2.615-5.87 5.835s2.626 5.835 5.87 5.835zM14.598 17.489c-4.849 0-8.779-3.915-8.779-8.745s3.931-8.745 8.779-8.745c4.849 0 8.779 3.915 8.779 8.745s-3.931 8.745-8.779 8.745zM2.934 31.975l-2.934 0.025v-4.565c0-5.858 6.512-7.071 14.545-7.071s14.545 1.213 14.545 7.071v4.319c-1.956 0.006-2.934 0.006-2.934 0v-4.319c0-2.792-3.364-4.115-11.611-4.115s-11.611 1.323-11.611 4.115v4.54z"></path>
</svg>
